<svg width="37" height="32" viewBox="0 0 37 32" fill="none" xmlns="http://www.w3.org/2000/svg">
<path d="M3.74405 8.39298C3.74405 7.98675 3.7375 7.56957 3.74514 7.15129C3.76261 6.15815 4.32714 5.58001 5.30443 5.57891C9.03559 5.57344 12.7668 5.58986 16.4979 5.56577C17.4861 5.5592 18.0212 6.12092 18.5409 7.10968C18.6076 6.91039 18.6283 6.82061 18.6665 6.73958C19.1055 5.80338 19.8622 5.50007 20.8548 5.56796C21.5787 5.61723 22.3081 5.57782 23.126 5.57782C23.126 4.85076 23.1085 4.14669 23.1304 3.44372C23.1664 2.2502 23.8991 1.34904 25.0238 1.07311C26.5383 0.701913 28.0004 1.78703 28.0692 3.35831C28.0998 4.06785 28.0747 4.78068 28.0747 5.57782C28.5093 5.57782 28.9188 5.57782 29.3293 5.57782C30.1483 5.57782 30.9672 5.56687 31.7862 5.5811C32.6477 5.59643 33.2101 6.16143 33.2385 7.02756C33.2538 7.48197 33.2407 7.93638 33.2407 8.40941C33.411 8.4554 33.5475 8.50029 33.6884 8.52767C35.0314 8.79593 35.9432 9.84492 35.9454 11.2213C35.9574 16.8812 35.9585 22.5411 35.9454 28.201C35.9421 29.8051 34.7377 30.9789 33.126 30.9932C31.6879 31.0063 30.2498 30.9965 28.8117 30.9965C20.5851 30.9965 12.3573 30.9965 4.1306 30.9965C2.09849 30.9965 1 29.8927 1 27.8506C1 22.482 1 17.1133 1 11.7458C1 9.75841 1.64643 8.92843 3.55187 8.46854C3.60428 8.45649 3.65233 8.42912 3.74296 8.39298H3.74405ZM17.9447 28.5853C17.9447 28.2776 17.9447 28.0838 17.9447 27.8911C17.9447 21.7023 17.9305 15.5136 17.9622 9.3248C17.9666 8.4773 17.7886 7.76776 17.2819 7.09982C17.0603 6.80747 16.8419 6.66512 16.4739 6.66622C12.7973 6.67607 9.12077 6.67826 5.44529 6.66622C4.99432 6.66512 4.82507 6.83156 4.83381 7.27721C4.85455 8.26268 4.85346 9.24816 4.85346 10.2347C4.85455 15.9121 4.85346 21.5896 4.85455 27.267C4.85455 27.9404 4.89277 27.9776 5.56431 27.9765C9.00393 27.9743 12.4435 27.9754 15.8832 27.9634C16.5984 27.9612 17.2961 27.9809 17.9447 28.5831V28.5853ZM23.1151 6.67388C22.1345 6.67388 21.2282 6.6706 20.3219 6.67717C20.2182 6.67717 20.0642 6.69797 20.0183 6.76586C19.6296 7.33962 19.0411 7.81265 19.0411 8.59227C19.04 15.0909 19.04 21.5885 19.0411 28.0871C19.0411 28.2185 19.0673 28.3499 19.0651 28.3258C19.7115 28.2054 20.3164 28.0006 20.9225 27.9951C24.4156 27.9645 27.9098 27.9809 31.404 27.9798C32.1192 27.9798 32.1323 27.9645 32.1323 27.2418C32.1323 21.3093 32.1323 15.3778 32.1323 9.44525C32.1323 8.69739 32.1629 7.94733 32.1302 7.20166C32.1225 7.02318 31.9194 6.70782 31.7993 6.70344C30.5709 6.66622 29.3413 6.68045 28.0834 6.68045C28.0834 6.952 28.0834 7.15129 28.0834 7.35057C28.0834 11.0921 28.0856 14.8347 28.078 18.5762C28.078 18.8248 28.0605 19.1018 27.9535 19.3164C27.378 20.4716 26.7807 21.618 26.1703 22.7557C25.8395 23.3711 25.3634 23.3711 25.0336 22.7601C24.4538 21.687 23.8805 20.6107 23.3411 19.5168C23.1959 19.2211 23.1238 18.8598 23.1216 18.528C23.1063 14.8413 23.1118 11.1534 23.1118 7.46664C23.1118 7.23013 23.1118 6.99471 23.1118 6.67498L23.1151 6.67388ZM3.73313 9.59745C2.63573 9.69819 2.09631 10.3158 2.09631 11.4326C2.09413 16.9458 2.09413 22.459 2.09631 27.9721C2.09631 29.2346 2.75475 29.8971 4.01157 29.8982C8.32474 29.9004 12.6379 29.8993 16.9511 29.8982C17.0996 29.8982 17.2481 29.8752 17.4141 29.861C17.1968 29.296 16.8277 29.1153 16.2883 29.1164C12.7034 29.1295 9.11749 29.1241 5.53265 29.123C4.27364 29.123 3.73531 28.5853 3.73531 27.3327C3.73531 21.6367 3.73531 15.9417 3.73531 10.2457C3.73531 10.0311 3.73531 9.81754 3.73531 9.59855L3.73313 9.59745ZM33.2669 9.60731C33.2669 9.86462 33.2669 10.0803 33.2669 10.2971C33.2669 15.9538 33.2669 21.6115 33.2669 27.2681C33.2669 28.5996 32.7449 29.123 31.4215 29.123C27.8563 29.123 24.29 29.1284 20.7248 29.1087C20.1537 29.1054 19.812 29.3299 19.5706 29.8971H20.097C24.3719 29.8971 28.6469 29.8971 32.9218 29.8971C34.2125 29.8971 34.8567 29.2456 34.8567 27.9393C34.8578 24.4179 34.8567 20.8954 34.8567 17.3739C34.8567 15.3669 34.8611 13.3598 34.8545 11.3516C34.8513 10.3387 34.3086 9.72228 33.2669 9.60731ZM26.9391 18.3747V5.407H24.254V18.3747H26.9391ZM26.9565 4.24305C27.0013 3.49299 27.1007 2.76265 26.3582 2.31699C25.834 2.00164 25.2771 2.0104 24.7705 2.36298C24.0913 2.83601 24.1939 3.5346 24.2573 4.24414H26.9565V4.24305ZM26.5951 19.5245H24.599C24.9419 20.1705 25.2542 20.7596 25.6058 21.4231C25.9563 20.7508 26.2555 20.1771 26.5951 19.5245Z" fill="#BEBFE4" stroke="#BEBFE4"/>
<path d="M11.4322 11.8376C10.0312 11.8376 8.62915 11.8333 7.22819 11.8409C6.83072 11.8431 6.52498 11.7391 6.52934 11.2825C6.53262 10.8171 6.85911 10.7383 7.24566 10.7383C10.0115 10.7416 12.7785 10.7383 15.5444 10.7416C16.074 10.7416 16.3535 10.9912 16.276 11.381C16.2007 11.7599 15.9277 11.8431 15.5815 11.8409C14.198 11.8333 12.8156 11.8376 11.4322 11.8376Z" fill="#BEBFE4" stroke="#BEBFE4"/>
<path d="M11.3721 18.8242C9.99185 18.8242 8.61163 18.8198 7.23251 18.8275C6.83832 18.8297 6.52821 18.7322 6.5293 18.2745C6.5293 17.8179 6.83504 17.7216 7.23142 17.7227C10.0093 17.7292 12.7872 17.7292 15.5662 17.7227C15.9637 17.7227 16.2771 17.8256 16.2771 18.2723C16.2771 18.7158 15.9659 18.8297 15.5673 18.8275C14.1696 18.8187 12.7708 18.8242 11.3732 18.8242H11.3721Z" fill="#BEBFE4" stroke="#BEBFE4"/>
<path d="M11.3946 15.332C10.0144 15.332 8.6342 15.3265 7.25508 15.3353C6.86744 15.3375 6.54204 15.2641 6.52785 14.8064C6.51256 14.3126 6.84779 14.2294 7.26054 14.2305C10.021 14.237 12.7803 14.237 15.5407 14.2305C15.9284 14.2305 16.2636 14.306 16.2745 14.7572C16.2865 15.2357 15.9513 15.3386 15.5353 15.3353C14.1551 15.3255 12.7748 15.332 11.3957 15.332H11.3946Z" fill="#BEBFE4" stroke="#BEBFE4"/>
<path d="M11.3998 21.2221C12.7833 21.2221 14.1657 21.2276 15.5492 21.2188C15.939 21.2166 16.2688 21.2976 16.2775 21.752C16.2862 22.201 15.9707 22.3214 15.5754 22.3214C12.7909 22.3192 10.0065 22.3192 7.22204 22.3214C6.82895 22.3214 6.51774 22.213 6.52757 21.752C6.5374 21.2867 6.86389 21.2166 7.25044 21.2188C8.63393 21.2265 10.0163 21.2221 11.3998 21.2221Z" fill="#BEBFE4" stroke="#BEBFE4"/>
<path d="M11.3939 24.717C12.7949 24.717 14.1958 24.7115 15.5957 24.7203C16.0925 24.7236 16.3502 24.9699 16.276 25.3499C16.1952 25.7693 15.8698 25.8152 15.5236 25.8152C14.2504 25.8152 12.9772 25.8152 11.7029 25.8152C10.2299 25.8152 8.75578 25.8251 7.28275 25.8043C7.05235 25.801 6.74442 25.7178 6.61011 25.5557C6.30328 25.1867 6.62977 24.7247 7.19103 24.7203C8.59199 24.7104 9.99295 24.717 11.3928 24.717H11.3939Z" fill="#BEBFE4" stroke="#BEBFE4"/>
</svg>
