<svg width="31" height="34" viewBox="0 0 31 34" fill="none" xmlns="http://www.w3.org/2000/svg">
<path d="M13.1432 30.671C12.686 30.439 12.3036 30.1445 11.9906 29.7852H18.257C17.5984 30.5489 16.7662 31.0006 15.7024 31.1623L15.6665 31.1677C15.662 31.1683 15.6567 31.1689 15.6506 31.1695C15.6061 31.1745 15.545 31.1806 15.4792 31.1867C15.4142 31.1927 15.3505 31.1983 15.3023 31.2022C15.2896 31.2032 15.279 31.204 15.2702 31.2047H14.9375C14.2682 31.1551 13.645 30.9299 13.1519 30.6755L13.1519 30.6755L13.1432 30.671Z" stroke="#898BCE" stroke-width="3"/>
<path d="M1.6724 27.6228L1.67238 27.6228C1.77369 28.0989 2.13122 28.4768 2.9309 28.4768H2.95474H2.97858H3.00242H3.02626H3.0501H3.07394H3.09777H3.12161H3.14545H3.16929H3.19313H3.21697H3.24081H3.26465H3.28848H3.31232H3.33616H3.36H3.38384H3.40768H3.43152H3.45536H3.47919H3.50303H3.52687H3.55071H3.57455H3.59839H3.62223H3.64606H3.6699H3.69374H3.71758H3.74142H3.76526H3.7891H3.81294H3.83677H3.86061H3.88445H3.90829H3.93213H3.95597H3.97981H4.00364H4.02748H4.05132H4.07516H4.099H4.12284H4.14668H4.17052H4.19435H4.21819H4.24203H4.26587H4.28971H4.31355H4.33739H4.36122H4.38506H4.4089H4.43274H4.45658H4.48042H4.50426H4.5281H4.55193H4.57577H4.59961H4.62345H4.64729H4.67113H4.69497H4.7188H4.74264H4.76648H4.79032H4.81416H4.838H4.86184H4.88568H4.90951H4.93335H4.95719H4.98103H5.00487H5.02871H5.05255H5.07639H5.10022H5.12406H5.1479H5.17174H5.19558H5.21942H5.24326H5.26709H5.29093H5.31477H5.33861H5.36245H5.38629H5.41013H5.43397H5.4578H5.48164H5.50548H5.52932H5.55316H5.577H5.60084H5.62467H5.64851H5.67235H5.69619H5.72003H5.74387H5.76771H5.79155H5.81538H5.83922H5.86306H5.8869H5.91074H5.93458H5.95842H5.98225H6.00609H6.02993H6.05377H6.07761H6.10145H6.12529H6.14913H6.17296H6.1968H6.22064H6.24448H6.26832H6.29216H6.316H6.33983H6.36367H6.38751H6.41135H6.43519H6.45903H6.48287H6.50671H6.53054H6.55438H6.57822H6.60206H6.6259H6.64974H6.67358H6.69741H6.72125H6.74509H6.76893H6.79277H6.81661H6.84045H6.86429H6.88812H6.91196H6.9358H6.95964H6.98348H7.00732H7.03116H7.055H7.07883H7.10267H7.12651H7.15035H7.17419H7.19803H7.22187H7.2457H7.26954H7.29338H7.31722H7.34106H7.3649H7.38874H7.41258H7.43641H7.46025H7.48409H7.50793H7.53177H7.55561H7.57945H7.60328H7.62712H7.65096H7.6748H7.69864H7.72248H7.74632H7.77016H7.79399H7.81783H7.84167H7.86551H7.88935H7.91319H7.93703H7.96086H7.9847H8.00854H8.03238H8.05622H8.08006H8.1039H8.12774H8.15157H8.17541H8.19925H8.22309H8.24693H8.27077H8.29461H8.31845H8.34228H8.36612H8.38996H8.4138H8.43764H8.46148H8.48532H8.50915H8.53299H8.55683H8.58067H8.60451H8.62835H8.65219H8.67602H8.69986H8.7237H8.74754H8.77138H8.79522H8.81906H8.8429H8.86673H8.89057H8.91441H8.93825H8.96209H8.98593H9.00977H9.0336H9.05744H9.08128H9.10512H9.12896H9.1528H9.17664H9.20048H9.22431H9.24815H9.27199H9.29583H9.31967H9.34351H9.36735H9.39118H9.41502H9.43886H9.4627H9.48654H9.51038H9.53422H9.55806H9.58189H9.60573H9.62957H9.65341H9.67725H9.70109H9.72493H9.74876H9.7726H9.79644H9.82028H9.84412H9.86796H9.8918H9.91564H9.93947H9.96331H9.98715H10.011H10.0348H10.0587H10.0825H10.1063H10.1302H10.154H10.1779H10.2017H10.2255H10.2494H10.2732H10.2971H10.3209H10.3447H10.3686H10.3924H10.4162H10.4401H10.4639H10.4878H10.5116H10.5354H10.5593H10.5831H10.607H10.6308H10.6546H10.6785H10.7023H10.7262H10.75H10.7738H10.7977H10.8215H10.8453H10.8692H10.893H10.9169H10.9407H10.9645H10.9884H11.0122H11.0361H11.0599H11.0837H11.1076H11.1314H11.1552H11.1791H11.2029H11.2268H11.2506H11.2744H11.2983H11.3221H11.346H11.3698H11.3936H11.4175H11.4413H11.4651H11.489H11.5128H11.5367H11.5605H11.5843H11.6082H11.632H11.6559H11.6797H11.7035H11.7274H11.7512H11.7751H11.7989H11.8227H11.8466H11.8704H11.8942H11.9181H11.9419H11.9658H11.9896H12.0134H12.0373H12.0611H12.085H12.1088H12.1326H12.1565H12.1803H12.2041H12.228H12.2518H12.2757H12.2995H12.3233H12.3472H12.371H12.3949H12.4187H12.4425H12.4664H12.4902H12.5141H12.5379H12.5617H12.5856H12.6094H12.6332H12.6571H12.6809H12.7048H12.7286H12.7524H12.7763H12.8001H12.824H12.8478H12.8716H12.8955H12.9193H12.9431H12.967H12.9908H13.0147H13.0385H13.0623H13.0862H13.11H13.1339H13.1577H13.1815H13.2054H13.2292H13.253H13.2769H13.3007H13.3246H13.3484H13.3722H13.3961H13.4199H13.4438H13.4676H13.4914H13.5153H13.5391H13.563H13.5868H13.6106H13.6345H13.6583H13.6821H13.706H13.7298H13.7537H13.7775H13.8013H13.8252H13.849H13.8729H13.8967H13.9205H13.9444H13.9682H13.992H14.0159H14.0397H14.0636H14.0874H14.1112H14.1351H14.1589H14.1828H14.2066H14.2304H14.2543H14.2781H14.302H14.3258H14.3496H14.3735H14.3973H14.4211H14.445H14.4688H14.4927H14.5165H14.5403H14.5642H14.588H14.6119H14.6357H14.6595H14.6834H14.7072H14.731H14.7549H14.7787H14.8026H14.8264H14.8502H14.8741H14.8979H14.9218H14.9456H14.9694H14.9933H15.0171H15.041H15.0648H15.0886H15.1125H15.1358H15.1363L22.6652 28.474H22.6658C23.2004 28.474 23.7315 28.4752 24.2607 28.4763C25.3117 28.4786 26.3552 28.4808 27.4041 28.474L1.6724 27.6228ZM1.6724 27.6228L1.67085 27.6157M1.6724 27.6228L1.67085 27.6157M1.67085 27.6157C1.57435 27.1728 1.66838 26.847 2.1108 26.4711L2.11118 26.4708M1.67085 27.6157L2.11118 26.4708M2.11118 26.4708C3.08329 25.6441 3.90956 24.6623 4.55534 23.5653C5.64155 21.7305 6.13617 19.746 6.1415 17.6706V17.6668M2.11118 26.4708L6.1415 17.6668M6.1415 17.6668C6.1415 17.2644 6.14022 16.8664 6.13896 16.4713C6.13562 15.4332 6.13235 14.4148 6.15249 13.389L6.1525 13.3887M6.1415 17.6668L6.1525 13.3887M6.1525 13.3887C6.23216 9.2813 9.40277 5.63753 13.5537 4.95022C13.7418 4.91964 14.2884 4.82415 14.708 4.3523C15.0063 4.01683 15.1086 3.646 15.1408 3.36381M6.1525 13.3887L15.1408 3.36381M15.1408 3.36381C15.1668 3.62765 15.2579 4.01495 15.5677 4.36474C15.9558 4.80285 16.4465 4.9065 16.6557 4.94017C20.5511 5.63065 23.439 8.5511 24.0437 12.367C24.1081 12.8674 24.1389 13.3714 24.1358 13.8759L24.1357 13.893L24.136 13.9101C24.1442 14.3984 24.1428 14.92 24.1414 15.4584C24.1385 16.5047 24.1355 17.6144 24.2027 18.6658L15.1408 3.36381ZM28.0197 26.33C25.752 24.3134 24.3981 21.7398 24.2028 18.6665L28.0197 26.33ZM28.0197 26.33C28.5014 26.7585 28.6129 27.0049 28.6316 27.2336M28.0197 26.33L28.6316 27.2336M28.6316 27.2336L30.1266 27.1109M28.6316 27.2336L30.1266 27.1109M30.1266 27.1109L28.6315 27.2325C28.6885 27.9329 28.259 28.4683 27.4044 28.474L30.1266 27.1109ZM15.1414 2.22957C15.1428 2.36816 15.1427 2.50764 15.1411 2.64813C15.1391 2.51016 15.1393 2.37067 15.1414 2.22957ZM15.1317 1.81256L15.1317 1.81264C15.1317 1.81261 15.1317 1.81258 15.1317 1.81256Z" stroke="#898BCE" stroke-width="3"/>
</svg>
