<svg width="32" height="32" viewBox="0 0 32 32" fill="none" xmlns="http://www.w3.org/2000/svg">
<path d="M29.5644 18.3019C30.6456 20.1145 30.0748 21.7397 28.5114 22.5953C29.5029 24.1296 28.9262 25.9569 27.3658 26.6972C27.7405 27.2647 27.9376 27.8839 27.8547 28.5695C27.6819 29.9964 26.6973 30.9994 25.2706 30.9984C22.2971 30.9965 19.3139 31.0375 16.3541 30.8109C14.579 30.6751 12.84 30.0706 11.0864 29.6721C10.5204 29.5432 9.95831 29.3996 9.40207 29.2648C8.95708 30.3753 8.76776 30.4993 7.57135 30.5003C6.51449 30.5003 5.45763 30.5042 4.40077 30.5003C2.32413 30.4906 1.00769 29.1877 1.00476 27.1211C0.998909 22.8238 0.997933 18.5265 1.00476 14.2302C1.00867 12.1675 2.29095 10.8861 4.35393 10.8675C5.47617 10.8578 6.59841 10.8646 7.71968 10.8656C8.77361 10.8666 9.10541 11.1264 9.3728 12.2036C9.63823 12.0806 9.90366 11.978 10.1486 11.8393C11.3021 11.183 12.5229 10.6136 13.5836 9.82936C15.2397 8.60561 16.2009 6.84469 16.8899 4.92849C17.1309 4.25655 17.4002 3.59437 17.6784 2.93611C18.2883 1.49553 19.6096 0.775738 21.09 1.0619C22.4455 1.32364 23.4399 2.5806 23.4262 4.08075C23.4135 5.49495 23.4428 6.91794 23.2906 8.31944C23.1032 10.0384 22.3996 11.5991 21.3369 13.1031C21.5769 13.1148 21.7399 13.1285 21.9029 13.1285C24.001 13.1305 26.0991 13.1627 28.1962 13.1187C29.783 13.0865 30.8769 14.2399 30.9882 15.5496C31.0721 16.5312 30.6935 17.3242 29.9713 17.9688C29.8396 18.086 29.6981 18.1915 29.5644 18.3009V18.3019ZM9.3279 20.763C9.3279 23.0094 9.33278 25.2557 9.32303 27.503C9.32205 27.8087 9.38938 27.9649 9.72606 28.0323C10.4248 28.1729 11.1069 28.3917 11.8037 28.5451C13.5758 28.9338 15.3382 29.5002 17.1309 29.634C19.8331 29.8362 22.5577 29.7405 25.2725 29.7493C25.8825 29.7512 26.3148 29.4084 26.5314 28.8351C26.9091 27.834 26.1869 26.7832 25.0881 26.7539C24.2108 26.7314 23.3315 26.7568 22.4533 26.7451C21.9692 26.7392 21.7321 26.4863 21.775 26.0565C21.8219 25.5887 22.1468 25.495 22.5411 25.495C23.7443 25.495 24.9486 25.4989 26.1518 25.494C27.0867 25.4901 27.7024 24.906 27.6917 24.0466C27.681 23.1998 27.0759 22.6324 26.1694 22.6265C25.3565 22.6216 24.5426 22.6275 23.7297 22.6246C23.1413 22.6226 22.8866 22.4234 22.8953 21.9839C22.9041 21.5629 23.15 21.3735 23.7112 21.3715C24.8988 21.3686 26.0854 21.3735 27.2731 21.3695C28.2206 21.3656 28.8052 20.807 28.8003 19.9202C28.7954 19.0519 28.2314 18.5206 27.2916 18.5128C26.4787 18.506 25.6639 18.5402 24.8529 18.4933C24.6031 18.4786 24.2645 18.3194 24.1425 18.1192C23.8878 17.7032 24.2264 17.2559 24.7641 17.251C25.9352 17.2393 27.1062 17.2441 28.2772 17.2471C28.8666 17.2481 29.3175 17.0127 29.5898 16.4833C30.1236 15.4451 29.4092 14.3708 28.1709 14.3669C25.617 14.3591 23.0642 14.365 20.5103 14.364C20.1541 14.364 19.7677 14.4148 19.5745 14.0085C19.3852 13.608 19.6857 13.3473 19.8672 13.0435C20.4147 12.1265 21.0207 11.2328 21.4637 10.2659C22.4269 8.16318 22.222 5.90515 22.1351 3.68227C22.1068 2.94783 21.3652 2.33448 20.6177 2.24268C19.9316 2.15869 19.191 2.59037 18.9011 3.2838C18.544 4.13739 18.2102 5.00076 17.8774 5.86413C16.8586 8.51185 15.1645 10.5833 12.6595 11.9458C11.7188 12.4575 10.7527 12.9224 9.78363 13.3805C9.44403 13.5407 9.31522 13.7331 9.31912 14.1198C9.33962 16.3339 9.32888 18.548 9.32888 20.7621L9.3279 20.763ZM8.07099 12.0639C6.73699 12.0639 5.43909 12.0464 4.14217 12.0698C3.01114 12.0903 2.26851 12.8638 2.26656 14.0046C2.2607 18.4288 2.2607 22.8531 2.26656 27.2773C2.26851 28.4806 3.04725 29.2502 4.25829 29.259C5.39615 29.2678 6.53303 29.2619 7.67089 29.259C7.79678 29.259 7.92169 29.2404 8.07099 29.2287V12.0639Z" fill="#BEBFE4" stroke="#BEBFE4" stroke-width="1.5"/>
</svg>
