<svg width="33" height="26" viewBox="0 0 33 26" fill="none" xmlns="http://www.w3.org/2000/svg">
<path d="M16.5005 18.8761C19.3572 18.8761 21.673 16.5603 21.673 13.7037C21.673 10.847 19.3572 8.53125 16.5005 8.53125C13.6439 8.53125 11.3281 10.847 11.3281 13.7037C11.3281 16.5603 13.6439 18.8761 16.5005 18.8761Z" stroke="#BEBFE4" stroke-width="3" stroke-linecap="round" stroke-linejoin="round"/>
<path d="M25.293 10.6016C26.4978 10.5996 27.6865 10.8791 28.7641 11.4179C29.8417 11.9568 30.7786 12.7399 31.4999 13.705" stroke="#BEBFE4" stroke-width="3" stroke-linecap="round" stroke-linejoin="round"/>
<path d="M1.5 13.705C2.22129 12.7399 3.15812 11.9568 4.23577 11.4179C5.31341 10.8791 6.50205 10.5996 7.7069 10.6016" stroke="#BEBFE4" stroke-width="3" stroke-linecap="round" stroke-linejoin="round"/>
<path d="M9.05078 23.5308C9.73202 22.1356 10.7914 20.9599 12.1083 20.1374C13.4251 19.315 14.9465 18.8789 16.4991 18.8789C18.0516 18.8789 19.573 19.315 20.8899 20.1374C22.2067 20.9599 23.2661 22.1356 23.9473 23.5308" stroke="#BEBFE4" stroke-width="3" stroke-linecap="round" stroke-linejoin="round"/>
<path d="M7.70658 10.6001C6.92121 10.6009 6.15182 10.3781 5.48833 9.95792C4.82483 9.53769 4.29463 8.93732 3.95967 8.22696C3.62471 7.51659 3.49883 6.72557 3.59673 5.94632C3.69464 5.16707 4.01228 4.43177 4.51256 3.82634C5.01283 3.22092 5.67507 2.77036 6.4219 2.52733C7.16873 2.28429 7.9693 2.25881 8.73007 2.45387C9.49084 2.64892 10.1804 3.05645 10.7181 3.62884C11.2559 4.20123 11.6197 4.91484 11.7669 5.68629" stroke="#BEBFE4" stroke-width="3" stroke-linecap="round" stroke-linejoin="round"/>
<path d="M21.2324 5.68629C21.3797 4.91484 21.7434 4.20123 22.2812 3.62884C22.819 3.05645 23.5085 2.64892 24.2693 2.45387C25.0301 2.25881 25.8306 2.28429 26.5775 2.52733C27.3243 2.77036 27.9865 3.22092 28.4868 3.82634C28.9871 4.43177 29.3047 5.16707 29.4026 5.94632C29.5005 6.72557 29.3746 7.51659 29.0397 8.22696C28.7047 8.93732 28.1745 9.53769 27.511 9.95792C26.8475 10.3781 26.0781 10.6009 25.2928 10.6001" stroke="#BEBFE4" stroke-width="3" stroke-linecap="round" stroke-linejoin="round"/>
</svg>
