<svg width="13" height="14" viewBox="0 0 13 14" fill="none" xmlns="http://www.w3.org/2000/svg">
<path d="M0.571991 4.30522L12.7715 4.30522L12.7715 11.9985C12.7715 12.7315 12.3371 13.302 11.692 13.4128C11.5964 13.429 11.5 13.4373 11.4033 13.4375C8.16066 13.4375 4.91778 13.4375 1.67467 13.4375C1.02053 13.4375 0.605304 12.9861 0.575019 12.2432C0.572663 12.1865 0.573 12.129 0.573 12.0723C0.573 9.53708 0.573001 7.00171 0.573001 4.46621L0.571991 4.30522ZM9.56674 5.88924C9.41128 5.88924 9.25582 5.88696 9.1007 5.88924C8.91025 5.89267 8.78776 6.01407 8.78305 6.22835C8.77498 6.58838 8.77498 6.94842 8.78305 7.30846C8.78743 7.50561 8.89477 7.63425 9.06739 7.63996C9.39872 7.65112 9.73016 7.65112 10.0617 7.63996C10.2444 7.63387 10.335 7.51436 10.337 7.30846C10.3408 6.95324 10.3408 6.59803 10.337 6.24281C10.335 6.02359 10.2158 5.89381 10.0193 5.89C9.86958 5.88696 9.71783 5.88924 9.56674 5.88924ZM6.52789 11.5056L6.99393 11.5056C7.18539 11.4984 7.29139 11.4013 7.29677 11.1897C7.30664 10.8206 7.30664 10.4511 7.29677 10.0814C7.29206 9.87936 7.17732 9.7549 6.99763 9.75071C6.67864 9.7426 6.35964 9.7426 6.04065 9.75071C5.85625 9.75566 5.74622 9.89153 5.74454 10.0986C5.74117 10.4492 5.74117 10.7997 5.74454 11.1501C5.74656 11.3709 5.86365 11.5003 6.06084 11.5045C6.21596 11.5079 6.37142 11.5052 6.52789 11.5056ZM10.3407 10.6386C10.3407 10.4632 10.3427 10.2881 10.3407 10.1127C10.3376 9.89496 10.232 9.75604 10.0432 9.75072C9.72422 9.74158 9.40388 9.74234 9.08623 9.75071C8.90655 9.75528 8.79079 9.87974 8.78608 10.0807C8.77733 10.4453 8.77733 10.8107 8.78608 11.1749C8.79147 11.3815 8.91462 11.5026 9.09902 11.5049C9.41397 11.5083 9.72893 11.5087 10.0436 11.5049C10.2347 11.5018 10.3356 11.3834 10.34 11.1658C10.342 10.9892 10.3393 10.8141 10.3393 10.6386L10.3407 10.6386ZM6.53193 5.88924C6.37243 5.88924 6.2126 5.88658 6.05344 5.88924C5.86433 5.89343 5.74689 6.02283 5.74487 6.23672C5.74117 6.58724 5.74184 6.93777 5.74487 7.28867C5.74655 7.49762 5.85087 7.63501 6.03627 7.6411C6.36334 7.65176 6.69109 7.651 7.01782 7.6411C7.19885 7.63539 7.29105 7.53149 7.2961 7.32825C7.30552 6.95908 7.30552 6.58965 7.2961 6.21997C7.29105 6.01103 7.16991 5.89381 6.98451 5.89C6.8341 5.88658 6.68301 5.88924 6.53193 5.88924ZM2.74101 10.6325C2.74101 10.7985 2.74101 10.9644 2.74101 11.1304C2.74337 11.3701 2.85643 11.5026 3.06607 11.5049C3.35993 11.5074 3.6538 11.5074 3.94767 11.5049C4.15394 11.5022 4.29157 11.3599 4.29695 11.1266C4.3048 10.7805 4.3048 10.4344 4.29695 10.0883C4.2919 9.87974 4.17615 9.75414 3.99041 9.74995C3.67635 9.74285 3.36139 9.74285 3.04554 9.74995C2.85441 9.7549 2.74606 9.89039 2.7427 10.1062C2.73866 10.2816 2.74101 10.4571 2.74101 10.6325ZM3.52134 5.88886L3.05496 5.88886C2.8598 5.89533 2.74371 6.02435 2.74169 6.247C2.739 6.59308 2.739 6.93916 2.74169 7.28525C2.74169 7.49571 2.846 7.63425 3.0304 7.6411C3.34502 7.65252 3.66031 7.65176 3.97493 7.6411C4.16437 7.63463 4.29089 7.49115 4.29628 7.27687C4.30503 6.92166 4.30424 6.56644 4.29392 6.21122C4.28786 6.01065 4.16538 5.89457 3.98738 5.89038C3.83192 5.88658 3.67646 5.88924 3.52134 5.88886Z" fill="#D9D9D9"/>
<path d="M12.7329 3.39082L0.592966 3.39083C0.592965 2.78873 0.570757 2.19463 0.600031 1.60433C0.624259 1.10956 0.981276 0.536012 1.65392 0.564176C1.95676 0.576736 2.25961 0.564176 2.56245 0.564176L2.70007 0.564176L2.70007 0.874357C2.70007 1.1735 2.70007 1.47265 2.70007 1.77179C2.70007 2.08387 2.84981 2.27912 3.08435 2.27722C3.31888 2.27531 3.46054 2.08692 3.46155 1.77978C3.46155 1.43345 3.46155 1.08673 3.46155 0.740009L3.46155 0.574452L9.53354 0.574452C9.5359 0.625831 9.54027 0.676069 9.54027 0.726688C9.54027 1.097 9.53792 1.46732 9.54229 1.83763C9.54465 2.05152 9.65468 2.21175 9.81956 2.26428C9.97064 2.31261 10.149 2.25134 10.2287 2.09453C10.274 1.9996 10.2983 1.89372 10.2997 1.78587C10.3085 1.43459 10.3031 1.0833 10.3031 0.731636L10.3031 0.564557C10.6793 0.564557 11.0403 0.552758 11.4004 0.569885C11.5805 0.575025 11.7586 0.613597 11.9277 0.684062C12.3402 0.868268 12.6343 1.18796 12.7238 1.70366C12.7287 1.72676 12.7317 1.75034 12.7326 1.77407C12.7332 2.31071 12.7329 2.8462 12.7329 3.39082Z" fill="#D9D9D9"/>
</svg>
