<svg width="12" height="24" viewBox="0 0 12 24" fill="none" xmlns="http://www.w3.org/2000/svg">
<path d="M4.51491 11.5212L4.37995 12.0026L4.44616 12.0212H4.51491V11.5212ZM4.51491 8.20085L4.63618 7.71578L4.51491 8.20085ZM7.5028 17.6242L7.90518 17.921L7.5028 17.6242ZM0.523045 20.6882C0.372649 20.9198 0.438474 21.2295 0.670068 21.3799L4.44411 23.8307C4.67571 23.9811 4.98537 23.9153 5.13577 23.6837C5.28616 23.4521 5.22034 23.1425 4.98874 22.9921L1.63404 20.8135L3.81256 17.4588C3.96295 17.2272 3.89713 16.9176 3.66553 16.7672C3.43394 16.6168 3.12427 16.6826 2.97388 16.9142L0.523045 20.6882ZM3.13633 1.11621C4.45613 1.11621 6.29911 1.58489 7.80091 2.55737C9.29405 3.52424 10.3866 4.94162 10.3866 6.83749H11.3866C11.3866 4.49555 10.019 2.80229 8.34444 1.71798C6.67858 0.639267 4.64641 0.116211 3.13633 0.116211V1.11621ZM10.3866 6.83749C10.3866 7.86833 9.68665 8.90698 8.53402 9.71578C7.39216 10.517 5.89835 11.0212 4.51491 11.0212V12.0212C6.11937 12.0212 7.8114 11.4445 9.10841 10.5344C10.3947 9.63181 11.3866 8.32863 11.3866 6.83749H10.3866ZM4.64987 11.0397C3.04062 10.5886 2.80472 9.79222 2.88501 9.38949C2.9748 8.93908 3.51791 8.46698 4.39365 8.68592L4.63618 7.71578C3.30548 7.3831 2.1248 8.08794 1.90431 9.19398C1.67431 10.3477 2.54164 11.4873 4.37995 12.0026L4.64987 11.0397ZM4.39365 8.68592C4.94474 8.82369 5.52699 9.23368 6.066 9.87467C6.60029 10.5101 7.06194 11.3378 7.38057 12.2408C8.02784 14.0751 8.03642 16.0585 7.10043 17.3274L7.90518 17.921C9.12639 16.2654 9.02005 13.8818 8.32359 11.908C7.97035 10.9069 7.45293 9.97025 6.83137 9.23108C6.21451 8.49751 5.46411 7.92276 4.63618 7.71578L4.39365 8.68592ZM7.10043 17.3274C6.21563 18.5269 5.3194 19.1609 4.33416 19.5705C3.31946 19.9923 2.21324 20.1792 0.838422 20.4715L1.04634 21.4496C2.3572 21.171 3.59302 20.9616 4.71803 20.4939C5.8725 20.014 6.91365 19.2652 7.90518 17.921L7.10043 17.3274Z" fill="black"/>
</svg>
