<svg width="44" height="33" viewBox="0 0 44 33" fill="none" xmlns="http://www.w3.org/2000/svg">
<path d="M3.2356 29.8027C2.38403 28.8574 1.71997 27.6543 1.24341 26.1934C0.774658 24.7324 0.540283 23.1855 0.540283 21.5527C0.540283 19.9199 0.700439 18.4199 1.02075 17.0527C1.34888 15.6777 1.78638 14.4277 2.33325 13.3027C2.88794 12.1699 3.52856 11.0801 4.25513 10.0332C4.9895 8.97852 5.75903 8.04102 6.56372 7.2207C7.36841 6.40039 8.18872 5.63477 9.02466 4.92383C9.8606 4.21289 10.6614 3.60742 11.427 3.10742C12.1926 2.59961 12.8997 2.16602 13.5481 1.80664C14.8059 1.10352 15.5833 0.751953 15.8801 0.751953C16.1848 0.751953 16.4231 0.892578 16.595 1.17383C16.7747 1.44727 16.8645 1.67773 16.8645 1.86523C16.8645 2.05273 16.5442 2.2832 15.9036 2.55664C15.2629 2.82227 14.5247 3.23242 13.6887 3.78711C12.8528 4.33398 12.1106 4.9043 11.4622 5.49805C10.8215 6.0918 10.2043 6.73242 9.6106 7.41992C9.02466 8.10742 8.52075 8.76367 8.09888 9.38867C7.677 10.0059 7.28247 10.6426 6.91528 11.2988C6.2981 12.4004 5.84106 13.3301 5.54419 14.0879C5.24731 14.8379 5.09888 15.2676 5.09888 15.377C5.09888 15.4785 5.14575 15.5293 5.2395 15.5293C5.34106 15.5293 5.84888 15.4434 6.76294 15.2715C7.677 15.0918 8.84497 15.002 10.2668 15.002C11.6887 15.002 12.9583 15.2051 14.0754 15.6113C15.2004 16.0098 16.177 16.5645 17.0051 17.2754C18.802 18.8145 19.7004 20.8105 19.7004 23.2637C19.7004 26.2012 18.7512 28.5254 16.8528 30.2363C15.0168 31.8926 12.7629 32.7207 10.0911 32.7207C7.26294 32.7207 4.97778 31.748 3.2356 29.8027ZM4.59497 17.498C4.53247 17.8105 4.4231 18.3379 4.26685 19.0801C4.11841 19.8223 4.04419 20.8066 4.04419 22.0332C4.04419 23.2598 4.12231 24.2559 4.27856 25.0215C4.44263 25.7871 4.70435 26.5293 5.06372 27.248C5.4231 27.9668 5.8606 28.5996 6.37622 29.1465C7.50122 30.3418 8.96606 30.9395 10.7708 30.9395C12.3254 30.9395 13.6184 30.2402 14.6497 28.8418C15.6497 27.4746 16.1497 26.084 16.1497 24.6699C16.1497 23.2559 15.9973 22.0762 15.6926 21.1309C15.3958 20.1777 14.9504 19.3418 14.3567 18.623C13.1067 17.1074 11.2551 16.3496 8.802 16.3496C7.58325 16.3496 6.65747 16.4199 6.02466 16.5605C5.39185 16.7012 5.052 16.791 5.00513 16.8301C4.95825 16.8613 4.91528 16.8848 4.87622 16.9004C4.83716 16.9082 4.802 16.9434 4.77075 17.0059C4.7395 17.0605 4.71606 17.0996 4.70044 17.123C4.68481 17.1465 4.66528 17.2051 4.64185 17.2988C4.61841 17.3926 4.60278 17.459 4.59497 17.498ZM27.2356 29.8027C26.384 28.8574 25.72 27.6543 25.2434 26.1934C24.7747 24.7324 24.5403 23.1855 24.5403 21.5527C24.5403 19.9199 24.7004 18.4199 25.0208 17.0527C25.3489 15.6777 25.7864 14.4277 26.3333 13.3027C26.8879 12.1699 27.5286 11.0801 28.2551 10.0332C28.9895 8.97852 29.759 8.04102 30.5637 7.2207C31.3684 6.40039 32.1887 5.63477 33.0247 4.92383C33.8606 4.21289 34.6614 3.60742 35.427 3.10742C36.1926 2.59961 36.8997 2.16602 37.5481 1.80664C38.8059 1.10352 39.5833 0.751953 39.8801 0.751953C40.1848 0.751953 40.4231 0.892578 40.595 1.17383C40.7747 1.44727 40.8645 1.67773 40.8645 1.86523C40.8645 2.05273 40.5442 2.2832 39.9036 2.55664C39.2629 2.82227 38.5247 3.23242 37.6887 3.78711C36.8528 4.33398 36.1106 4.9043 35.4622 5.49805C34.8215 6.0918 34.2043 6.73242 33.6106 7.41992C33.0247 8.10742 32.5208 8.76367 32.0989 9.38867C31.677 10.0059 31.2825 10.6426 30.9153 11.2988C30.2981 12.4004 29.8411 13.3301 29.5442 14.0879C29.2473 14.8379 29.0989 15.2676 29.0989 15.377C29.0989 15.4785 29.1458 15.5293 29.2395 15.5293C29.3411 15.5293 29.8489 15.4434 30.7629 15.2715C31.677 15.0918 32.845 15.002 34.2668 15.002C35.6887 15.002 36.9583 15.2051 38.0754 15.6113C39.2004 16.0098 40.177 16.5645 41.0051 17.2754C42.802 18.8145 43.7004 20.8105 43.7004 23.2637C43.7004 26.2012 42.7512 28.5254 40.8528 30.2363C39.0168 31.8926 36.7629 32.7207 34.0911 32.7207C31.2629 32.7207 28.9778 31.748 27.2356 29.8027ZM28.595 17.498C28.5325 17.8105 28.4231 18.3379 28.2668 19.0801C28.1184 19.8223 28.0442 20.8066 28.0442 22.0332C28.0442 23.2598 28.1223 24.2559 28.2786 25.0215C28.4426 25.7871 28.7043 26.5293 29.0637 27.248C29.4231 27.9668 29.8606 28.5996 30.3762 29.1465C31.5012 30.3418 32.9661 30.9395 34.7708 30.9395C36.3254 30.9395 37.6184 30.2402 38.6497 28.8418C39.6497 27.4746 40.1497 26.084 40.1497 24.6699C40.1497 23.2559 39.9973 22.0762 39.6926 21.1309C39.3958 20.1777 38.9504 19.3418 38.3567 18.623C37.1067 17.1074 35.2551 16.3496 32.802 16.3496C31.5833 16.3496 30.6575 16.4199 30.0247 16.5605C29.3918 16.7012 29.052 16.791 29.0051 16.8301C28.9583 16.8613 28.9153 16.8848 28.8762 16.9004C28.8372 16.9082 28.802 16.9434 28.7708 17.0059C28.7395 17.0605 28.7161 17.0996 28.7004 17.123C28.6848 17.1465 28.6653 17.2051 28.6418 17.2988C28.6184 17.3926 28.6028 17.459 28.595 17.498Z" fill="#6B6B6B"/>
</svg>
