<svg width="12" height="13" viewBox="0 0 12 13" fill="none" xmlns="http://www.w3.org/2000/svg">
<path d="M6.21484 0.890625C6.21484 0.614483 5.99099 0.390625 5.71484 0.390625C5.4387 0.390625 5.21484 0.614483 5.21484 0.890625L6.21484 0.890625ZM5.36129 11.2266C5.55655 11.4219 5.87314 11.4219 6.0684 11.2266L9.25038 8.04462C9.44564 7.84936 9.44564 7.53277 9.25038 7.33751C9.05512 7.14225 8.73853 7.14225 8.54327 7.33751L5.71484 10.1659L2.88642 7.33751C2.69115 7.14225 2.37457 7.14225 2.17931 7.33751C1.98405 7.53278 1.98405 7.84936 2.17931 8.04462L5.36129 11.2266ZM5.21484 0.890625L5.21484 10.873L6.21484 10.873L6.21484 0.890625L5.21484 0.890625Z" fill="#6B6B6B"/>
<path d="M10.9023 11.8047H0.52832" stroke="#6B6B6B" stroke-linecap="round"/>
</svg>
