<svg width="34" height="34" viewBox="0 0 34 34" fill="none" xmlns="http://www.w3.org/2000/svg">
<path d="M6.45373 27.601C5.1268 26.274 6.00661 23.4904 5.32873 21.8606C4.65084 20.2308 2.05469 18.8029 2.05469 17C2.05469 15.1971 4.622 13.8269 5.32873 12.1394C6.03546 10.4519 5.1268 7.72596 6.45373 6.39904C7.78065 5.07212 10.5643 5.95192 12.1941 5.27404C13.8239 4.59615 15.2518 2 17.0547 2C18.8576 2 20.2278 4.56731 21.9153 5.27404C23.6028 5.98077 26.3287 5.07212 27.6556 6.39904C28.9826 7.72596 28.1028 10.5096 28.7806 12.1394C29.4585 13.7692 32.0547 15.1971 32.0547 17C32.0547 18.8029 29.4874 20.1731 28.7806 21.8606C28.0739 23.5481 28.9826 26.274 27.6556 27.601C26.3287 28.9279 23.5451 28.0481 21.9153 28.726C20.2855 29.4038 18.8576 32 17.0547 32C15.2518 32 13.8816 29.4327 12.1941 28.726C10.5066 28.0192 7.78065 28.9279 6.45373 27.601Z" stroke="#BEBFE4" stroke-width="3" stroke-linecap="round" stroke-linejoin="round"/>
<path d="M11.3129 16.4836L11.3138 16.4845C11.8616 17.0498 12.5792 17.3256 13.4416 17.3256C14.3665 17.3256 15.13 17.0317 15.705 16.4277C16.2796 15.8241 16.5548 15.0181 16.5548 14.0389C16.5548 13.0915 16.3062 12.3206 15.7768 11.7615C15.2514 11.201 14.5272 10.9336 13.6387 10.9336C12.7083 10.9336 11.9396 11.2304 11.3596 11.8394L11.3596 11.8394L11.3587 11.8403C10.7845 12.4493 10.5098 13.2629 10.5098 14.2519C10.5098 15.1637 10.7698 15.9171 11.3129 16.4836L11.3129 16.4836ZM21.9094 11.4778L22.1611 11.0913H21.6999H19.7595H19.6239L19.5499 11.2051L12.1987 22.516L11.9476 22.9022H12.4083H14.3329H14.4684L14.5423 22.7886L21.9094 11.4778ZM18.3565 22.2179L18.3574 22.2188C18.9052 22.7841 19.6228 23.0599 20.4852 23.0599C21.4109 23.0599 22.1747 22.7628 22.7494 22.1532C23.3232 21.5447 23.5984 20.7367 23.5984 19.7574C23.5984 18.8106 23.3528 18.0418 22.8279 17.4874C22.302 16.932 21.5751 16.6679 20.6824 16.6679C19.7519 16.6679 18.9833 16.9647 18.4032 17.5737L18.4024 17.5746C17.8282 18.1836 17.5534 18.9972 17.5534 19.9862C17.5534 20.898 17.8134 21.6514 18.3565 22.2179ZM12.6898 14.173C12.6898 13.6617 12.7831 13.3233 12.9307 13.1181C13.0673 12.9281 13.2726 12.8218 13.5914 12.8218C13.8775 12.8218 14.0607 12.9199 14.1845 13.0986C14.3198 13.294 14.4062 13.6183 14.4062 14.1099C14.4062 14.6137 14.3154 14.9468 14.1724 15.1483C14.0405 15.3341 13.8432 15.4374 13.5362 15.4374C13.2351 15.4374 13.0436 15.3379 12.9164 15.1622C12.7784 14.9716 12.6898 14.6551 12.6898 14.173ZM19.7177 19.9073C19.7177 19.3958 19.8104 19.057 19.9571 18.8517C20.0926 18.6619 20.2959 18.5561 20.6114 18.5561C20.8561 18.5561 21.0456 18.651 21.1997 18.8578C21.3555 19.0669 21.4499 19.3851 21.4499 19.8442C21.4499 20.348 21.3591 20.6811 21.216 20.8826C21.0842 21.0684 20.8869 21.1717 20.5799 21.1717C20.2721 21.1717 20.0765 21.0711 19.9472 20.8951C19.8074 20.7048 19.7177 20.3889 19.7177 19.9073Z" fill="#BEBFE4" stroke="#BEBFE4" stroke-width="0.5"/>
</svg>
