<svg width="33" height="34" viewBox="0 0 33 34" fill="none" xmlns="http://www.w3.org/2000/svg">
<path d="M16.5 31.5078C24.7843 31.5078 31.5 24.7921 31.5 16.5078C31.5 8.22354 24.7843 1.50781 16.5 1.50781C8.21573 1.50781 1.5 8.22354 1.5 16.5078C1.5 24.7921 8.21573 31.5078 16.5 31.5078Z" stroke="#BEBFE4" stroke-width="3" stroke-linecap="round" stroke-linejoin="round"/>
<path d="M16.5 26.5078C17.5355 26.5078 18.375 25.6683 18.375 24.6328C18.375 23.5973 17.5355 22.7578 16.5 22.7578C15.4645 22.7578 14.625 23.5973 14.625 24.6328C14.625 25.6683 15.4645 26.5078 16.5 26.5078Z" fill="#BEBFE4"/>
<path d="M16.5 19.0078V17.7578C17.3653 17.7578 18.2112 17.5012 18.9306 17.0205C19.6501 16.5398 20.2108 15.8565 20.542 15.0571C20.8731 14.2576 20.9597 13.378 20.7909 12.5293C20.6221 11.6806 20.2054 10.9011 19.5936 10.2892C18.9817 9.67737 18.2022 9.26069 17.3535 9.09188C16.5049 8.92307 15.6252 9.00971 14.8258 9.34084C14.0263 9.67197 13.3431 10.2327 12.8623 10.9522C12.3816 11.6717 12.125 12.5175 12.125 13.3828" stroke="#BEBFE4" stroke-width="3" stroke-linecap="round" stroke-linejoin="round"/>
</svg>
