<svg width="44" height="44" viewBox="0 0 44 44" fill="none" xmlns="http://www.w3.org/2000/svg">
<g clip-path="url(#clip0_639_2512)">
<path d="M0.977295 2.76413C1.0289 2.63847 1.085 2.51394 1.131 2.38603C1.51134 1.31457 2.48184 0.60886 3.61725 0.581933C3.74291 0.578567 3.86857 0.580811 3.99535 0.580811C16.3211 0.580811 28.648 0.580811 40.9738 0.580811C42.9058 0.580811 43.9773 1.65789 43.9773 3.59999C43.9773 5.23692 43.9807 6.87385 43.9773 8.51078C43.9728 10.1859 42.8295 11.3291 41.1533 11.3302C28.7019 11.3325 16.2493 11.3314 3.79789 11.3302C2.42686 11.3302 1.44739 10.5942 1.06256 9.2939C1.039 9.21537 1.00759 9.1402 0.980661 9.0639C0.980661 6.96473 0.980661 4.86443 0.980661 2.76525L0.977295 2.76413ZM22.5199 2.36472C16.3492 2.36472 10.1784 2.36472 4.00769 2.36472C3.05067 2.36472 2.76345 2.65643 2.76232 3.62355C2.76232 5.20438 2.7612 6.78634 2.76232 8.36717C2.76232 9.21873 3.08208 9.5441 3.92018 9.5441C16.2897 9.5441 28.6593 9.5441 41.0288 9.5441C41.8691 9.5441 42.1889 9.21873 42.19 8.36941C42.1923 6.80204 42.19 5.23467 42.19 3.66731C42.19 2.64072 41.9174 2.3636 40.9043 2.3636C34.775 2.3636 28.6469 2.3636 22.5177 2.3636L22.5199 2.36472Z" fill="white"/>
<path d="M0.977295 17.1255C1.0031 17.0784 1.03788 17.0335 1.05247 16.9819C1.4373 15.658 2.3831 14.9265 3.76311 14.9231C6.68804 14.9153 9.61297 14.9209 12.5379 14.9209C14.3016 14.9209 16.0642 14.9164 17.8279 14.922C19.5692 14.9276 20.6855 16.0428 20.69 17.7886C20.6956 20.0561 20.6968 22.3224 20.69 24.5899C20.6844 26.3244 19.549 27.4542 17.8189 27.4542C13.2144 27.4565 8.60995 27.4542 4.00545 27.4542C2.3674 27.4542 1.55061 26.8618 1.02778 25.2956C1.01544 25.2574 0.994124 25.2227 0.977295 25.1868C0.977295 22.4997 0.977295 19.8115 0.977295 17.1244L0.977295 17.1255ZM10.8348 16.7059C8.51234 16.7059 6.19101 16.7059 3.86857 16.7059C3.10003 16.7059 2.76457 17.0346 2.76345 17.7998C2.75896 20.0516 2.76008 22.3045 2.76345 24.5562C2.76457 25.3248 3.10003 25.6681 3.85847 25.6681C8.50224 25.6714 13.1471 25.6714 17.7909 25.6681C18.5673 25.6681 18.8837 25.3461 18.8848 24.5663C18.8882 22.3146 18.8882 20.0617 18.8848 17.8099C18.8848 17.0055 18.5751 16.7059 17.7595 16.7048C15.4516 16.7048 13.1426 16.7048 10.8348 16.7048V16.7059Z" fill="white"/>
<path d="M0.977295 33.2499C1.039 33.0816 1.09734 32.9133 1.16242 32.7473C1.57754 31.6893 2.53793 31.0509 3.76086 31.0486C6.72619 31.0419 9.69039 31.0464 12.6557 31.0464C14.3757 31.0464 16.0956 31.043 17.8167 31.0475C19.5793 31.0531 20.6878 32.1672 20.6923 33.9399C20.6968 36.0514 20.6934 38.1629 20.6934 40.2756C20.6934 42.2121 20.2278 42.8976 18.4472 43.582H3.24476C2.84647 43.3991 2.42013 43.26 2.05437 43.0244C1.44291 42.6283 1.16803 41.9888 0.977295 41.3111C0.977295 38.6241 0.977295 35.937 0.977295 33.2499ZM10.8438 32.8303C8.5359 32.8303 6.22692 32.8303 3.91906 32.8303C3.09218 32.8303 2.76457 33.1467 2.76345 33.959C2.76008 36.1973 2.76008 38.4356 2.76345 40.6739C2.76457 41.4626 3.09891 41.7947 3.89213 41.7947C8.52243 41.7969 13.1527 41.7969 17.783 41.7947C18.5628 41.7947 18.8837 41.4749 18.8848 40.7008C18.8882 38.449 18.8882 36.1962 18.8848 33.9444C18.8848 33.1332 18.5796 32.8314 17.7673 32.8314C15.4595 32.8303 13.1505 32.8314 10.8426 32.8314L10.8438 32.8303Z" fill="white"/>
<path d="M24.912 43.5802C24.59 43.3929 24.3129 43.173 24.2736 42.7623C24.231 42.3214 24.5485 41.8906 24.9883 41.8177C25.1386 41.793 25.2946 41.7963 25.4483 41.7963C31.2241 41.7963 36.9988 41.7963 42.7746 41.7963C42.8722 41.7963 42.971 41.7941 43.0686 41.7997C43.5286 41.8233 43.8573 42.0813 43.9549 42.492C44.0447 42.8712 43.8629 43.2538 43.4859 43.4793C43.4265 43.5152 43.3659 43.5466 43.3053 43.5814H24.912V43.5802Z" fill="white"/>
<path d="M34.1143 14.9207C36.9685 14.9207 39.8228 14.9207 42.6782 14.9207C42.8319 14.9207 42.9867 14.9162 43.1393 14.9286C43.6094 14.9667 43.9516 15.3179 43.9718 15.77C43.992 16.2323 43.6487 16.6328 43.1752 16.6956C43.0922 16.7069 43.008 16.7035 42.9239 16.7035C37.0605 16.7035 31.1983 16.7035 25.335 16.7035C24.7796 16.7035 24.4475 16.4937 24.3174 16.0741C24.1513 15.5389 24.4913 15.0015 25.0478 14.9353C25.2138 14.9151 25.3832 14.9207 25.5504 14.9207C28.4047 14.9207 31.2589 14.9207 34.1143 14.9207Z" fill="white"/>
<path d="M34.1512 22.0803C31.1982 22.0803 28.2464 22.0825 25.2934 22.0792C24.6315 22.0792 24.2017 21.6461 24.278 21.0795C24.3353 20.652 24.6516 20.3469 25.0881 20.3065C25.2272 20.2941 25.3675 20.2964 25.5077 20.2964C31.2442 20.2964 36.9819 20.2964 42.7185 20.2964C42.8587 20.2964 42.999 20.293 43.1381 20.3042C43.6082 20.3435 43.9515 20.6924 43.9717 21.1457C43.993 21.6079 43.6497 22.0118 43.1751 22.0713C43.0371 22.0881 42.8957 22.0803 42.7555 22.0803C39.8867 22.0803 37.0189 22.0803 34.1501 22.0803H34.1512Z" fill="white"/>
<path d="M34.1131 25.6707C36.9673 25.6707 39.8216 25.6707 42.677 25.6707C42.8307 25.6707 42.9855 25.6662 43.1381 25.6786C43.6082 25.7167 43.9515 26.0668 43.9728 26.5189C43.9941 26.9812 43.6508 27.3828 43.1785 27.4468C43.11 27.4557 43.0394 27.4546 42.9687 27.4546C37.0773 27.4546 31.187 27.4546 25.2957 27.4546C24.7582 27.4546 24.425 27.2213 24.3083 26.7871C24.1681 26.2642 24.5069 25.7526 25.0466 25.6864C25.2126 25.6662 25.382 25.6718 25.5492 25.6718C28.4035 25.6718 31.2577 25.6718 34.1131 25.6718V25.6707Z" fill="white"/>
<path d="M34.1513 31.0458C37.0202 31.0458 39.8879 31.0458 42.7567 31.0458C42.9385 31.0458 43.1236 31.0402 43.2997 31.075C43.7003 31.1557 43.992 31.5596 43.9729 31.9725C43.9527 32.3876 43.6419 32.7422 43.2234 32.8129C43.1 32.8342 42.9721 32.8274 42.8465 32.8274C37.0258 32.8274 31.2051 32.8274 25.3833 32.8274C24.7695 32.8274 24.433 32.6154 24.3095 32.1621C24.1671 31.6393 24.5048 31.1254 25.0433 31.0592C25.2093 31.0391 25.3788 31.0447 25.5459 31.0447C28.4148 31.0447 31.2825 31.0447 34.1513 31.0447V31.0458Z" fill="white"/>
<path d="M34.1131 36.4197C36.9674 36.4197 39.8216 36.4197 42.677 36.4197C42.8307 36.4197 42.9855 36.4153 43.1381 36.4276C43.6082 36.4657 43.9515 36.8158 43.9717 37.2679C43.993 37.7302 43.6497 38.1318 43.1763 38.1947C43.0932 38.2059 43.0091 38.2025 42.9249 38.2025C37.0616 38.2025 31.1994 38.2025 25.3361 38.2025C24.7796 38.2025 24.4486 37.9927 24.3185 37.5742C24.1524 37.0391 24.4912 36.5016 25.0466 36.4343C25.2127 36.4141 25.3821 36.4197 25.5492 36.4197C28.4035 36.4197 31.2577 36.4197 34.1131 36.4197Z" fill="white"/>
</g>
<defs>
<clipPath id="clip0_639_2512">
<rect width="43" height="43" fill="white" transform="translate(0.977295 0.580078)"/>
</clipPath>
</defs>
</svg>
