<svg width="17" height="17" viewBox="0 0 17 17" fill="none" xmlns="http://www.w3.org/2000/svg">
<path d="M9.91149 0.347656C10.0162 0.375782 10.1218 0.40047 10.2252 0.43297C10.9846 0.670788 11.5018 1.35049 11.5096 2.15019C11.519 3.1499 11.5137 4.14992 11.5118 5.14963C11.5112 5.45869 11.3012 5.68026 11.0187 5.68276C10.7356 5.68526 10.5149 5.45432 10.514 5.14025C10.5112 4.16648 10.5146 3.19271 10.5121 2.21863C10.5109 1.768 10.2452 1.4408 9.8243 1.36111C9.76836 1.35049 9.71054 1.34799 9.65335 1.34799C8.28895 1.34736 6.92455 1.34736 5.56015 1.34768C5.53953 1.34768 5.5189 1.34955 5.45796 1.35268C5.53078 1.38174 5.5689 1.39924 5.60859 1.41268C5.94328 1.52549 6.27985 1.63424 6.6133 1.75112C7.14831 1.93862 7.50019 2.41645 7.50988 2.9824C7.51894 3.51866 7.513 4.05523 7.513 4.59149C7.513 7.43498 7.513 10.2782 7.513 13.1217V13.3385C7.57175 13.342 7.62113 13.3473 7.67082 13.3476C8.32177 13.3482 8.97272 13.3488 9.62367 13.3476C10.1665 13.3467 10.5112 13.0042 10.5124 12.4598C10.5146 11.4963 10.5115 10.5329 10.514 9.5694C10.5149 9.18814 10.8031 8.94564 11.1428 9.03314C11.3446 9.08501 11.4928 9.26064 11.5096 9.46908C11.5131 9.51065 11.5128 9.55221 11.5128 9.59409C11.5128 10.5522 11.5153 11.5104 11.5121 12.4688C11.5087 13.5564 10.7128 14.3467 9.62429 14.3479C8.98365 14.3486 8.34333 14.3479 7.70269 14.3479H7.513C7.513 14.5351 7.513 14.7104 7.513 14.8858C7.51238 15.6736 7.16612 16.1242 6.40454 16.3292C6.39548 16.3317 6.3886 16.3414 6.38048 16.3477H5.97422C5.88109 16.3183 5.78766 16.2905 5.69515 16.2595C4.40013 15.8292 3.10448 15.4011 1.8107 14.9667C1.30944 14.7986 0.988811 14.4579 0.875059 13.9339C0.870997 13.9145 0.857871 13.897 0.849121 13.8789C0.849121 9.74346 0.849121 5.60776 0.849121 1.47237C0.953186 1.25705 1.03256 1.02454 1.16725 0.830478C1.36382 0.546723 1.67601 0.423283 2.00508 0.347656C4.64045 0.347656 7.27612 0.347656 9.91149 0.347656ZM6.51267 9.01095C6.51267 7.04279 6.51267 5.07494 6.51267 3.10677C6.51267 2.83958 6.44892 2.74708 6.20704 2.66645C4.92545 2.23894 3.64355 1.81175 2.36134 1.3858C2.04758 1.28174 1.84914 1.42643 1.84914 1.75706C1.84883 5.7087 1.84883 9.66065 1.84914 13.6123C1.84914 13.8495 1.92164 13.9495 2.14915 14.0257C2.51853 14.1498 2.88916 14.2717 3.25886 14.3948C4.16606 14.6973 5.07327 15.0001 5.98078 15.3023C6.32548 15.417 6.51142 15.2814 6.51298 14.9148C6.51298 14.8733 6.51298 14.8314 6.51298 14.7898C6.51298 12.8635 6.51298 10.9372 6.51298 9.01064L6.51267 9.01095Z" fill="#6B6B6B"/>
<path d="M16.8489 7.50254C16.7458 7.62254 16.6495 7.74973 16.538 7.86161C15.7704 8.63318 15.0014 9.40257 14.2298 10.1701C13.9276 10.471 13.4667 10.3623 13.3657 9.96884C13.3141 9.76852 13.3826 9.60352 13.527 9.46039C14.022 8.96882 14.5142 8.47443 15.0073 7.98098C15.0426 7.94567 15.0754 7.90786 15.1323 7.84629C15.0473 7.84629 14.9926 7.84629 14.9379 7.84629C13.3135 7.84629 11.6891 7.84692 10.0647 7.84598C9.68752 7.84598 9.44345 7.55285 9.53407 7.21441C9.58783 7.01315 9.76189 6.8669 9.97283 6.84877C10.0297 6.84377 10.0872 6.84627 10.1447 6.84627C11.7379 6.84627 13.331 6.84627 14.9242 6.84627H15.1332C15.0782 6.78721 15.0439 6.74784 15.0067 6.71065C14.5064 6.2097 14.0045 5.71032 13.5057 5.20781C13.341 5.04218 13.3051 4.82967 13.396 4.63404C13.4838 4.44529 13.6835 4.31779 13.8904 4.35373C14.0017 4.3731 14.126 4.42529 14.2048 4.50279C15.0432 5.32812 15.8745 6.16095 16.7055 6.99409C16.762 7.05065 16.8011 7.12441 16.8483 7.19003V7.50254H16.8489Z" fill="#6B6B6B"/>
</svg>
