<svg width="16" height="17" viewBox="0 0 16 17" fill="none" xmlns="http://www.w3.org/2000/svg">
<path d="M6.94066 15.1031C6.55301 14.9064 6.26626 14.6247 6.06903 14.2617H9.92348C9.9028 14.2971 9.88091 14.3318 9.85784 14.3658L9.85782 14.3658L9.85572 14.3689C9.48142 14.93 8.97531 15.2579 8.30169 15.3602L8.28238 15.3632L8.26797 15.3649C8.24487 15.3674 8.21418 15.3705 8.18196 15.3735C8.14996 15.3765 8.11847 15.3792 8.09421 15.3812L8.06897 15.3831H7.89361C7.53155 15.3578 7.20033 15.237 6.94357 15.1046L6.94357 15.1046L6.94066 15.1031Z" stroke="#6B6B6B"/>
<path d="M1.31879 13.4869L1.3193 13.4893C1.39263 13.8339 1.66648 14.0734 2.13857 14.0734H2.15001H2.16146H2.1729H2.18434H2.19579H2.20723H2.21867H2.23011H2.24156H2.253H2.26444H2.27588H2.28733H2.29877H2.31021H2.32165H2.3331H2.34454H2.35598H2.36742H2.37887H2.39031H2.40175H2.41319H2.42464H2.43608H2.44752H2.45896H2.47041H2.48185H2.49329H2.50473H2.51618H2.52762H2.53906H2.5505H2.56195H2.57339H2.58483H2.59627H2.60772H2.61916H2.6306H2.64205H2.65349H2.66493H2.67637H2.68782H2.69926H2.7107H2.72214H2.73359H2.74503H2.75647H2.76791H2.77936H2.7908H2.80224H2.81368H2.82513H2.83657H2.84801H2.85945H2.8709H2.88234H2.89378H2.90522H2.91667H2.92811H2.93955H2.95099H2.96244H2.97388H2.98532H2.99676H3.00821H3.01965H3.03109H3.04253H3.05398H3.06542H3.07686H3.0883H3.09975H3.11119H3.12263H3.13408H3.14552H3.15696H3.1684H3.17985H3.19129H3.20273H3.21417H3.22562H3.23706H3.2485H3.25994H3.27139H3.28283H3.29427H3.30571H3.31716H3.3286H3.34004H3.35148H3.36293H3.37437H3.38581H3.39725H3.4087H3.42014H3.43158H3.44302H3.45447H3.46591H3.47735H3.48879H3.50024H3.51168H3.52312H3.53456H3.54601H3.55745H3.56889H3.58034H3.59178H3.60322H3.61466H3.62611H3.63755H3.64899H3.66043H3.67188H3.68332H3.69476H3.7062H3.71765H3.72909H3.74053H3.75197H3.76342H3.77486H3.7863H3.79774H3.80919H3.82063H3.83207H3.84351H3.85496H3.8664H3.87784H3.88928H3.90073H3.91217H3.92361H3.93505H3.9465H3.95794H3.96938H3.98082H3.99227H4.00371H4.01515H4.0266H4.03804H4.04948H4.06092H4.07237H4.08381H4.09525H4.10669H4.11814H4.12958H4.14102H4.15246H4.16391H4.17535H4.18679H4.19823H4.20968H4.22112H4.23256H4.244H4.25545H4.26689H4.27833H4.28977H4.30122H4.31266H4.3241H4.33554H4.34699H4.35843H4.36987H4.38131H4.39276H4.4042H4.41564H4.42708H4.43853H4.44997H4.46141H4.47286H4.4843H4.49574H4.50718H4.51863H4.53007H4.54151H4.55295H4.5644H4.57584H4.58728H4.59872H4.61017H4.62161H4.63305H4.64449H4.65594H4.66738H4.67882H4.69026H4.70171H4.71315H4.72459H4.73603H4.74748H4.75892H4.77036H4.7818H4.79325H4.80469H4.81613H4.82757H4.83902H4.85046H4.8619H4.87334H4.88479H4.89623H4.90767H4.91912H4.93056H4.942H4.95344H4.96489H4.97633H4.98777H4.99921H5.01066H5.0221H5.03354H5.04498H5.05643H5.06787H5.07931H5.09075H5.1022H5.11364H5.12508H5.13652H5.14797H5.15941H5.17085H5.18229H5.19374H5.20518H5.21662H5.22806H5.23951H5.25095H5.26239H5.27383H5.28528H5.29672H5.30816H5.3196H5.33105H5.34249H5.35393H5.36538H5.37682H5.38826H5.3997H5.41115H5.42259H5.43403H5.44547H5.45692H5.46836H5.4798H5.49124H5.50269H5.51413H5.52557H5.53701H5.54846H5.5599H5.57134H5.58278H5.59423H5.60567H5.61711H5.62855H5.64H5.65144H5.66288H5.67432H5.68577H5.69721H5.70865H5.72009H5.73154H5.74298H5.75442H5.76586H5.77731H5.78875H5.80019H5.81164H5.82308H5.83452H5.84596H5.85741H5.86885H5.88029H5.89173H5.90318H5.91462H5.92606H5.9375H5.94895H5.96039H5.97183H5.98327H5.99472H6.00616H6.0176H6.02904H6.04049H6.05193H6.06337H6.07481H6.08626H6.0977H6.10914H6.12058H6.13203H6.14347H6.15491H6.16635H6.1778H6.18924H6.20068H6.21212H6.22357H6.23501H6.24645H6.25789H6.26934H6.28078H6.29222H6.30367H6.31511H6.32655H6.33799H6.34944H6.36088H6.37232H6.38376H6.39521H6.40665H6.41809H6.42953H6.44098H6.45242H6.46386H6.4753H6.48675H6.49819H6.50963H6.52107H6.53252H6.54396H6.5554H6.56684H6.57829H6.58973H6.60117H6.61261H6.62406H6.6355H6.64694H6.65838H6.66983H6.68127H6.69271H6.70415H6.7156H6.72704H6.73848H6.74993H6.76137H6.77281H6.78425H6.7957H6.80714H6.81858H6.83002H6.84147H6.85291H6.86435H6.87579H6.88724H6.89868H6.91012H6.92156H6.93301H6.94445H6.95589H6.96733H6.97878H6.99022H7.00166H7.0131H7.02455H7.03599H7.04743H7.05887H7.07032H7.08176H7.0932H7.10464H7.11609H7.12753H7.13897H7.15041H7.16186H7.1733H7.18474H7.19619H7.20763H7.21907H7.23051H7.24196H7.2534H7.26484H7.27628H7.28773H7.29917H7.31061H7.32205H7.3335H7.34494H7.35638H7.36782H7.37927H7.39071H7.40215H7.41359H7.42504H7.43648H7.44792H7.45936H7.47081H7.48225H7.49369H7.50513H7.51658H7.52802H7.53946H7.5509H7.56235H7.57379H7.58523H7.59667H7.60812H7.61956H7.631H7.64245H7.65389H7.66533H7.67677H7.68822H7.69966H7.7111H7.72254H7.73399H7.74543H7.75687H7.76831H7.77976H7.7912H7.80264H7.81408H7.82553H7.83697H7.84841H7.85985H7.8713H7.88274H7.89418H7.90562H7.91707H7.92851H7.93995H7.95139H7.96284H7.97428H7.98572H7.99698H7.99716L11.6111 14.0721H11.6113C11.8669 14.0721 12.1213 14.0726 12.3751 14.0731C12.8802 14.0742 13.3828 14.0753 13.8873 14.0721M1.31879 13.4869L13.8905 14.5721M1.31879 13.4869C1.25326 13.1861 1.33533 12.95 1.60246 12.723L1.60259 12.7229M1.31879 13.4869L1.60259 12.7229M13.8873 14.0721L13.8905 14.5721M13.8873 14.0721C13.8872 14.0721 13.8872 14.0721 13.8872 14.0721L13.8905 14.5721M13.8873 14.0721C14.4183 14.0685 14.7324 13.7091 14.6942 13.2385M13.8905 14.5721C14.6962 14.5667 15.2557 13.9742 15.1925 13.1978M14.6942 13.2385C14.6942 13.2385 14.6942 13.2386 14.6942 13.2386L15.1925 13.1978M14.6942 13.2385C14.6782 13.0447 14.574 12.878 14.3274 12.6586M14.6942 13.2385C14.6942 13.2384 14.6942 13.2384 14.6942 13.2383L15.1925 13.1978M15.1925 13.1978L14.3274 12.6586M14.3274 12.6586L14.6597 12.285L14.3274 12.6586C14.3274 12.6586 14.3274 12.6586 14.3274 12.6586ZM14.3274 12.6586C13.2789 11.7261 12.6584 10.5435 12.5686 9.1304L14.3274 12.6586ZM1.60259 12.7229C2.05064 12.3419 2.43136 11.8894 2.72885 11.384C3.22877 10.5397 3.45719 9.62607 3.45966 8.66587V8.66458M1.60259 12.7229L3.45966 8.66458M3.45966 8.66458C3.45966 8.47305 3.45905 8.28295 3.45844 8.0938C3.45684 7.5946 3.45525 7.102 3.46498 6.60694L3.46498 6.60682M3.45966 8.66458L3.46498 6.60682M3.46498 6.60682C3.50532 4.5269 5.10696 2.69026 7.2019 2.34354C7.28401 2.33018 7.47935 2.29367 7.62719 2.12743C7.78619 1.94865 7.78904 1.73863 7.78479 1.64016L7.78475 1.63922M3.46498 6.60682L7.78475 1.63922M8.71449 1.69688C8.72126 1.47414 8.72261 1.2514 8.71449 1.02866C8.70791 0.845855 8.62974 0.672702 8.49644 0.545674C8.36314 0.418646 8.18512 0.347656 7.99987 0.347656C7.81462 0.347656 7.6366 0.418646 7.5033 0.545674C7.37001 0.672702 7.29184 0.845855 7.28526 1.02866L8.71449 1.69688ZM8.71449 1.69688C8.71449 1.79444 8.74742 1.83052 8.84532 1.84566M8.71449 1.69688L8.84532 1.84566M7.78475 1.63922C7.77606 1.44599 7.77758 1.24863 7.78493 1.04685L7.78493 1.04665M7.78475 1.63922L7.78493 1.04665M7.78493 1.04665C7.78678 0.995263 7.80875 0.945268 7.84824 0.907637C7.88793 0.869817 7.94219 0.847656 7.99987 0.847656C8.05755 0.847656 8.11181 0.869817 8.1515 0.907637C8.19099 0.945271 8.21296 0.995268 8.21481 1.04665L8.21482 1.04688M7.78493 1.04665L8.21482 1.04688M8.21482 1.04688C8.22243 1.25566 8.22125 1.46684 8.21472 1.68169L8.21449 1.68928M8.21482 1.04688L8.21449 1.68928M8.21449 1.68928V1.69688M8.21449 1.68928V1.69688M8.21449 1.69688C8.21449 1.78526 8.22572 1.97206 8.36893 2.13372C8.50517 2.28752 8.67956 2.3255 8.76294 2.33885C10.7251 2.68586 12.1862 4.1609 12.4905 6.08944C12.5229 6.34042 12.5385 6.59325 12.5369 6.84627L12.5368 6.84627M8.21449 1.69688L12.5368 6.84627M12.5368 6.84627L12.537 6.85769M12.5368 6.84627L12.537 6.85769M12.537 6.85769C12.5411 7.10123 12.5404 7.35626 12.5396 7.61696M12.537 6.85769L12.5396 7.61696M12.5396 7.61696C12.5382 8.11421 12.5368 8.63208 12.5686 9.13016L12.5396 7.61696ZM8.84532 1.84566C11.0176 2.22788 12.6494 3.86947 12.9855 6.01845L8.84532 1.84566Z" stroke="#6B6B6B"/>
</svg>
