<svg width="19" height="19" viewBox="0 0 19 19" fill="none" xmlns="http://www.w3.org/2000/svg">
<path d="M18.6271 17.3684L13.9798 12.7953C15.1967 11.4731 15.9445 9.72448 15.9445 7.80028C15.9439 3.68405 12.5535 0.347656 8.37088 0.347656C4.18827 0.347656 0.797852 3.68405 0.797852 7.80028C0.797852 11.9165 4.18827 15.2529 8.37088 15.2529C10.1781 15.2529 11.8356 14.6278 13.1375 13.5886L17.8029 18.1797C18.0302 18.4036 18.3992 18.4036 18.6265 18.1797C18.8544 17.9558 18.8544 17.5923 18.6271 17.3684ZM8.37088 14.1063C4.83194 14.1063 1.96307 11.283 1.96307 7.80028C1.96307 4.31757 4.83194 1.49429 8.37088 1.49429C11.9099 1.49429 14.7787 4.31757 14.7787 7.80028C14.7787 11.283 11.9099 14.1063 8.37088 14.1063Z" fill="#6B6B6B"/>
</svg>
