<svg width="23" height="28" viewBox="0 0 23 28" fill="none" xmlns="http://www.w3.org/2000/svg">
<path d="M15.2947 0.803635C15.1702 0.672483 14.9994 0.59375 14.8225 0.59375H4.22861C2.27376 0.59375 0.660156 2.20093 0.660156 4.15557V24.1887C0.660156 26.1435 2.27376 27.7507 4.22861 27.7507H18.6073C20.5621 27.7507 22.1757 26.1435 22.1757 24.1887V8.28158C22.1757 8.11106 22.097 7.94717 21.9855 7.82244L15.2947 0.803635ZM15.4849 2.90932L19.9652 7.61256H17.0527C16.1869 7.61256 15.4849 6.91722 15.4849 6.05137V2.90932ZM18.6073 26.4388H4.22861C3.00204 26.4388 1.97209 25.4221 1.97209 24.1887V4.15557C1.97209 2.929 2.99541 1.90568 4.22861 1.90568H14.173V6.05137C14.173 7.64529 15.4588 8.92449 17.0527 8.92449H20.8638V24.1887C20.8638 25.4221 19.8405 26.4388 18.6073 26.4388Z" fill="url(#paint0_linear_923_2208)"/>
<path d="M16.8164 21.9141H6.01925C5.65853 21.9141 5.36328 22.2091 5.36328 22.57C5.36328 22.9307 5.65853 23.226 6.01925 23.226H16.823C17.1837 23.226 17.479 22.9307 17.479 22.57C17.479 22.2091 17.1837 21.9141 16.8164 21.9141Z" fill="url(#paint1_linear_923_2208)"/>
<path d="M8.05974 14.8531L10.7623 11.947V19.1102C10.7623 19.4709 11.0576 19.7662 11.4183 19.7662C11.7792 19.7662 12.0743 19.4709 12.0743 19.1102V11.947L14.7769 14.8531C14.908 14.9906 15.0788 15.0629 15.2557 15.0629C15.4132 15.0629 15.5773 15.0039 15.7018 14.8858C15.9643 14.6365 15.984 14.2232 15.7347 13.9609L11.8907 9.83488C11.766 9.70373 11.5955 9.625 11.4119 9.625C11.2281 9.625 11.0576 9.70373 10.9331 9.83488L7.08905 13.9609C6.8398 14.2232 6.85949 14.643 7.12179 14.8858C7.39735 15.135 7.81049 15.1154 8.05974 14.8531Z" fill="url(#paint2_linear_923_2208)"/>
<defs>
<linearGradient id="paint0_linear_923_2208" x1="0.660156" y1="14.1722" x2="22.1757" y2="14.1722" gradientUnits="userSpaceOnUse">
<stop stop-color="#7764FB"/>
<stop offset="1" stop-color="#F364F3"/>
</linearGradient>
<linearGradient id="paint1_linear_923_2208" x1="5.36328" y1="22.57" x2="17.479" y2="22.57" gradientUnits="userSpaceOnUse">
<stop stop-color="#7764FB"/>
<stop offset="1" stop-color="#F364F3"/>
</linearGradient>
<linearGradient id="paint2_linear_923_2208" x1="6.91309" y1="14.6956" x2="15.9107" y2="14.6956" gradientUnits="userSpaceOnUse">
<stop stop-color="#7764FB"/>
<stop offset="1" stop-color="#F364F3"/>
</linearGradient>
</defs>
</svg>
