<svg width="20" height="18" viewBox="0 0 20 18" fill="none" xmlns="http://www.w3.org/2000/svg">
<path d="M1.87384 10.0516C1.09802 8.74449 0.826091 7.19913 1.10912 5.70573C1.39215 4.21233 2.21067 2.87364 3.41095 1.94107C4.61122 1.00851 6.11068 0.546233 7.6277 0.641068C9.14473 0.735903 10.5749 1.38132 11.6497 2.45612C12.7245 3.53091 13.3699 4.96112 13.4648 6.47814C13.5596 7.99516 13.0973 9.49462 12.1648 10.6949C11.2322 11.8952 9.89351 12.7137 8.40011 12.9967C6.90671 13.2798 5.36135 13.0078 4.05428 12.232L1.8998 12.8463C1.81103 12.8713 1.71722 12.8721 1.628 12.8488C1.53879 12.8255 1.4574 12.7789 1.39219 12.7136C1.32699 12.6484 1.28033 12.5671 1.25701 12.4778C1.23369 12.3886 1.23456 12.2948 1.25952 12.206L1.87384 10.0516Z" stroke="url(#paint0_linear_946_6083)" stroke-linecap="round" stroke-linejoin="round"/>
<path d="M6.89258 13.0938C7.19753 13.9632 7.6918 14.7541 8.33968 15.4092C8.98756 16.0643 9.77286 16.5674 10.6389 16.882C11.5049 17.1966 12.4299 17.3149 13.3472 17.2284C14.2646 17.1419 15.1512 16.8527 15.9431 16.3817V16.3817L18.0976 16.9961C18.1863 17.021 18.2802 17.0219 18.3694 16.9986C18.4586 16.9753 18.54 16.9286 18.6052 16.8634C18.6704 16.7982 18.717 16.7168 18.7404 16.6276C18.7637 16.5384 18.7628 16.4446 18.7379 16.3558L18.1235 14.2013C18.672 13.2807 18.9733 12.234 18.9984 11.1627C19.0234 10.0914 18.7713 9.03178 18.2665 8.08654C17.7617 7.14129 17.0212 6.34248 16.117 5.7675C15.2127 5.19252 14.1752 4.86087 13.1051 4.80469" stroke="url(#paint1_linear_946_6083)" stroke-linecap="round" stroke-linejoin="round"/>
<defs>
<linearGradient id="paint0_linear_946_6083" x1="1" y1="6.86737" x2="13.4769" y2="6.86737" gradientUnits="userSpaceOnUse">
<stop stop-color="#7764FB"/>
<stop offset="1" stop-color="#F364F3"/>
</linearGradient>
<linearGradient id="paint1_linear_946_6083" x1="6.89258" y1="11.0303" x2="19.0001" y2="11.0303" gradientUnits="userSpaceOnUse">
<stop stop-color="#7764FB"/>
<stop offset="1" stop-color="#F364F3"/>
</linearGradient>
</defs>
</svg>
