<svg width="18" height="17" viewBox="0 0 18 17" fill="none" xmlns="http://www.w3.org/2000/svg">
<path d="M16.6913 2.4898L15.1724 1.03981C14.4784 0.37734 13.3492 0.377371 12.6552 1.03981C12.0018 1.66359 2.02142 11.191 1.35444 11.8277C1.2834 11.8955 1.2358 11.9857 1.21884 12.0738L0.459386 15.9888C0.429955 16.1406 0.480633 16.2965 0.594987 16.4057C0.709472 16.5149 0.872835 16.5632 1.03165 16.5351L5.13271 15.8101C5.22748 15.7932 5.32066 15.7473 5.39052 15.6806L16.6913 4.89271C17.3869 4.22871 17.387 3.1539 16.6913 2.4898ZM1.55513 15.4891L2.01454 13.1208L4.03598 15.0505L1.55513 15.4891ZM5.0433 14.6862L2.39614 12.1592L12.0607 2.93321L14.7079 5.46024L5.0433 14.6862ZM15.9968 4.2298L15.4023 4.79733L12.7552 2.27031L13.3497 1.70277C13.6607 1.40584 14.1668 1.40581 14.4779 1.70277L15.9968 3.15277C16.3087 3.45043 16.3087 3.93211 15.9968 4.2298Z" fill="url(#paint0_linear_1009_363)"/>
<defs>
<linearGradient id="paint0_linear_1009_363" x1="0.451172" y1="8.54297" x2="17.213" y2="8.54297" gradientUnits="userSpaceOnUse">
<stop stop-color="#7764FB"/>
<stop offset="1" stop-color="#F364F3"/>
</linearGradient>
</defs>
</svg>
