<svg width="72" height="73" viewBox="0 0 72 73" fill="none" xmlns="http://www.w3.org/2000/svg">
<path d="M0 4.28656C0.0920236 4.02547 0.185925 3.76626 0.274193 3.50517C0.978455 1.44465 2.864 0.0809841 5.0951 0.0734708C9.38265 0.0584442 13.6702 0.0678358 17.9577 0.0678358C30.7716 0.0678358 43.5872 0.0734708 56.4029 0.0546875C57.2199 0.0546875 57.819 0.304505 58.3861 0.883029C60.4839 3.0262 62.6174 5.13556 64.7452 7.24868C64.9161 7.4196 65.1414 7.61119 65.363 7.64313C65.9828 7.73329 66.6645 7.61307 67.2242 7.8272C67.7575 8.03194 68.1669 8.55411 68.5031 8.83023C69.26 8.41887 69.9304 7.9831 70.661 7.70323C70.8826 7.61683 71.3314 7.89106 71.568 8.11458C72.2648 8.77012 72.092 9.29417 70.7098 10.9922C70.7248 11.0354 70.7248 11.0974 70.7549 11.1199C71.8667 11.9257 72.0131 13.0452 72.0019 14.3394C71.9493 20.3613 71.9699 26.3832 71.9906 32.4051C71.9925 33.1433 71.7596 33.6918 71.2394 34.2064C66.8373 38.5848 62.4521 42.982 58.0612 47.3697C57.881 47.55 57.6931 47.736 57.4772 47.8694C56.9194 48.2112 56.1832 48.0929 55.7438 47.6214C55.2987 47.1424 55.2423 46.4155 55.6329 45.8765C55.7832 45.6698 55.9729 45.4914 56.155 45.3092C60.3449 41.1149 64.5405 36.9281 68.7153 32.7188C68.9595 32.4727 69.1491 32.0445 69.151 31.7007C69.1773 25.8422 69.1754 19.9856 69.1567 14.1271C69.1567 13.7571 68.9576 13.3889 68.7923 12.816C67.6054 14.0144 66.5894 15.0118 65.6184 16.0524C65.4926 16.1876 65.5433 16.5577 65.6072 16.7925C66.0804 18.5468 65.6823 20.0683 64.3132 21.246C62.9441 22.4256 61.3516 22.6359 59.7271 21.832C58.1082 21.03 57.3119 19.6494 57.3758 17.8406C57.4715 15.1245 60.1928 13.2236 62.8145 14.052C63.3047 14.2079 63.5658 14.1121 63.8925 13.774C64.7827 12.848 65.7067 11.9558 66.7997 10.8682C66.2682 10.6992 65.9077 10.485 65.549 10.485C59.6914 10.4644 53.8357 10.4625 47.9781 10.4888C47.6307 10.4888 47.1968 10.6616 46.9527 10.9039C35.076 22.7524 23.2162 34.6178 11.3546 46.4813C10.0719 47.7642 10.0775 48.955 11.3677 50.2473C17.3962 56.2786 23.4266 62.3099 29.4588 68.3394C30.6777 69.5584 31.904 69.5621 33.1247 68.3431C37.5682 63.9065 42.0059 59.4624 46.4456 55.022C47.3734 54.0941 48.1396 53.9664 48.8082 54.6276C49.4636 55.2737 49.3378 56.1039 48.4476 56.9961C44.207 61.2374 39.9514 65.4655 35.7352 69.7312C34.676 70.8018 33.5661 71.7222 32.0618 72.0547H30.5161C29.348 71.7354 28.3245 71.2001 27.4512 70.3229C21.4246 64.2672 15.3755 58.2321 9.3357 52.1876C7.00694 49.8566 6.99943 46.8757 9.32067 44.5485C11.7659 42.0954 14.2186 39.6479 16.6675 37.1967C16.8384 37.0258 17.0037 36.8511 17.3173 36.5299C16.8553 36.5299 16.6074 36.5299 16.3577 36.5299C12.6598 36.5299 8.96009 36.5393 5.26225 36.5261C2.62361 36.5168 0.796286 35.0742 0.125828 32.5159C0.103292 32.4276 0.0488288 32.3469 0.0112682 32.2642C0 22.9402 0 13.6124 0 4.28656ZM61.1731 7.66003C59.5486 6.03716 58.0669 4.54201 56.5607 3.07504C56.4067 2.92665 56.0949 2.8872 55.8564 2.8872C38.9917 2.87969 22.127 2.87781 5.26037 2.88157C3.73916 2.88157 2.81329 3.81322 2.81329 5.33842C2.80954 13.9825 2.80954 22.6284 2.81329 31.2725C2.81329 32.8052 3.72038 33.7124 5.26225 33.7143C10.04 33.7218 14.8196 33.7237 19.5973 33.7011C19.9034 33.7011 20.2827 33.5396 20.5044 33.3236C22.1157 31.7552 23.697 30.1567 25.2839 28.5639C25.4041 28.4437 25.4999 28.2972 25.6333 28.13C22.7843 27.9197 21.1128 26.4001 21.0434 24.0184C20.9814 21.8376 22.5401 19.9988 24.6773 19.7208C25.7722 19.578 26.777 19.8128 27.6728 20.4496C28.9686 21.3718 29.4889 22.6904 29.5696 24.3039C29.8119 24.1348 29.9433 23.9094 30.1218 23.731C35.2187 18.6257 40.327 13.5298 45.4146 8.41324C45.9517 7.87416 46.517 7.62998 47.2795 7.645C49.2458 7.68257 51.2139 7.65815 53.1821 7.65815C55.7794 7.65815 58.3768 7.65815 61.1713 7.65815L61.1731 7.66003ZM62.9742 18.0303C62.9554 17.2977 62.3037 16.6628 61.5713 16.6647C60.7957 16.6666 60.1534 17.3278 60.174 18.1016C60.1947 18.8492 60.8276 19.4672 61.575 19.4672C62.3488 19.4672 62.9948 18.806 62.9761 18.0321L62.9742 18.0303ZM25.2201 25.275C25.9957 25.2862 26.6174 24.6983 26.6418 23.932C26.6662 23.1431 26.0258 22.4857 25.237 22.4913C24.4708 22.4951 23.8642 23.1074 23.8585 23.8813C23.8548 24.6608 24.4426 25.2656 25.2201 25.2769V25.275Z" fill="url(#paint0_linear_1025_2840)"/>
<defs>
<linearGradient id="paint0_linear_1025_2840" x1="0" y1="36.0547" x2="72.0025" y2="36.0547" gradientUnits="userSpaceOnUse">
<stop stop-color="#7764FB"/>
<stop offset="1" stop-color="#F364F3"/>
</linearGradient>
</defs>
</svg>
