<svg width="18" height="17" viewBox="0 0 18 17" fill="none" xmlns="http://www.w3.org/2000/svg">
<path d="M16.494 2.44684L14.9751 0.996839C14.2811 0.334371 13.152 0.334403 12.458 0.996839C11.8045 1.62062 1.82415 11.1481 1.15718 11.7848C1.08614 11.8526 1.03854 11.9427 1.02158 12.0308L0.262121 15.9458C0.232689 16.0976 0.283368 16.2535 0.397722 16.3627C0.512207 16.472 0.675569 16.5202 0.834382 16.4922L4.93544 15.7671C5.03022 15.7502 5.12339 15.7044 5.19325 15.6377L16.494 4.84974C17.1896 4.18574 17.1897 3.11093 16.494 2.44684ZM1.35786 15.4461L1.81728 13.0778L3.83872 15.0075L1.35786 15.4461ZM4.84603 14.6432L2.19887 12.1163L11.8635 2.89024L14.5106 5.41727L4.84603 14.6432ZM15.7996 4.18683L15.2051 4.75436L12.5579 2.22734L13.1524 1.65981C13.4634 1.36287 13.9695 1.36284 14.2806 1.65981L15.7996 3.1098C16.1114 3.40746 16.1114 3.88915 15.7996 4.18683Z" fill="#575757"/>
</svg>
