<svg width="20" height="19" viewBox="0 0 20 19" fill="none" xmlns="http://www.w3.org/2000/svg">
<path d="M10.3807 15.2741L14.742 18.0431C15.3044 18.3979 15.9967 17.87 15.8323 17.221L14.5689 12.2541C14.5347 12.1164 14.5402 11.9719 14.5846 11.8372C14.629 11.7024 14.7105 11.583 14.8198 11.4926L18.7311 8.23036C19.2416 7.80635 18.982 6.94969 18.3157 6.90642L13.2103 6.5776C13.071 6.56949 12.9371 6.52098 12.8249 6.438C12.7128 6.35502 12.6272 6.24116 12.5787 6.11033L10.6749 1.31645C10.6246 1.17792 10.5328 1.05824 10.412 0.973678C10.2913 0.889112 10.1474 0.84375 10 0.84375C9.85258 0.84375 9.70874 0.889112 9.58799 0.973678C9.46724 1.05824 9.37544 1.17792 9.32505 1.31645L7.42135 6.11033C7.37283 6.24116 7.28725 6.35502 7.17507 6.438C7.06289 6.52098 6.92896 6.56949 6.78966 6.5776L1.68428 6.90642C1.01798 6.94969 0.758383 7.80635 1.26892 8.23036L5.18017 11.4926C5.28949 11.583 5.37105 11.7024 5.41544 11.8372C5.45984 11.9719 5.46527 12.1164 5.43111 12.2541L4.26293 16.8576C4.06391 17.6364 4.89461 18.2681 5.56091 17.8441L9.61926 15.2741C9.73306 15.2017 9.86514 15.1633 10 15.1633C10.1349 15.1633 10.2669 15.2017 10.3807 15.2741V15.2741Z" stroke="#6B6B6B" stroke-linecap="round" stroke-linejoin="round"/>
</svg>
