<svg width="21" height="24" viewBox="0 0 21 24" fill="none" xmlns="http://www.w3.org/2000/svg">
<path d="M20 5.39453H1.19141" stroke="#6B6B6B" stroke-width="2" stroke-linecap="round" stroke-linejoin="round"/>
<path d="M8.03125 10.5273V17.3668" stroke="#6B6B6B" stroke-width="2" stroke-linecap="round" stroke-linejoin="round"/>
<path d="M13.1602 10.5273V17.3668" stroke="#6B6B6B" stroke-width="2" stroke-linecap="round" stroke-linejoin="round"/>
<path d="M18.2892 5.39453V21.6383C18.2892 21.8651 18.1992 22.0825 18.0388 22.2428C17.8785 22.4032 17.661 22.4933 17.4343 22.4933H3.75533C3.52858 22.4933 3.31113 22.4032 3.1508 22.2428C2.99046 22.0825 2.90039 21.8651 2.90039 21.6383V5.39453" stroke="#6B6B6B" stroke-width="2" stroke-linecap="round" stroke-linejoin="round"/>
<path d="M14.8697 5.39631V3.68643C14.8697 3.23295 14.6895 2.79804 14.3689 2.47737C14.0482 2.15671 13.6133 1.97656 13.1598 1.97656H8.03018C7.5767 1.97656 7.14179 2.15671 6.82112 2.47737C6.50046 2.79804 6.32031 3.23295 6.32031 3.68643V5.39631" stroke="#6B6B6B" stroke-width="2" stroke-linecap="round" stroke-linejoin="round"/>
</svg>
