<svg width="20" height="20" viewBox="0 0 20 20" fill="none" xmlns="http://www.w3.org/2000/svg">
<path d="M3.85036 16.216C3.05421 15.4199 3.58209 13.7497 3.17536 12.7718C2.76863 11.7939 1.21094 10.9372 1.21094 9.85547C1.21094 8.77374 2.75132 7.95162 3.17536 6.93912C3.5994 5.92662 3.05421 4.29105 3.85036 3.49489C4.64651 2.69874 6.31671 3.22662 7.29459 2.81989C8.27248 2.41316 9.12921 0.855469 10.2109 0.855469C11.2927 0.855469 12.1148 2.39585 13.1273 2.81989C14.1398 3.24393 15.7754 2.69874 16.5715 3.49489C17.3677 4.29105 16.8398 5.96124 17.2465 6.93912C17.6532 7.91701 19.2109 8.77374 19.2109 9.85547C19.2109 10.9372 17.6706 11.7593 17.2465 12.7718C16.8225 13.7843 17.3677 15.4199 16.5715 16.216C15.7754 17.0122 14.1052 16.4843 13.1273 16.891C12.1494 17.2978 11.2927 18.8555 10.2109 18.8555C9.12921 18.8555 8.30709 17.3151 7.29459 16.891C6.28209 16.467 4.64651 17.0122 3.85036 16.216Z" stroke="#6B6B6B" stroke-linecap="round" stroke-linejoin="round"/>
<path d="M8.04364 9.90242C7.56092 9.90242 7.17127 9.7494 6.8747 9.44336C6.58128 9.13732 6.43457 8.72559 6.43457 8.20816C6.43457 7.6434 6.59075 7.19539 6.90309 6.86411C7.2186 6.53283 7.63822 6.36719 8.16196 6.36719C8.66361 6.36719 9.05484 6.51705 9.33564 6.81678C9.61959 7.11651 9.76157 7.53771 9.76157 8.08038C9.76157 8.63882 9.60539 9.08211 9.29304 9.41023C8.98069 9.73836 8.56423 9.90242 8.04364 9.90242ZM8.13356 7.20012C7.67293 7.20012 7.44261 7.52036 7.44261 8.16083C7.44261 8.7666 7.66188 9.06949 8.10044 9.06949C8.54845 9.06949 8.77246 8.75398 8.77246 8.12297C8.77246 7.50774 8.5595 7.20012 8.13356 7.20012ZM12.9986 6.46184L8.57843 13.2483H7.42368L11.8344 6.46184H12.9986ZM12.2698 13.343C11.7871 13.343 11.3975 13.19 11.1009 12.8839C10.8075 12.5779 10.6608 12.1662 10.6608 11.6487C10.6608 11.084 10.8169 10.636 11.1293 10.3047C11.4448 9.97341 11.8644 9.80777 12.3881 9.80777C12.893 9.80777 13.2858 9.95605 13.5666 10.2526C13.8474 10.5492 13.9878 10.9688 13.9878 11.5115C13.9878 12.0699 13.8316 12.5148 13.5192 12.8461C13.2069 13.1774 12.7904 13.343 12.2698 13.343ZM12.3456 10.6407C11.8881 10.6407 11.6593 10.9609 11.6593 11.6014C11.6593 12.2072 11.8818 12.5101 12.3266 12.5101C12.7746 12.5101 12.9986 12.1946 12.9986 11.5636C12.9986 11.2701 12.9387 11.043 12.8188 10.8821C12.6989 10.7212 12.5412 10.6407 12.3456 10.6407Z" fill="#6B6B6B"/>
</svg>
