<svg width="20" height="18" viewBox="0 0 20 18" fill="none" xmlns="http://www.w3.org/2000/svg">
<path d="M1.21094 2.42069V14.9424C1.21094 15.3575 1.37584 15.7557 1.66938 16.0492C1.96291 16.3427 2.36103 16.5076 2.77615 16.5076H18.4283C18.6359 16.5076 18.8349 16.4252 18.9817 16.2784C19.1285 16.1317 19.2109 15.9326 19.2109 15.725V4.76851C19.2109 4.56095 19.1285 4.36189 18.9817 4.21512C18.8349 4.06836 18.6359 3.9859 18.4283 3.9859H2.77615C2.36103 3.9859 1.96291 3.821 1.66938 3.52746C1.37584 3.23393 1.21094 2.83581 1.21094 2.42069ZM1.21094 2.42069C1.21094 2.00556 1.37584 1.60745 1.66938 1.31391C1.96291 1.02038 2.36103 0.855469 2.77615 0.855469H16.0805" stroke="#6B6B6B" stroke-linecap="round" stroke-linejoin="round"/>
<path d="M14.9068 11.422C15.5552 11.422 16.0807 10.8965 16.0807 10.2481C16.0807 9.5998 15.5552 9.07422 14.9068 9.07422C14.2585 9.07422 13.7329 9.5998 13.7329 10.2481C13.7329 10.8965 14.2585 11.422 14.9068 11.422Z" fill="#6B6B6B"/>
</svg>
