<svg width="54" height="45" viewBox="0 0 54 45" fill="none" xmlns="http://www.w3.org/2000/svg">
<g clip-path="url(#clip0_639_2504)">
<path d="M53.9772 41.99C53.9191 42.1098 53.8555 42.2269 53.8057 42.3482C53.3826 43.3815 52.6247 43.9671 51.5004 44.0608C51.2944 44.0787 51.0869 44.0787 50.8795 44.0787C35.2692 44.0787 19.6589 44.0787 4.04865 44.0759C3.70569 44.0759 3.35167 44.0773 3.02115 44.0015C1.87749 43.7398 1.0837 42.7932 0.988276 41.6235C0.97583 41.4691 0.97583 41.3148 0.97583 41.1605C0.977213 28.4434 0.977213 15.7264 0.977213 3.00928C0.977213 1.5309 1.68803 0.514087 2.97413 0.184793C3.28667 0.10488 3.62272 0.0938581 3.9477 0.0938581C19.6271 0.0897247 35.3052 0.0966137 50.9846 0.0800801C52.5293 0.0787023 53.4642 0.795157 53.9772 2.17985V41.99ZM27.4502 42.3193C35.2651 42.3193 43.0799 42.3193 50.8947 42.3193C51.9595 42.3193 52.214 42.0685 52.214 41.0227C52.214 28.4076 52.214 15.7911 52.214 3.17599C52.214 2.09304 51.9692 1.85193 50.8712 1.85193C35.2761 1.85193 19.6811 1.85193 4.08599 1.85193C2.98658 1.85193 2.74042 2.09442 2.74042 3.17462C2.74042 15.7732 2.74042 28.3718 2.74042 40.9704C2.74042 42.0878 2.9769 42.3206 4.1095 42.3206C11.8897 42.3206 19.67 42.3206 27.4502 42.3206V42.3193Z" fill="white"/>
<path d="M27.4629 33.5272C19.6881 33.5051 13.3378 27.1659 13.3489 19.4378C13.36 11.6574 19.7352 5.33191 27.5223 5.37325C35.3261 5.41458 41.6778 11.7731 41.6073 19.475C41.5353 27.2816 35.2279 33.5492 27.4642 33.5272H27.4629ZM27.5002 31.7691C34.3152 31.7388 39.8261 26.2345 39.8358 19.4488C39.8454 12.6549 34.2765 7.11065 27.4573 7.12856C20.6534 7.1451 15.1232 12.6659 15.119 19.442C15.1162 26.2373 20.7018 31.7994 27.4988 31.7691H27.5002Z" fill="white"/>
<path d="M16.8875 37.0684V35.3145H18.6355V37.0436C23.986 37.0436 29.2743 37.0436 34.5625 37.0436C39.8508 37.0436 45.11 37.0436 50.4176 37.0436V38.8017H18.6604V40.5184H16.8903V38.8182H4.5354V37.0698H16.8875V37.0684Z" fill="white"/>
<path d="M6.2267 5.34869H4.53955V3.6416H6.2267V5.34869Z" fill="white"/>
<path d="M9.76836 5.34503H8.07153V3.65723H9.76836V5.34503Z" fill="white"/>
<path d="M13.3128 5.34922H11.6201V3.65039H13.3128V5.34922Z" fill="white"/>
<path d="M21.2867 19.4563C21.2867 16.9294 21.2853 14.4039 21.2867 11.8771C21.2867 10.717 21.9034 10.3601 22.9226 10.9319C27.4282 13.4546 31.9323 15.9815 36.4406 18.5015C36.8306 18.7206 37.1929 18.9548 37.186 19.4591C37.179 19.9372 36.8333 20.1673 36.4586 20.3767C31.9212 22.9146 27.388 25.458 22.8507 27.9973C21.9311 28.5112 21.2908 28.1392 21.288 27.0852C21.2825 24.5418 21.2867 21.9984 21.2867 19.455V19.4563ZM34.51 19.4453C30.6655 17.2918 26.8985 15.181 23.0927 13.0496V25.8424C26.9151 23.7013 30.6752 21.5947 34.51 19.4453Z" fill="white"/>
</g>
<defs>
<clipPath id="clip0_639_2504">
<rect width="53" height="44" fill="white" transform="translate(0.977295 0.0800781)"/>
</clipPath>
</defs>
</svg>
