<svg width="48" height="44" viewBox="0 0 48 44" fill="none" xmlns="http://www.w3.org/2000/svg">
<g clip-path="url(#clip0_639_2538)">
<path d="M47.9634 14.7181C47.8714 15.0085 47.8052 15.3101 47.6851 15.5895C47.1397 16.8498 46.1984 17.6215 44.8417 17.8627C44.7069 17.8873 44.572 17.9107 44.3759 17.9452V18.4781C44.3759 22.424 44.3759 26.3699 44.3759 30.317C44.3759 32.3576 43.1528 33.5859 41.1256 33.5896C40.7603 33.5896 40.3951 33.5896 39.9539 33.5896C39.9539 34.0081 39.9551 34.3995 39.9539 34.7909C39.9465 36.8044 38.7246 38.0254 36.717 38.0254C30.7997 38.0254 24.8823 38.0229 18.965 38.0352C18.677 38.0352 18.3596 38.1201 18.1059 38.258C14.8285 40.0377 11.5598 41.8358 8.28859 43.6266C7.34976 44.1399 6.69283 43.746 6.6916 42.6728C6.68915 41.3066 6.6916 39.9392 6.6916 38.573C6.6916 38.4081 6.6916 38.242 6.6916 38.0254C5.83121 38.0254 5.01004 38.0254 4.18887 38.0254C2.21194 38.0217 0.991211 36.7933 0.991211 34.7995C0.991211 28.12 0.991211 21.4406 0.991211 14.7611C0.991211 12.7968 2.20826 11.5759 4.16436 11.5734C4.55901 11.5734 4.95366 11.5734 5.40714 11.5734C5.40714 11.1242 5.40714 10.7143 5.40714 10.3057C5.41327 8.37463 6.63032 7.13769 8.55578 7.12539C10.3452 7.11431 12.1334 7.12292 13.9228 7.12292C14.0883 7.12292 14.2549 7.12292 14.4878 7.12292C14.4878 6.90754 14.4841 6.73031 14.4878 6.5543C14.5111 5.49706 14.4523 4.42875 14.5785 3.38381C14.7807 1.71611 16.2674 0.372095 17.9441 0.345018C20.9702 0.295787 23.9987 0.317941 27.026 0.321633C27.6278 0.321633 28.0273 0.705637 28.0298 1.22995C28.0322 1.75426 27.6339 2.12719 27.0346 2.15673C26.8973 2.16411 26.7588 2.15919 26.6215 2.15919C23.8688 2.15919 21.1172 2.15426 18.3645 2.16165C17.0898 2.16534 16.3275 2.92843 16.3263 4.19244C16.3213 7.47862 16.3213 10.7648 16.3263 14.0498C16.3287 15.3002 17.1168 16.083 18.373 16.083C26.9353 16.0855 35.4987 16.0855 44.061 16.083C45.3687 16.083 46.1286 15.3076 46.1286 13.9821C46.1298 10.7426 46.1298 7.50201 46.1286 4.26259C46.1286 2.90627 45.3883 2.16288 44.0279 2.16042C41.2604 2.1555 38.4929 2.16042 35.7255 2.15673C35.5134 2.15673 35.294 2.1518 35.0894 2.10011C34.6641 1.99303 34.4153 1.60534 34.4471 1.15979C34.4778 0.741329 34.7732 0.404095 35.1862 0.341326C35.3664 0.314249 35.5514 0.31671 35.7353 0.31671C38.4574 0.315479 41.1783 0.314249 43.9004 0.31671C46.0845 0.317941 47.3371 1.28656 47.9106 3.4072C47.918 3.43428 47.9462 3.4552 47.9634 3.47982V14.7181ZM8.52269 41.3755C8.74575 41.2623 8.89528 41.1934 9.0399 41.1134C11.8674 39.5626 14.6913 38.0044 17.5286 36.4721C17.8485 36.2998 18.2456 36.194 18.6084 36.1927C24.6164 36.1755 30.6256 36.1804 36.6337 36.1804C37.733 36.1804 38.1179 35.7939 38.1179 34.685C38.1179 29.2807 38.1179 23.8763 38.1179 18.4719V17.9255C37.8862 17.9255 37.7073 17.9255 37.5284 17.9255C33.2019 17.9255 28.8754 17.9255 24.549 17.9255C22.4544 17.9255 20.3598 17.9378 18.2652 17.9218C16.2662 17.9058 14.7378 16.5187 14.516 14.5322C14.4756 14.1741 14.5099 13.8085 14.5099 13.4467C14.3677 13.4319 14.3076 13.4196 14.2488 13.4196C10.8244 13.4196 7.40001 13.4147 3.97561 13.4221C3.24636 13.4233 2.82965 13.891 2.82843 14.6775C2.82597 21.4172 2.82597 28.157 2.82843 34.8967C2.82843 35.7361 3.2672 36.1767 4.09817 36.1792C5.18408 36.1841 6.26876 36.1792 7.35466 36.1804C8.21138 36.1816 8.52146 36.4881 8.52391 37.3373C8.52636 38.6567 8.52391 39.9749 8.52391 41.3755H8.52269ZM39.9833 31.7447C40.3767 31.7447 40.7407 31.7447 41.1035 31.7447C42.1306 31.7422 42.5387 31.3287 42.54 30.2874C42.54 26.3416 42.54 22.3969 42.54 18.451V17.9612H39.9833V31.7459V31.7447ZM14.4694 8.9654C14.0711 8.9654 13.7206 8.9654 13.37 8.9654C11.751 8.9654 10.1319 8.96048 8.51288 8.96909C7.79834 8.97279 7.33505 9.31248 7.27255 9.93526C7.21862 10.4608 7.26152 10.9962 7.26152 11.539H14.4682V8.9654H14.4694Z" fill="white"/>
<path d="M40.0067 6.35074V8.23261C40.6624 8.23261 41.3009 8.21291 41.9382 8.23753C42.6319 8.26461 43.0499 8.86769 42.8121 9.4757C42.6467 9.89908 42.3023 10.0677 41.8672 10.0689C41.2592 10.0714 40.6501 10.0689 40.0152 10.0689V11.9459C40.6979 11.9459 41.3659 11.9434 42.0338 11.9459C42.7067 11.9496 43.1099 12.304 43.1014 12.8739C43.0928 13.4179 42.6871 13.7797 42.051 13.7847C41.1036 13.792 40.155 13.7933 39.2075 13.7847C38.5175 13.7773 38.1584 13.4191 38.1572 12.7274C38.1511 10.3323 38.1511 7.93722 38.1572 5.54212C38.1596 4.88119 38.5224 4.51934 39.1867 4.51073C40.1501 4.49842 41.1134 4.49965 42.0767 4.51073C42.703 4.51811 43.1099 4.90212 43.1038 5.44612C43.0977 5.99997 42.7067 6.34213 42.0559 6.34828C41.3867 6.35444 40.7175 6.34951 40.0091 6.34951L40.0067 6.35074Z" fill="white"/>
<path d="M32.9579 10.1884C33.3097 9.13366 33.6614 8.08011 34.012 7.02533C34.2142 6.4161 34.4066 5.80194 34.6186 5.19516C34.8258 4.60193 35.3111 4.33608 35.8271 4.51454C36.3149 4.68316 36.5453 5.1927 36.3578 5.76624C35.5722 8.16627 34.7792 10.5638 33.9801 12.9602C33.8048 13.4845 33.4114 13.7762 32.9359 13.7835C32.464 13.7909 32.0644 13.5042 31.8818 12.9798C31.0447 10.5811 30.2137 8.18104 29.3889 5.77855C29.1854 5.18532 29.4208 4.65977 29.9282 4.49977C30.4552 4.33362 30.9124 4.58962 31.1256 5.20008C31.7066 6.86041 32.2777 8.52442 32.8525 10.186L32.9579 10.1884Z" fill="white"/>
<path d="M21.1811 11.9419C21.7657 11.9419 22.2829 11.937 22.8001 11.9432C23.3786 11.9505 23.7635 12.2939 23.788 12.8109C23.8137 13.3413 23.4289 13.7598 22.8406 13.7758C22.001 13.7979 21.159 13.7979 20.3182 13.777C19.7115 13.7622 19.3512 13.3893 19.3488 12.7801C19.3402 10.3394 19.3414 7.89881 19.3488 5.45817C19.35 4.8514 19.7201 4.46493 20.2569 4.46001C20.8158 4.45508 21.1762 4.84647 21.1774 5.48648C21.1823 7.4508 21.1798 9.41636 21.1798 11.3807C21.1798 11.5468 21.1798 11.713 21.1798 11.9419H21.1811Z" fill="white"/>
<path d="M27.1216 9.11025C27.1216 10.3213 27.1326 11.5324 27.1179 12.7435C27.1093 13.5214 26.4732 13.9866 25.8371 13.6986C25.4866 13.5398 25.2917 13.2604 25.2917 12.8678C25.2893 10.3693 25.2856 7.87085 25.2942 5.37237C25.2966 4.83205 25.6778 4.46651 26.1815 4.45913C26.7196 4.45051 27.1081 4.83082 27.1167 5.43144C27.1326 6.6573 27.1216 7.88439 27.1216 9.11025Z" fill="white"/>
<path d="M31.2189 0.325242C31.7239 0.320318 32.1332 0.709245 32.1479 1.20894C32.1626 1.71972 31.7325 2.15787 31.2238 2.15295C30.725 2.1468 30.3291 1.74187 30.3279 1.23602C30.3267 0.722784 30.7103 0.331395 31.2201 0.326472L31.2189 0.325242Z" fill="white"/>
<path d="M10.3843 21.4385C12.2117 21.4459 13.6996 22.9388 13.7119 24.7776C13.7242 26.6164 12.2032 28.1536 10.3684 28.1561C8.5275 28.1586 7.02734 26.6422 7.03101 24.7838C7.03469 22.9179 8.52505 21.4311 10.3856 21.4385H10.3843ZM8.86578 24.7948C8.86578 25.6392 9.54722 26.3235 10.3782 26.3136C11.1859 26.305 11.8624 25.6281 11.8771 24.8133C11.8931 23.9825 11.2092 23.2859 10.3745 23.281C9.52884 23.2761 8.86455 23.9431 8.86578 24.7936V24.7948Z" fill="white"/>
<path d="M30.5669 21.4385C32.4151 21.436 33.9239 22.9462 33.9202 24.7985C33.9165 26.6422 32.3894 28.1684 30.5571 28.1573C28.7358 28.1462 27.2381 26.6398 27.2307 24.8108C27.2234 22.9511 28.7174 21.4422 30.5669 21.4385ZM30.5755 23.281C29.7359 23.281 29.0606 23.9603 29.0655 24.8022C29.0704 25.6354 29.769 26.3271 30.5939 26.3136C31.4015 26.3001 32.0769 25.6182 32.0854 24.8059C32.094 23.9702 31.4126 23.281 30.5755 23.281Z" fill="white"/>
<path d="M17.1304 24.7924C17.1304 22.929 18.622 21.436 20.4812 21.4385C22.3086 21.4409 23.8039 22.9339 23.8198 24.7702C23.8358 26.6078 22.3135 28.1512 20.48 28.1573C18.6367 28.1635 17.1304 26.6496 17.1304 24.7924ZM18.9651 24.7751C18.9578 25.6207 19.627 26.3099 20.4604 26.3148C21.2816 26.3198 21.9863 25.6145 21.9839 24.7887C21.9814 23.9727 21.3122 23.2945 20.4984 23.2822C19.6503 23.2687 18.9725 23.9283 18.9651 24.7751Z" fill="white"/>
</g>
<defs>
<clipPath id="clip0_639_2538">
<rect width="46.9721" height="43.5352" fill="white" transform="translate(0.991211 0.3125)"/>
</clipPath>
</defs>
</svg>
