<svg width="57" height="48" viewBox="0 0 57 48" fill="none" xmlns="http://www.w3.org/2000/svg">
<g clip-path="url(#clip0_639_2522)">
<path d="M0.977295 3.99061C0.999212 3.94392 1.02844 3.89865 1.04305 3.85055C1.83353 1.19495 3.36043 0.0800781 6.20382 0.0800781C21.4772 0.0800781 36.7491 0.0800781 52.0225 0.0800781C54.4071 0.0800781 56.2365 1.35765 56.802 3.43884C56.9159 3.86045 56.9685 4.30895 56.9685 4.74471C56.9773 15.4916 56.9788 26.2399 56.9729 36.9868C56.9729 39.7033 54.9682 41.643 52.1394 41.6614C49.3326 41.6797 46.5257 41.6656 43.7188 41.6656C43.5011 41.6656 43.2834 41.6656 42.9751 41.6656V42.1891C42.9751 43.4426 42.9678 44.6947 42.9795 45.9482C42.9839 46.4307 42.8611 46.8226 42.3585 47.0136C41.8675 47.2018 41.5256 46.9584 41.2027 46.6387C40.2632 45.7049 39.3164 44.7782 38.333 43.8104C37.4184 44.6975 36.5577 45.5309 35.6971 46.3656C35.5554 46.5028 35.4151 46.6429 35.2705 46.7759C34.9695 47.0518 34.6276 47.172 34.2228 47.0023C33.8254 46.8353 33.6515 46.534 33.6515 46.1237C33.6515 44.8532 33.6515 43.5827 33.6515 42.3122C33.6515 42.1212 33.6515 41.9302 33.6515 41.667C33.368 41.667 33.1386 41.667 32.9092 41.667C24.1613 41.667 15.412 41.6189 6.66555 41.6953C3.87914 41.7179 1.65527 40.6696 0.977295 37.7735C0.977295 26.513 0.977295 15.2511 0.977295 3.99061ZM42.9766 39.8575H43.5303C46.3547 39.8575 49.1806 39.8603 52.005 39.8575C53.979 39.8546 55.1114 38.744 55.1114 36.8213C55.1114 26.1791 55.1114 15.5383 55.1114 4.89609C55.1114 3.00732 53.9673 1.88962 52.0298 1.88962C36.6659 1.88821 21.3004 1.88962 5.93643 1.88962C3.99165 1.88962 2.84172 3.00308 2.84026 4.88194C2.84026 15.5411 2.84026 26.2003 2.84026 36.8609C2.84026 38.744 3.98288 39.8575 5.93059 39.8589C14.9707 39.8617 24.0108 39.8603 33.051 39.8589C33.2424 39.8589 33.4323 39.8377 33.6515 39.8249V39.1246C33.6515 35.7715 33.691 32.417 33.6354 29.0653C33.6062 27.2883 33.9525 25.483 33.2599 23.7357C33.1109 23.3608 33.0013 23.1288 32.5673 23.0665C31.0507 22.8514 30.1944 21.6234 30.567 20.1845C30.6737 19.7714 30.5758 19.5422 30.1944 19.3215C28.8794 18.566 28.5872 17.1101 29.5062 15.9132C29.7736 15.5652 29.7532 15.3176 29.4945 14.978C28.5813 13.7811 28.8823 12.3536 30.209 11.5754C30.5612 11.3688 30.6766 11.1467 30.5773 10.7534C30.1959 9.24522 31.0302 8.05678 32.6375 7.81909C33.0086 7.76391 33.1737 7.59272 33.2322 7.25034C33.4995 5.67424 34.6641 4.90175 36.2524 5.25404C36.6483 5.34176 36.888 5.24838 37.1042 4.89892C37.8976 3.61569 39.3924 3.32282 40.6183 4.20708C40.9704 4.46033 41.2334 4.47023 41.5885 4.21415C42.8217 3.32424 44.3077 3.6072 45.104 4.89043C45.3363 5.26536 45.5935 5.34034 46.007 5.24272C47.493 4.89185 48.7759 5.72942 48.9804 7.18809C49.0359 7.58565 49.2011 7.76533 49.6219 7.82475C51.1751 8.04122 52.0035 9.24805 51.6397 10.7421C51.5462 11.1241 51.6368 11.3618 51.9977 11.5726C53.3522 12.362 53.6356 13.7684 52.6932 15.0148C52.4433 15.3459 52.4609 15.5864 52.7064 15.9076C53.6415 17.13 53.342 18.5476 51.9802 19.3441C51.6383 19.5436 51.5506 19.7728 51.6324 20.1308C51.9904 21.6955 51.216 22.8048 49.6029 23.0877C49.41 23.1217 49.1251 23.2448 49.0783 23.3862C48.8694 24.03 48.5947 24.6949 48.5874 25.3542C48.5421 29.1304 48.5655 32.9079 48.5655 36.684C48.5655 36.8609 48.5742 37.0378 48.5567 37.2132C48.4836 37.9263 47.699 38.2771 47.0941 37.864C46.9319 37.7536 46.7975 37.6037 46.6557 37.4664C45.744 36.585 44.8337 35.7036 43.8518 34.7542C43.5347 35.1744 43.0438 35.531 43.0131 35.9215C42.9108 37.2005 42.9751 38.4936 42.9751 39.8603L42.9766 39.8575ZM35.6445 6.95747C35.2895 6.95323 35.158 7.09754 35.0732 7.55169C34.8482 8.74721 34.1541 9.41783 32.9092 9.59609C32.4358 9.664 32.2912 9.8932 32.3803 10.3261C32.6579 11.6787 32.3672 12.3606 31.1866 13.1006C30.8213 13.3298 30.7526 13.5774 31.0054 13.9339C31.8075 15.0643 31.8178 15.8595 31.0302 16.9361C30.7555 17.3111 30.811 17.5629 31.2041 17.8062C32.3496 18.5165 32.6682 19.2607 32.3847 20.5396C32.2926 20.957 32.392 21.2046 32.8771 21.2923C34.252 21.5427 34.838 22.1101 35.0761 23.4202C35.155 23.8531 35.3815 24.0073 35.7965 23.9041C37.0794 23.5829 38.0437 23.9748 38.7056 25.084C38.9116 25.4292 39.1995 25.4901 39.5253 25.2467C40.5964 24.4445 41.6542 24.4601 42.7194 25.2609C43.0248 25.4901 43.317 25.4278 43.504 25.1109C44.1703 23.9706 45.1478 23.5815 46.4512 23.9083C46.8369 24.0045 47.0692 23.8545 47.1452 23.4513C47.3951 22.1115 47.9693 21.5343 49.3165 21.2994C49.8191 21.2117 49.9448 20.9754 49.8337 20.5213C49.54 19.3229 49.9068 18.4853 50.991 17.8218C51.4498 17.5403 51.4907 17.3521 51.1824 16.9262C50.4226 15.875 50.4211 15.0318 51.1999 13.9636C51.4702 13.5929 51.4205 13.3369 51.0246 13.0921C49.882 12.3903 49.5517 11.6094 49.8367 10.3601C49.9506 9.86208 49.8235 9.68098 49.3004 9.60317C48.0789 9.41924 47.3483 8.71749 47.1496 7.54179C47.0576 6.99284 46.9027 6.89522 46.3372 7.02397C45.1581 7.29137 44.2215 6.91644 43.5786 5.92183C43.2673 5.43938 43.0862 5.39976 42.6215 5.71668C41.5695 6.43258 40.6548 6.43116 39.5984 5.71102C39.1542 5.40825 38.9584 5.44504 38.672 5.88222C37.9721 6.94898 37.1305 7.28005 35.8301 7.00133C35.7599 6.98577 35.6898 6.96737 35.6489 6.95889L35.6445 6.95747ZM41.0873 37.5768C40.6519 37.9602 40.2325 38.188 39.7182 37.9149C39.2112 37.6447 39.2477 37.1722 39.2477 36.7081C39.2506 33.7285 39.2492 30.7475 39.2492 27.7679V27.2119C38.2191 27.1511 37.5148 26.7393 37.0385 25.9315C36.9435 25.7716 36.6761 25.6216 36.4861 25.6174C36.1735 25.6117 35.8593 25.7292 35.551 25.7943V43.8373C35.589 43.8642 35.6255 43.8897 35.6635 43.9166C36.2377 43.3379 36.8047 42.755 37.3862 42.1834C38.1182 41.4633 38.5142 41.4633 39.2594 42.1976C39.8395 42.7677 40.3976 43.3591 40.966 43.9406C41.0069 43.9095 41.0478 43.8769 41.0888 43.8458V37.5768H41.0873ZM41.1355 34.9693C41.8807 34.2336 42.5105 33.5983 43.1577 32.9787C43.656 32.5005 44.1353 32.4976 44.6379 32.9589C45.0339 33.3225 45.4123 33.7059 45.7995 34.078C46.0698 34.3383 46.3445 34.5972 46.6601 34.8971V25.7603C46.4965 25.7405 46.3606 25.7504 46.2481 25.7065C45.6183 25.4604 45.2881 25.7136 44.9389 26.2428C44.2492 27.2869 42.7735 27.492 41.7039 26.7832C41.5344 26.6714 41.362 26.5653 41.137 26.4238V34.9693H41.1355Z" fill="white"/>
<path d="M6.56917 20.8724C6.56917 17.9608 6.56625 15.0477 6.56917 12.136C6.57209 9.23987 8.54318 7.31573 11.5298 7.31149C16.9068 7.30441 22.2838 7.30866 27.6609 7.31149C27.842 7.31149 28.0276 7.31149 28.2044 7.34686C28.6778 7.43599 28.9817 7.80243 28.9715 8.24102C28.9598 8.68527 28.6413 9.03331 28.162 9.09698C27.9472 9.12528 27.7251 9.11962 27.5074 9.11962C22.24 9.11962 16.9711 9.11962 11.7036 9.11962C9.52069 9.11962 8.4336 10.1652 8.4336 12.2633C8.4336 18.0174 8.4336 23.7714 8.4336 29.5254C8.4336 31.533 9.53384 32.6083 11.5911 32.6097C17.2414 32.6111 22.8931 32.6097 28.5434 32.614C28.7962 32.614 29.0621 32.6196 29.2973 32.696C29.7298 32.8347 29.9256 33.1686 29.8862 33.6029C29.8467 34.0387 29.5896 34.316 29.1395 34.3938C28.9613 34.4249 28.7757 34.4193 28.5945 34.4193C22.9253 34.4193 17.2575 34.4221 11.5882 34.4193C8.51688 34.4178 6.57063 32.5277 6.56917 29.5565C6.56771 26.6618 6.56917 23.7671 6.56917 20.8724Z" fill="white"/>
<path d="M19.699 29.3719C18.308 30.2916 17.3056 30.1119 15.5493 28.574C14.9123 29.4908 14.0181 30.1006 12.9996 30.5575C12.8506 30.624 12.7001 30.6877 12.5452 30.7372C12.0002 30.9084 11.5137 30.7103 11.3193 30.2463C11.1235 29.7822 11.331 29.3267 11.8453 29.0692C12.2808 28.8513 12.7235 28.6433 13.1385 28.3915C13.8895 27.9373 14.2708 27.2568 14.2928 26.4051C14.3059 25.8731 14.5353 25.5236 15.073 25.4062C15.5201 25.3072 15.9307 25.5718 16.1484 26.1065C16.4669 26.8889 16.9784 27.5115 17.7177 27.9486C18.2232 28.2472 18.4351 28.1538 18.5272 27.5992C18.6002 27.1521 18.8165 26.8366 19.2957 26.7574C19.7691 26.6781 20.0511 26.9229 20.339 27.2738C20.5932 27.5836 20.9498 27.9034 21.3253 28.0123C22.8595 28.458 24.4171 28.8159 26.0419 28.782C26.6789 28.7678 27.1027 29.1512 27.1085 29.6733C27.1143 30.1939 26.6862 30.5689 26.0535 30.5759C23.8764 30.6 21.8001 30.1274 19.7019 29.3733L19.699 29.3719Z" fill="white"/>
<path d="M18.6997 19.9733C20.8125 19.9733 22.9239 19.955 25.0352 19.9917C25.3684 19.9974 25.8052 20.1714 26.0054 20.4134C26.4555 20.9566 26.0025 21.7235 25.2456 21.7687C24.7737 21.797 24.2988 21.7772 23.8254 21.7772C20.1112 21.7772 16.3969 21.7772 12.6827 21.7772C12.5366 21.7772 12.3904 21.7829 12.2458 21.7758C11.6438 21.7475 11.2522 21.3867 11.2537 20.8661C11.2551 20.3398 11.6409 19.9804 12.2531 19.9762C13.5637 19.9663 14.8744 19.9719 16.1865 19.9719C17.0237 19.9719 17.861 19.9719 18.6997 19.9719V19.9733Z" fill="white"/>
<path d="M18.7536 16.3619C20.865 16.3619 22.9778 16.3662 25.0892 16.3591C25.6006 16.3577 25.9863 16.5232 26.131 17.0255C26.2742 17.5235 25.9819 17.9946 25.4588 18.1234C25.2864 18.1658 25.0979 18.1658 24.9182 18.1658C20.7846 18.1686 16.6525 18.1672 12.5189 18.1658C12.3918 18.1658 12.2632 18.1729 12.1375 18.1573C11.5852 18.0937 11.2258 17.6989 11.2565 17.1967C11.2857 16.7114 11.6437 16.3704 12.2004 16.3662C13.7667 16.3534 15.3316 16.3605 16.898 16.3591C17.5175 16.3591 18.1356 16.3591 18.7551 16.3591L18.7536 16.3619Z" fill="white"/>
<path d="M18.7523 12.7458C20.8636 12.7458 22.975 12.7415 25.0878 12.7486C25.7278 12.75 26.0872 13.0245 26.1515 13.514C26.2158 14.012 25.925 14.4153 25.4078 14.52C25.2325 14.5553 25.0469 14.5539 24.8643 14.5539C20.7687 14.5553 16.6716 14.5553 12.576 14.5539C12.3773 14.5539 12.1727 14.5525 11.9798 14.5101C11.5108 14.4082 11.2288 14.0347 11.2551 13.5876C11.2814 13.1419 11.6043 12.7911 12.0909 12.7656C12.7075 12.7331 13.3285 12.7472 13.9465 12.7472C15.548 12.7458 17.1508 12.7472 18.7523 12.7472V12.7458Z" fill="white"/>
<path d="M41.1239 22.6731C36.9918 22.6802 33.656 19.4516 33.656 15.4448C33.656 11.4593 36.9684 8.23356 41.0728 8.22366C45.2195 8.21375 48.5583 11.4211 48.5685 15.4222C48.5773 19.436 45.2619 22.666 41.1254 22.6731H41.1239ZM41.1181 20.8593C44.2187 20.8551 46.7026 18.4457 46.7011 15.442C46.7011 12.4511 44.1909 10.0261 41.1035 10.029C38.0146 10.0332 35.519 12.4596 35.5219 15.4562C35.5248 18.4612 38.0117 20.8636 41.1166 20.8607L41.1181 20.8593Z" fill="white"/>
</g>
<defs>
<clipPath id="clip0_639_2522">
<rect width="56" height="47" fill="white" transform="translate(0.977295 0.0800781)"/>
</clipPath>
</defs>
</svg>
