<svg width="73" height="42" viewBox="0 0 73 42" fill="none" xmlns="http://www.w3.org/2000/svg">
<g clip-path="url(#clip0_1025_2844)">
<path d="M72.6937 38.909C72.6078 39.0975 72.5191 39.2847 72.4359 39.4747C71.9147 40.6518 71.037 41.3533 69.7663 41.5118C69.4423 41.5518 69.1113 41.5547 68.7844 41.5547C47.3911 41.5561 25.9978 41.5575 4.60585 41.5504C4.09447 41.5504 3.56478 41.5304 3.07595 41.3975C1.67846 41.0161 0.720509 39.7247 0.713465 38.219C0.69656 34.679 0.703604 31.1375 0.710647 27.5975C0.713465 26.3533 1.36008 25.4747 2.28423 24.7204C3.81272 23.4747 4.37904 21.8475 3.92965 19.9004C3.68594 18.8461 3.10412 17.9875 2.24478 17.3461C1.13186 16.5161 0.678246 15.4204 0.693742 14.0261C0.731779 10.7475 0.703604 7.46897 0.70783 4.18897C0.710647 1.93469 2.07432 0.554688 4.3072 0.554688C25.747 0.554688 47.1868 0.554688 68.6267 0.554688C70.9892 0.554688 71.7766 1.07897 72.6937 3.26326V15.0975C72.3937 16.109 71.764 16.8475 70.9652 17.5204C68.7704 19.369 68.7492 22.7218 70.9173 24.5461C71.7104 25.2133 72.3528 25.9433 72.6937 26.9318V38.909ZM36.6973 2.69326C32.2231 2.69326 27.7474 2.69326 23.2732 2.69326C16.9705 2.69326 10.6691 2.69326 4.36636 2.69326C3.23936 2.69326 2.81814 3.10612 2.81673 4.21897C2.81251 7.54469 2.82378 10.8718 2.80828 14.1975C2.80546 14.799 3.02664 15.2233 3.46899 15.609C3.98037 16.0561 4.49879 16.5233 4.89746 17.069C7.02327 19.9833 6.48231 24.0533 3.69298 26.3304C3.24781 26.6947 2.81392 27.0347 2.81392 27.6975C2.81955 31.1661 2.80969 34.6347 2.82096 38.1033C2.82378 38.8975 3.24922 39.3361 4.01981 39.4033C4.29874 39.4275 4.5819 39.4147 4.86225 39.4147C23.7452 39.4147 42.6295 39.4147 61.5125 39.4147C63.9721 39.4147 66.4318 39.4161 68.8929 39.4147C70.2383 39.4132 70.5834 39.0547 70.5834 37.669C70.5834 34.4375 70.5736 31.2061 70.5933 27.9761C70.5975 27.3218 70.3721 26.8604 69.872 26.4533C66.2966 23.5461 66.2994 18.5747 69.8776 15.6475C70.3778 15.2375 70.5989 14.7747 70.5947 14.1218C70.575 10.9147 70.5863 7.70754 70.5863 4.5004C70.5863 3.02897 70.2594 2.69469 68.8183 2.69469C58.1117 2.69469 47.4052 2.69469 36.6973 2.69469V2.69326Z" fill="url(#paint0_linear_1025_2844)"/>
<path d="M19.7993 11.5616C20.3417 10.713 20.8432 9.85875 21.4138 9.0559C22.2872 7.82447 23.4452 7.16447 24.9878 7.50018C26.2683 7.77875 27.1192 8.58018 27.4658 9.85304C27.8109 11.1173 27.5503 12.2959 26.5684 13.1716C25.8542 13.8102 25.0159 14.3059 24.2285 14.8588C24.0214 15.0045 23.7974 15.1245 23.4438 15.3402C23.7805 15.3673 23.9721 15.3959 24.1651 15.3959C25.2892 15.4002 26.4148 15.3845 27.539 15.4016C28.9337 15.423 29.8423 16.3145 29.8466 17.7188C29.8621 22.233 29.8621 26.7473 29.8466 31.2616C29.8409 32.623 28.9985 33.4645 27.6588 33.5416C27.4954 33.5516 27.3305 33.5488 27.1671 33.5488C22.2463 33.5488 17.327 33.5516 12.4062 33.5488C10.5114 33.5488 9.71547 32.7359 9.71547 30.8216C9.71547 26.5445 9.71406 22.2688 9.71547 17.9916C9.71547 16.2788 10.5776 15.4045 12.2653 15.3988C13.5064 15.3945 14.7461 15.3988 16.1549 15.3988C15.8985 15.2116 15.7703 15.1088 15.6336 15.0188C14.8898 14.5245 14.115 14.073 13.4078 13.5316C12.2667 12.6588 11.7441 11.4902 12.0737 10.033C12.3794 8.68161 13.2275 7.82447 14.5559 7.51161C15.9887 7.17447 17.1495 7.69161 18.0074 8.85447C18.6371 9.70732 19.1823 10.623 19.7979 11.5602L19.7993 11.5616ZM11.8666 23.2488V31.3616H27.6898V23.2473C27.3122 23.2473 26.9868 23.2559 26.6642 23.2459C25.9542 23.223 25.502 22.8045 25.5062 22.1859C25.5104 21.6059 25.9485 21.1673 26.6078 21.1188C26.9699 21.093 27.3348 21.1145 27.6996 21.1145V17.5873H11.8596V21.1088C12.1442 21.1088 12.3935 21.1088 12.6443 21.1088C15.666 21.1088 18.6878 21.1059 21.711 21.1116C22.6112 21.113 23.0761 21.4873 23.0831 22.1802C23.0902 22.8859 22.6436 23.2459 21.7321 23.2459C18.7104 23.2488 15.6886 23.2459 12.6654 23.2459C12.4132 23.2459 12.1625 23.2459 11.868 23.2459L11.8666 23.2488ZM20.8968 13.9945C20.9559 14.0459 21.0151 14.0973 21.0728 14.1473C21.5236 13.9088 21.9914 13.6959 22.4238 13.4245C23.317 12.8645 24.2087 12.2973 25.0667 11.683C25.5146 11.3616 25.6541 10.7902 25.385 10.3459C25.1723 9.99447 24.6962 9.6159 24.3257 9.6059C23.9439 9.59447 23.417 9.92161 23.1874 10.2616C22.3703 11.4688 21.6532 12.7445 20.8982 13.9945H20.8968ZM18.4807 14.1273C18.554 14.0645 18.6272 14.0002 18.7005 13.9373C17.8482 12.6002 17.0396 11.2302 16.1225 9.93875C15.7111 9.35875 14.9236 9.42732 14.4432 9.9159C13.9615 10.4073 13.9361 11.133 14.4686 11.6302C15.6449 12.7288 17.0917 13.3845 18.4807 14.1273Z" fill="url(#paint1_linear_1025_2844)"/>
<path d="M62.7005 10.66C62.4709 11.0785 62.3582 11.3671 62.1779 11.6028C57.0218 18.3385 51.8616 25.0714 46.6971 31.8C46.2068 32.44 45.5616 32.57 45.0615 32.1657C44.5656 31.7642 44.5516 31.1242 45.0559 30.4671C50.1993 23.7514 55.3483 17.04 60.493 10.3257C60.8297 9.8871 61.2383 9.50424 61.7961 9.78138C62.1469 9.95567 62.3906 10.3485 62.6991 10.6614L62.7005 10.66Z" fill="url(#paint2_linear_1025_2844)"/>
<path d="M59.2396 32.3922C56.7883 32.3922 54.8245 30.4079 54.8203 27.9251C54.8161 25.4422 56.7658 23.4337 59.2072 23.4065C61.6443 23.3794 63.6912 25.4479 63.6814 27.9279C63.6715 30.3908 61.6824 32.3908 59.241 32.3922H59.2396ZM59.2072 30.2522C60.4976 30.2665 61.5499 29.2394 61.5711 27.9422C61.5908 26.6651 60.5427 25.5694 59.2748 25.5451C58.0055 25.5194 56.9433 26.5737 56.9292 27.8737C56.9151 29.1951 57.9125 30.2365 59.2072 30.2522Z" fill="url(#paint3_linear_1025_2844)"/>
<path d="M43.5508 14.1743C43.5621 11.6986 45.5442 9.68855 47.9729 9.69141C50.3931 9.69427 52.3992 11.7214 52.4133 14.1771C52.4274 16.6643 50.4129 18.69 47.9349 18.6771C45.4907 18.6643 43.5396 16.6614 43.5508 14.1743ZM45.6597 14.1714C45.6499 15.4928 46.6529 16.53 47.949 16.5386C49.2394 16.5471 50.2875 15.5128 50.303 14.2157C50.3185 12.9428 49.2563 11.8471 47.9926 11.8314C46.7205 11.8157 45.6696 12.87 45.6597 14.1714Z" fill="url(#paint4_linear_1025_2844)"/>
<path d="M37.7342 34.7856C37.7342 35.1871 37.7638 35.5928 37.7272 35.9914C37.6708 36.5942 37.3158 36.9442 36.7143 36.9528C36.1142 36.9614 35.7155 36.6299 35.6789 36.0242C35.6296 35.1999 35.6338 34.3685 35.6718 33.5428C35.7 32.9356 36.086 32.6056 36.6819 32.5756C37.251 32.5471 37.6779 32.9499 37.7328 33.5814C37.768 33.9799 37.7399 34.3856 37.7399 34.7871C37.7385 34.7871 37.7371 34.7871 37.7356 34.7871L37.7342 34.7856Z" fill="url(#paint5_linear_1025_2844)"/>
<path d="M37.735 7.35078C37.735 7.75364 37.7646 8.15936 37.7279 8.55793C37.6716 9.15793 37.3194 9.51793 36.7207 9.53079C36.122 9.54364 35.7162 9.20507 35.681 8.60364C35.6303 7.75507 35.6331 6.89793 35.6853 6.04936C35.7191 5.47793 36.1234 5.14936 36.677 5.14078C37.2645 5.13221 37.6547 5.46936 37.7209 6.07364C37.7674 6.49507 37.7294 6.92507 37.7294 7.35078C37.7308 7.35078 37.7336 7.35078 37.735 7.35078Z" fill="url(#paint6_linear_1025_2844)"/>
<path d="M37.7216 14.229C37.7216 14.6547 37.7639 15.0861 37.7118 15.5047C37.6413 16.0747 37.2694 16.3847 36.7031 16.3861C36.1354 16.3875 35.7311 16.079 35.6944 15.5104C35.6381 14.639 35.6395 13.759 35.6916 12.8861C35.7268 12.3132 36.1481 11.9975 36.6975 11.9961C37.2469 11.9961 37.6427 12.3075 37.7118 12.8804C37.7653 13.3232 37.723 13.7775 37.723 14.2275L37.7216 14.229Z" fill="url(#paint7_linear_1025_2844)"/>
<path d="M35.6628 21.0371C35.6628 20.6343 35.636 20.23 35.6698 19.83C35.7205 19.22 36.0995 18.8671 36.6799 18.8557C37.2603 18.8457 37.6843 19.1814 37.7167 19.7914C37.7632 20.64 37.7632 21.4957 37.7097 22.3443C37.6745 22.9128 37.2871 23.2314 36.7165 23.2385C36.1108 23.2471 35.7431 22.9128 35.6755 22.3128C35.629 21.8928 35.667 21.4614 35.667 21.0357C35.6656 21.0357 35.6642 21.0357 35.6628 21.0357V21.0371Z" fill="url(#paint8_linear_1025_2844)"/>
<path d="M35.6709 27.9048C35.6709 27.479 35.6371 27.0505 35.6808 26.629C35.7399 26.0519 36.1217 25.729 36.6711 25.719C37.2543 25.7076 37.6812 26.0319 37.7164 26.6433C37.7643 27.4919 37.7629 28.3476 37.7136 29.1962C37.6798 29.7662 37.298 30.0876 36.7275 30.099C36.1259 30.1105 35.747 29.7876 35.6794 29.1833C35.6329 28.7633 35.6709 28.3333 35.6709 27.9076V27.9048Z" fill="url(#paint9_linear_1025_2844)"/>
</g>
<defs>
<linearGradient id="paint0_linear_1025_2844" x1="0.693359" y1="21.0553" x2="72.6937" y2="21.0553" gradientUnits="userSpaceOnUse">
<stop stop-color="#7764FB"/>
<stop offset="1" stop-color="#F364F3"/>
</linearGradient>
<linearGradient id="paint1_linear_1025_2844" x1="9.71484" y1="20.4801" x2="29.8582" y2="20.4801" gradientUnits="userSpaceOnUse">
<stop stop-color="#7764FB"/>
<stop offset="1" stop-color="#F364F3"/>
</linearGradient>
<linearGradient id="paint2_linear_1025_2844" x1="44.6836" y1="21.042" x2="62.7005" y2="21.042" gradientUnits="userSpaceOnUse">
<stop stop-color="#7764FB"/>
<stop offset="1" stop-color="#F364F3"/>
</linearGradient>
<linearGradient id="paint3_linear_1025_2844" x1="54.8203" y1="27.8992" x2="63.6814" y2="27.8992" gradientUnits="userSpaceOnUse">
<stop stop-color="#7764FB"/>
<stop offset="1" stop-color="#F364F3"/>
</linearGradient>
<linearGradient id="paint4_linear_1025_2844" x1="43.5508" y1="14.1843" x2="52.4134" y2="14.1843" gradientUnits="userSpaceOnUse">
<stop stop-color="#7764FB"/>
<stop offset="1" stop-color="#F364F3"/>
</linearGradient>
<linearGradient id="paint5_linear_1025_2844" x1="35.6426" y1="34.7636" x2="37.7505" y2="34.7636" gradientUnits="userSpaceOnUse">
<stop stop-color="#7764FB"/>
<stop offset="1" stop-color="#F364F3"/>
</linearGradient>
<linearGradient id="paint6_linear_1025_2844" x1="35.6445" y1="7.33588" x2="37.7463" y2="7.33588" gradientUnits="userSpaceOnUse">
<stop stop-color="#7764FB"/>
<stop offset="1" stop-color="#F364F3"/>
</linearGradient>
<linearGradient id="paint7_linear_1025_2844" x1="35.6523" y1="14.1911" x2="37.7389" y2="14.1911" gradientUnits="userSpaceOnUse">
<stop stop-color="#7764FB"/>
<stop offset="1" stop-color="#F364F3"/>
</linearGradient>
<linearGradient id="paint8_linear_1025_2844" x1="35.6523" y1="21.0471" x2="37.7508" y2="21.0471" gradientUnits="userSpaceOnUse">
<stop stop-color="#7764FB"/>
<stop offset="1" stop-color="#F364F3"/>
</linearGradient>
<linearGradient id="paint9_linear_1025_2844" x1="35.6562" y1="27.909" x2="37.7515" y2="27.909" gradientUnits="userSpaceOnUse">
<stop stop-color="#7764FB"/>
<stop offset="1" stop-color="#F364F3"/>
</linearGradient>
<clipPath id="clip0_1025_2844">
<rect width="72" height="41" fill="white" transform="translate(0.693359 0.554688)"/>
</clipPath>
</defs>
</svg>
