<svg width="37" height="37" viewBox="0 0 37 37" fill="none" xmlns="http://www.w3.org/2000/svg">
<rect x="0.84375" y="0.892578" width="35.3011" height="35.3011" rx="17.6506" fill="white"/>
<g clip-path="url(#clip0_79_20417)">
<path d="M18.2109 10.4199V26.5996" stroke="#FE9C69" stroke-width="1.47088" stroke-linecap="round" stroke-linejoin="round"/>
<path d="M21.8867 13.3633H16.3709C15.6882 13.3633 15.0335 13.6345 14.5508 14.1172C14.0681 14.5999 13.7969 15.2546 13.7969 15.9373C13.7969 16.62 14.0681 17.2747 14.5508 17.7574C15.0335 18.2402 15.6882 18.5114 16.3709 18.5114H20.0481C20.7308 18.5114 21.3855 18.7826 21.8682 19.2653C22.351 19.748 22.6222 20.4027 22.6222 21.0854C22.6222 21.7681 22.351 22.4228 21.8682 22.9055C21.3855 23.3882 20.7308 23.6594 20.0481 23.6594H13.7969" stroke="#FE9C69" stroke-width="1.47088" stroke-linecap="round" stroke-linejoin="round"/>
</g>
<defs>
<clipPath id="clip0_79_20417">
<rect width="17.6506" height="17.6506" fill="white" transform="translate(9.38281 9.68555)"/>
</clipPath>
</defs>
</svg>
