<svg width="20" height="20" viewBox="0 0 20 20" fill="none" xmlns="http://www.w3.org/2000/svg">
<path d="M10.2109 19.3555C15.1815 19.3555 19.2109 15.326 19.2109 10.3555C19.2109 5.38491 15.1815 1.35547 10.2109 1.35547C5.24037 1.35547 1.21094 5.38491 1.21094 10.3555C1.21094 15.326 5.24037 19.3555 10.2109 19.3555Z" stroke="#6B6B6B" stroke-linecap="round" stroke-linejoin="round"/>
<path d="M10.2109 16.3555C10.8323 16.3555 11.3359 15.8518 11.3359 15.2305C11.3359 14.6091 10.8323 14.1055 10.2109 14.1055C9.58962 14.1055 9.08594 14.6091 9.08594 15.2305C9.08594 15.8518 9.58962 16.3555 10.2109 16.3555Z" fill="#6B6B6B"/>
<path d="M10.2109 11.8555V11.1055C10.7301 11.1055 11.2376 10.9515 11.6693 10.6631C12.101 10.3746 12.4374 9.96467 12.6361 9.48501C12.8348 9.00536 12.8868 8.47756 12.7855 7.96836C12.6842 7.45916 12.4342 6.99143 12.0671 6.62432C11.7 6.2572 11.2322 6.00719 10.723 5.90591C10.2138 5.80462 9.68605 5.85661 9.20639 6.05529C8.72674 6.25397 8.31677 6.59042 8.02833 7.0221C7.73989 7.45378 7.58594 7.96129 7.58594 8.48047" stroke="#6B6B6B" stroke-linecap="round" stroke-linejoin="round"/>
</svg>
