<svg width="20" height="15" viewBox="0 0 20 15" fill="none" xmlns="http://www.w3.org/2000/svg">
<path d="M10.2109 10.785C11.9249 10.785 13.3143 9.39556 13.3143 7.68157C13.3143 5.96759 11.9249 4.57812 10.2109 4.57812C8.49688 4.57812 7.10742 5.96759 7.10742 7.68157C7.10742 9.39556 8.49688 10.785 10.2109 10.785Z" stroke="#6B6B6B" stroke-linecap="round" stroke-linejoin="round"/>
<path d="M15.4868 5.82032C16.2097 5.81911 16.9229 5.98684 17.5695 6.31013C18.2161 6.63343 18.7782 7.10334 19.211 7.68239" stroke="#6B6B6B" stroke-linecap="round" stroke-linejoin="round"/>
<path d="M1.21094 7.68239C1.64371 7.10334 2.20581 6.63343 2.8524 6.31013C3.49898 5.98684 4.21217 5.81911 4.93508 5.82032" stroke="#6B6B6B" stroke-linecap="round" stroke-linejoin="round"/>
<path d="M5.7417 13.5802C6.15044 12.7431 6.78607 12.0376 7.57618 11.5442C8.36629 11.0507 9.27912 10.7891 10.2107 10.7891C11.1422 10.7891 12.055 11.0507 12.8451 11.5442C13.6353 12.0376 14.2709 12.7431 14.6796 13.5802" stroke="#6B6B6B" stroke-linecap="round" stroke-linejoin="round"/>
<path d="M4.93499 5.82098C4.46376 5.82146 4.00213 5.68783 3.60403 5.43569C3.20593 5.18355 2.88781 4.82333 2.68684 4.39711C2.48586 3.97089 2.41033 3.49628 2.46907 3.02873C2.52782 2.56118 2.71841 2.12 3.01857 1.75674C3.31873 1.39349 3.71608 1.12316 4.16418 0.977334C4.61227 0.831513 5.09261 0.816225 5.54908 0.933257C6.00554 1.05029 6.41927 1.29481 6.74192 1.63824C7.06458 1.98167 7.28284 2.40984 7.37119 2.87271" stroke="#6B6B6B" stroke-linecap="round" stroke-linejoin="round"/>
<path d="M13.0508 2.87271C13.1391 2.40984 13.3574 1.98167 13.68 1.63824C14.0027 1.29481 14.4164 1.05029 14.8729 0.933257C15.3294 0.816225 15.8097 0.831513 16.2578 0.977334C16.7059 1.12316 17.1032 1.39349 17.4034 1.75674C17.7036 2.12 17.8942 2.56118 17.9529 3.02873C18.0116 3.49628 17.9361 3.97089 17.7351 4.39711C17.5342 4.82333 17.216 5.18355 16.8179 5.43569C16.4198 5.68783 15.9582 5.82146 15.487 5.82098" stroke="#6B6B6B" stroke-linecap="round" stroke-linejoin="round"/>
</svg>
