<svg width="20" height="20" viewBox="0 0 20 20" fill="none" xmlns="http://www.w3.org/2000/svg">
<path d="M10.2114 9.85601V0.855469" stroke="#6B6B6B" stroke-linecap="round" stroke-linejoin="round"/>
<path d="M18.0026 5.35547L2.42041 14.356" stroke="#6B6B6B" stroke-linecap="round" stroke-linejoin="round"/>
<path d="M1.36104 11.5061C1.25871 10.9621 1.20848 10.4095 1.21103 9.85598C1.20984 7.99455 1.78642 6.17863 2.8612 4.65883C3.93598 3.13903 5.45596 1.99028 7.21139 1.37109V8.1215L1.36104 11.5061Z" stroke="#6B6B6B" stroke-linecap="round" stroke-linejoin="round"/>
<path d="M10.2112 0.855469C11.7883 0.855647 13.3377 1.27023 14.7042 2.05769C16.0707 2.84516 17.2062 3.97785 17.9971 5.34232C18.788 6.70679 19.2065 8.25512 19.2107 9.83224C19.2149 11.4094 18.8046 12.9599 18.0209 14.3285C17.2372 15.6971 16.1076 16.8358 14.7453 17.6305C13.383 18.4252 11.8359 18.8479 10.2588 18.8564C8.68166 18.8649 7.13001 18.4589 5.75923 17.679C4.38844 16.8991 3.24666 15.7726 2.44824 14.4125" stroke="#6B6B6B" stroke-linecap="round" stroke-linejoin="round"/>
</svg>
