<svg width="17" height="17" viewBox="0 0 17 17" fill="none" xmlns="http://www.w3.org/2000/svg">
<g clip-path="url(#clip0_935_3956)">
<path d="M11.0417 6.625C10.8347 6.625 10.667 6.79274 10.667 6.99971V14.0817C10.667 14.2885 10.8347 14.4564 11.0417 14.4564C11.2487 14.4564 11.4164 14.2885 11.4164 14.0817V6.99971C11.4164 6.79274 11.2487 6.625 11.0417 6.625Z" fill="#6B6B6B"/>
<path d="M6.6208 6.625C6.41383 6.625 6.24609 6.79274 6.24609 6.99971V14.0817C6.24609 14.2885 6.41383 14.4564 6.6208 14.4564C6.82777 14.4564 6.99551 14.2885 6.99551 14.0817V6.99971C6.99551 6.79274 6.82777 6.625 6.6208 6.625Z" fill="#6B6B6B"/>
<path d="M3.39821 5.59148V14.8234C3.39821 15.3691 3.5983 15.8816 3.94783 16.2492C4.29575 16.6179 4.77994 16.8272 5.28667 16.8281H12.3762C12.8831 16.8272 13.3673 16.6179 13.7151 16.2492C14.0646 15.8816 14.2647 15.3691 14.2647 14.8234V5.59148C14.9595 5.40705 15.4097 4.7358 15.3168 4.02284C15.2237 3.31002 14.6164 2.77679 13.8974 2.77665H11.979V2.30826C11.9812 1.91438 11.8254 1.53616 11.5466 1.25792C11.2678 0.979813 10.889 0.824954 10.4951 0.828174H7.16781C6.77393 0.824954 6.39513 0.979813 6.11629 1.25792C5.83746 1.53616 5.68172 1.91438 5.68392 2.30826V2.77665H3.76545C3.04648 2.77679 2.4392 3.31002 2.34611 4.02284C2.25316 4.7358 2.70339 5.40705 3.39821 5.59148ZM12.3762 16.0787H5.28667C4.64601 16.0787 4.14762 15.5284 4.14762 14.8234V5.62441H13.5153V14.8234C13.5153 15.5284 13.0169 16.0787 12.3762 16.0787ZM6.43333 2.30826C6.43084 2.11315 6.50754 1.92536 6.64601 1.78763C6.78432 1.64989 6.97256 1.57422 7.16781 1.57759H10.4951C10.6903 1.57422 10.8786 1.64989 11.0169 1.78763C11.1554 1.92521 11.2321 2.11315 11.2296 2.30826V2.77665H6.43333V2.30826ZM3.76545 3.52606H13.8974C14.27 3.52606 14.5719 3.82802 14.5719 4.20053C14.5719 4.57304 14.27 4.875 13.8974 4.875H3.76545C3.39294 4.875 3.09098 4.57304 3.09098 4.20053C3.09098 3.82802 3.39294 3.52606 3.76545 3.52606Z" fill="#6B6B6B"/>
<path d="M8.83076 6.625C8.62379 6.625 8.45605 6.79274 8.45605 6.99971V14.0817C8.45605 14.2885 8.62379 14.4564 8.83076 14.4564C9.03773 14.4564 9.20547 14.2885 9.20547 14.0817V6.99971C9.20547 6.79274 9.03773 6.625 8.83076 6.625Z" fill="#6B6B6B"/>
</g>
<defs>
<clipPath id="clip0_935_3956">
<rect width="16" height="16" fill="white" transform="translate(0.834961 0.828125)"/>
</clipPath>
</defs>
</svg>
