<svg width="103" height="79" viewBox="0 0 103 79" fill="none" xmlns="http://www.w3.org/2000/svg">
<path d="M99.968 6.02871L79.8853 10.0325C77.8866 10.4335 77.2183 12.9542 78.765 14.2909L85.3086 19.9433L71.2539 36.5123L46.6583 19.886C45.0669 18.8103 42.9155 19.084 41.6488 20.5289L18.5935 46.7923C18.027 47.4352 18.0906 48.4218 18.7335 48.9884L22.139 51.9801C22.7819 52.5466 23.7685 52.4829 24.3351 51.84L45.1688 28.11L69.809 44.7681C71.4258 45.8566 73.6028 45.5638 74.8631 44.0743L91.0883 24.9465L97.8101 30.7517C99.3569 32.082 101.757 31.0572 101.858 29.0203L102.902 8.56847C102.985 6.97077 101.54 5.72953 99.9743 6.04143L99.968 6.02871Z" fill="url(#paint0_linear_639_2289)"/>
<path d="M26.9001 31.2933V67.5948H11.1777V31.2933C11.1777 28.9763 13.0555 27.0922 15.3789 27.0922H22.699C25.016 27.0922 26.9001 28.97 26.9001 31.2933ZM46.429 14.3615H39.1088C36.7919 14.3615 34.9077 16.2393 34.9077 18.5626V67.5948H50.6301V18.5626C50.6301 16.2457 48.7523 14.3615 46.429 14.3615ZM70.159 1.63086H62.8388C60.5218 1.63086 58.6377 3.50862 58.6377 5.83197V67.5948H74.3601V5.83197C74.3601 3.51498 72.4823 1.63086 70.159 1.63086Z" fill="url(#paint1_linear_639_2289)"/>
<path d="M70.159 1.63067C72.476 1.63067 74.3601 3.50843 74.3601 5.83178V67.5947H58.6377V5.83178C58.6377 3.5148 60.5155 1.63067 62.8389 1.63067H70.159ZM46.429 14.3613C48.746 14.3613 50.6302 16.2391 50.6302 18.5625V67.5947H34.9078V18.5625C34.9078 16.2455 36.7855 14.3613 39.1089 14.3613H46.429ZM22.6991 27.092C25.016 27.092 26.9002 28.9698 26.9002 31.2931V67.5947H11.1778V31.2931C11.1778 28.9761 13.0556 27.092 15.3789 27.092H22.6991ZM70.159 0.994141H62.8389C60.1718 0.994141 58.0012 3.16471 58.0012 5.83178V67.5947C58.0012 67.9448 58.2877 68.2312 58.6377 68.2312H74.3601C74.7102 68.2312 74.9967 67.9448 74.9967 67.5947V5.83178C74.9967 3.16471 72.8261 0.994141 70.159 0.994141ZM46.429 13.7248H39.1089C36.4418 13.7248 34.2712 15.8954 34.2712 18.5625V67.5947C34.2712 67.9448 34.5577 68.2312 34.9078 68.2312H50.6302C50.9803 68.2312 51.2667 67.9448 51.2667 67.5947V18.5625C51.2667 15.8954 49.0961 13.7248 46.429 13.7248ZM22.6991 26.4555H15.3789C12.7118 26.4555 10.5413 28.6261 10.5413 31.2931V67.5947C10.5413 67.9448 10.8277 68.2312 11.1778 68.2312H26.9002C27.2503 68.2312 27.5367 67.9448 27.5367 67.5947V31.2931C27.5367 28.6261 25.3661 26.4555 22.6991 26.4555Z" fill="url(#paint2_linear_639_2289)"/>
<g style="mix-blend-mode:soft-light">
<path d="M26.9001 31.2933V32.4327C26.9001 30.1157 25.0223 28.2316 22.699 28.2316H15.3789C13.0619 28.2316 11.1777 30.1094 11.1777 32.4327V31.2933C11.1777 28.9763 13.0555 27.0922 15.3789 27.0922H22.699C25.016 27.0922 26.9001 28.97 26.9001 31.2933ZM70.1653 1.63086H62.8452C60.5282 1.63086 58.6441 3.50862 58.6441 5.83197V6.97137C58.6441 4.65438 60.5218 2.77024 62.8452 2.77024H70.1653C72.4823 2.77024 74.3664 4.64802 74.3664 6.97137V5.83197C74.3664 3.51498 72.4887 1.63086 70.1653 1.63086ZM46.4353 14.3615H39.1152C36.7982 14.3615 34.9141 16.2393 34.9141 18.5626V19.702C34.9141 17.3851 36.7919 15.5009 39.1152 15.5009H46.4353C48.7523 15.5009 50.6365 17.3787 50.6365 19.702V18.5626C50.6365 16.2457 48.7587 14.3615 46.4353 14.3615Z" fill="white"/>
</g>
<g style="mix-blend-mode:overlay">
<path d="M11.1778 29.644C5.04797 29.644 0.0830078 29.1348 0.0830078 28.511C0.0830078 27.8872 5.04797 27.3779 11.1778 27.3779C17.3076 27.3779 22.2726 27.8872 22.2726 28.511C22.2726 29.1348 17.3076 29.644 11.1778 29.644Z" fill="url(#paint3_radial_639_2289)"/>
<path style="mix-blend-mode:hard-light" d="M11.1776 28.9055C10.0319 28.9055 9.10254 28.7273 9.10254 28.5109C9.10254 28.2944 10.0319 28.1162 11.1776 28.1162C12.3234 28.1162 13.2528 28.2944 13.2528 28.5109C13.2528 28.7273 12.3234 28.9055 11.1776 28.9055Z" fill="url(#paint4_radial_639_2289)"/>
<path d="M12.4382 28.5116C12.4382 34.5078 11.8717 39.3709 11.1715 39.3709C10.4713 39.3709 9.90479 34.5078 9.90479 28.5116C9.90479 22.5155 10.4713 17.6523 11.1715 17.6523C11.8717 17.6523 12.4382 22.5155 12.4382 28.5116Z" fill="url(#paint5_radial_639_2289)"/>
<path style="mix-blend-mode:hard-light" d="M11.6169 28.5116C11.6169 29.6574 11.4196 30.5867 11.1777 30.5867C10.9359 30.5867 10.7385 29.6574 10.7385 28.5116C10.7385 27.3658 10.9359 26.4365 11.1777 26.4365C11.4196 26.4365 11.6169 27.3658 11.6169 28.5116Z" fill="url(#paint6_radial_639_2289)"/>
<g opacity="0.5">
<path d="M11.1778 29.644C5.04797 29.644 0.0830078 29.1348 0.0830078 28.511C0.0830078 27.8872 5.04797 27.3779 11.1778 27.3779C17.3076 27.3779 22.2726 27.8872 22.2726 28.511C22.2726 29.1348 17.3076 29.644 11.1778 29.644Z" fill="url(#paint7_radial_639_2289)"/>
<path style="mix-blend-mode:hard-light" d="M11.1776 28.9055C10.0319 28.9055 9.10254 28.7273 9.10254 28.5109C9.10254 28.2944 10.0319 28.1162 11.1776 28.1162C12.3234 28.1162 13.2528 28.2944 13.2528 28.5109C13.2528 28.7273 12.3234 28.9055 11.1776 28.9055Z" fill="url(#paint8_radial_639_2289)"/>
<path d="M12.4382 28.5116C12.4382 34.5078 11.8717 39.3709 11.1715 39.3709C10.4713 39.3709 9.90479 34.5078 9.90479 28.5116C9.90479 22.5155 10.4713 17.6523 11.1715 17.6523C11.8717 17.6523 12.4382 22.5155 12.4382 28.5116Z" fill="url(#paint9_radial_639_2289)"/>
<path style="mix-blend-mode:hard-light" d="M11.6169 28.5116C11.6169 29.6574 11.4196 30.5867 11.1777 30.5867C10.9359 30.5867 10.7385 29.6574 10.7385 28.5116C10.7385 27.3658 10.9359 26.4365 11.1777 26.4365C11.4196 26.4365 11.6169 27.3658 11.6169 28.5116Z" fill="url(#paint10_radial_639_2289)"/>
</g>
</g>
<g style="mix-blend-mode:overlay">
<path d="M74.3602 68.7211C68.2303 68.7211 63.2654 68.2119 63.2654 67.5881C63.2654 66.9643 68.2303 66.4551 74.3602 66.4551C80.49 66.4551 85.4549 66.9643 85.4549 67.5881C85.4549 68.2119 80.49 68.7211 74.3602 68.7211Z" fill="url(#paint11_radial_639_2289)"/>
<path style="mix-blend-mode:hard-light" d="M74.36 67.9827C73.2143 67.9827 72.2849 67.8044 72.2849 67.588C72.2849 67.3716 73.2143 67.1934 74.36 67.1934C75.5058 67.1934 76.4351 67.3716 76.4351 67.588C76.4351 67.8044 75.5058 67.9827 74.36 67.9827Z" fill="url(#paint12_radial_639_2289)"/>
<path d="M75.6269 67.5878C75.6269 73.5839 75.0604 78.447 74.3602 78.447C73.66 78.447 73.0935 73.5839 73.0935 67.5878C73.0935 61.5916 73.66 56.7285 74.3602 56.7285C75.0604 56.7285 75.6269 61.5916 75.6269 67.5878Z" fill="url(#paint13_radial_639_2289)"/>
<path style="mix-blend-mode:hard-light" d="M74.7993 67.5878C74.7993 68.7336 74.602 69.6629 74.3601 69.6629C74.1182 69.6629 73.9209 68.7336 73.9209 67.5878C73.9209 66.442 74.1182 65.5127 74.3601 65.5127C74.602 65.5127 74.7993 66.442 74.7993 67.5878Z" fill="url(#paint14_radial_639_2289)"/>
<g opacity="0.5">
<path d="M74.3602 68.7211C68.2303 68.7211 63.2654 68.2119 63.2654 67.5881C63.2654 66.9643 68.2303 66.4551 74.3602 66.4551C80.49 66.4551 85.4549 66.9643 85.4549 67.5881C85.4549 68.2119 80.49 68.7211 74.3602 68.7211Z" fill="url(#paint15_radial_639_2289)"/>
<path style="mix-blend-mode:hard-light" d="M74.36 67.9827C73.2143 67.9827 72.2849 67.8044 72.2849 67.588C72.2849 67.3716 73.2143 67.1934 74.36 67.1934C75.5058 67.1934 76.4351 67.3716 76.4351 67.588C76.4351 67.8044 75.5058 67.9827 74.36 67.9827Z" fill="url(#paint16_radial_639_2289)"/>
<path d="M75.6269 67.5878C75.6269 73.5839 75.0604 78.447 74.3602 78.447C73.66 78.447 73.0935 73.5839 73.0935 67.5878C73.0935 61.5916 73.66 56.7285 74.3602 56.7285C75.0604 56.7285 75.6269 61.5916 75.6269 67.5878Z" fill="url(#paint17_radial_639_2289)"/>
<path style="mix-blend-mode:hard-light" d="M74.7993 67.5878C74.7993 68.7336 74.602 69.6629 74.3601 69.6629C74.1182 69.6629 73.9209 68.7336 73.9209 67.5878C73.9209 66.442 74.1182 65.5127 74.3601 65.5127C74.602 65.5127 74.7993 66.442 74.7993 67.5878Z" fill="url(#paint18_radial_639_2289)"/>
</g>
</g>
<defs>
<linearGradient id="paint0_linear_639_2289" x1="101.858" y1="6.49337" x2="27.4732" y2="52.9285" gradientUnits="userSpaceOnUse">
<stop stop-color="#1CFFC2"/>
<stop offset="0.13" stop-color="#16F0B8"/>
<stop offset="0.51" stop-color="#0ACBA0"/>
<stop offset="0.81" stop-color="#02B591"/>
<stop offset="1" stop-color="#00AD8C"/>
</linearGradient>
<linearGradient id="paint1_linear_639_2289" x1="42.7689" y1="1.63086" x2="42.7689" y2="67.5885" gradientUnits="userSpaceOnUse">
<stop stop-color="white" stop-opacity="0.9"/>
<stop offset="0.03" stop-color="white" stop-opacity="0.79"/>
<stop offset="0.07" stop-color="white" stop-opacity="0.69"/>
<stop offset="0.11" stop-color="white" stop-opacity="0.6"/>
<stop offset="0.15" stop-color="white" stop-opacity="0.55"/>
<stop offset="0.2" stop-color="white" stop-opacity="0.51"/>
<stop offset="0.28" stop-color="white" stop-opacity="0.5"/>
<stop offset="0.46" stop-color="#FDFDFD" stop-opacity="0.48"/>
<stop offset="0.67" stop-color="#F9F9F9" stop-opacity="0.43"/>
<stop offset="0.89" stop-color="#F3F3F3" stop-opacity="0.35"/>
<stop offset="1" stop-color="#EFEFEF" stop-opacity="0.3"/>
</linearGradient>
<linearGradient id="paint2_linear_639_2289" x1="42.769" y1="68.2248" x2="42.769" y2="0.994141" gradientUnits="userSpaceOnUse">
<stop stop-color="white" stop-opacity="0.9"/>
<stop offset="0.03" stop-color="white" stop-opacity="0.83"/>
<stop offset="0.11" stop-color="white" stop-opacity="0.68"/>
<stop offset="0.17" stop-color="white" stop-opacity="0.58"/>
<stop offset="0.23" stop-color="white" stop-opacity="0.52"/>
<stop offset="0.28" stop-color="white" stop-opacity="0.5"/>
<stop offset="0.46" stop-color="#FDFDFD" stop-opacity="0.48"/>
<stop offset="0.67" stop-color="#F9F9F9" stop-opacity="0.43"/>
<stop offset="0.89" stop-color="#F3F3F3" stop-opacity="0.35"/>
<stop offset="1" stop-color="#EFEFEF" stop-opacity="0.3"/>
</linearGradient>
<radialGradient id="paint3_radial_639_2289" cx="0" cy="0" r="1" gradientUnits="userSpaceOnUse" gradientTransform="translate(12.7039 65.3319) rotate(90) scale(1.13806 11.0811)">
<stop stop-color="white"/>
<stop offset="0.05" stop-color="white" stop-opacity="0.89"/>
<stop offset="0.15" stop-color="white" stop-opacity="0.69"/>
<stop offset="0.26" stop-color="white" stop-opacity="0.5"/>
<stop offset="0.37" stop-color="white" stop-opacity="0.35"/>
<stop offset="0.48" stop-color="white" stop-opacity="0.22"/>
<stop offset="0.6" stop-color="white" stop-opacity="0.12"/>
<stop offset="0.72" stop-color="white" stop-opacity="0.05"/>
<stop offset="0.85" stop-color="white" stop-opacity="0.01"/>
<stop offset="1" stop-color="white" stop-opacity="0"/>
</radialGradient>
<radialGradient id="paint4_radial_639_2289" cx="0" cy="0" r="1" gradientUnits="userSpaceOnUse" gradientTransform="translate(11.1776 65.3291) rotate(90) scale(0.394266 2.07511)">
<stop stop-color="white"/>
<stop offset="0.05" stop-color="white" stop-opacity="0.89"/>
<stop offset="0.15" stop-color="white" stop-opacity="0.69"/>
<stop offset="0.26" stop-color="white" stop-opacity="0.5"/>
<stop offset="0.37" stop-color="white" stop-opacity="0.35"/>
<stop offset="0.48" stop-color="white" stop-opacity="0.22"/>
<stop offset="0.6" stop-color="white" stop-opacity="0.12"/>
<stop offset="0.72" stop-color="white" stop-opacity="0.05"/>
<stop offset="0.85" stop-color="white" stop-opacity="0.01"/>
<stop offset="1" stop-color="white" stop-opacity="0"/>
</radialGradient>
<radialGradient id="paint5_radial_639_2289" cx="0" cy="0" r="1" gradientUnits="userSpaceOnUse" gradientTransform="translate(-9.57078 26.3103) scale(1.25786 10.8415)">
<stop stop-color="white"/>
<stop offset="0.05" stop-color="white" stop-opacity="0.89"/>
<stop offset="0.15" stop-color="white" stop-opacity="0.69"/>
<stop offset="0.26" stop-color="white" stop-opacity="0.5"/>
<stop offset="0.37" stop-color="white" stop-opacity="0.35"/>
<stop offset="0.48" stop-color="white" stop-opacity="0.22"/>
<stop offset="0.6" stop-color="white" stop-opacity="0.12"/>
<stop offset="0.72" stop-color="white" stop-opacity="0.05"/>
<stop offset="0.85" stop-color="white" stop-opacity="0.01"/>
<stop offset="1" stop-color="white" stop-opacity="0"/>
</radialGradient>
<radialGradient id="paint6_radial_639_2289" cx="0" cy="0" r="1" gradientUnits="userSpaceOnUse" gradientTransform="translate(-9.57225 28.518) scale(0.435773 2.0751)">
<stop stop-color="white"/>
<stop offset="0.05" stop-color="white" stop-opacity="0.89"/>
<stop offset="0.15" stop-color="white" stop-opacity="0.69"/>
<stop offset="0.26" stop-color="white" stop-opacity="0.5"/>
<stop offset="0.37" stop-color="white" stop-opacity="0.35"/>
<stop offset="0.48" stop-color="white" stop-opacity="0.22"/>
<stop offset="0.6" stop-color="white" stop-opacity="0.12"/>
<stop offset="0.72" stop-color="white" stop-opacity="0.05"/>
<stop offset="0.85" stop-color="white" stop-opacity="0.01"/>
<stop offset="1" stop-color="white" stop-opacity="0"/>
</radialGradient>
<radialGradient id="paint7_radial_639_2289" cx="0" cy="0" r="1" gradientUnits="userSpaceOnUse" gradientTransform="translate(12.7039 65.3319) rotate(90) scale(1.13806 11.0811)">
<stop stop-color="white"/>
<stop offset="0.05" stop-color="white" stop-opacity="0.89"/>
<stop offset="0.15" stop-color="white" stop-opacity="0.69"/>
<stop offset="0.26" stop-color="white" stop-opacity="0.5"/>
<stop offset="0.37" stop-color="white" stop-opacity="0.35"/>
<stop offset="0.48" stop-color="white" stop-opacity="0.22"/>
<stop offset="0.6" stop-color="white" stop-opacity="0.12"/>
<stop offset="0.72" stop-color="white" stop-opacity="0.05"/>
<stop offset="0.85" stop-color="white" stop-opacity="0.01"/>
<stop offset="1" stop-color="white" stop-opacity="0"/>
</radialGradient>
<radialGradient id="paint8_radial_639_2289" cx="0" cy="0" r="1" gradientUnits="userSpaceOnUse" gradientTransform="translate(11.1776 65.3291) rotate(90) scale(0.394266 2.07511)">
<stop stop-color="white"/>
<stop offset="0.05" stop-color="white" stop-opacity="0.89"/>
<stop offset="0.15" stop-color="white" stop-opacity="0.69"/>
<stop offset="0.26" stop-color="white" stop-opacity="0.5"/>
<stop offset="0.37" stop-color="white" stop-opacity="0.35"/>
<stop offset="0.48" stop-color="white" stop-opacity="0.22"/>
<stop offset="0.6" stop-color="white" stop-opacity="0.12"/>
<stop offset="0.72" stop-color="white" stop-opacity="0.05"/>
<stop offset="0.85" stop-color="white" stop-opacity="0.01"/>
<stop offset="1" stop-color="white" stop-opacity="0"/>
</radialGradient>
<radialGradient id="paint9_radial_639_2289" cx="0" cy="0" r="1" gradientUnits="userSpaceOnUse" gradientTransform="translate(-9.57078 26.3103) scale(1.25786 10.8415)">
<stop stop-color="white"/>
<stop offset="0.05" stop-color="white" stop-opacity="0.89"/>
<stop offset="0.15" stop-color="white" stop-opacity="0.69"/>
<stop offset="0.26" stop-color="white" stop-opacity="0.5"/>
<stop offset="0.37" stop-color="white" stop-opacity="0.35"/>
<stop offset="0.48" stop-color="white" stop-opacity="0.22"/>
<stop offset="0.6" stop-color="white" stop-opacity="0.12"/>
<stop offset="0.72" stop-color="white" stop-opacity="0.05"/>
<stop offset="0.85" stop-color="white" stop-opacity="0.01"/>
<stop offset="1" stop-color="white" stop-opacity="0"/>
</radialGradient>
<radialGradient id="paint10_radial_639_2289" cx="0" cy="0" r="1" gradientUnits="userSpaceOnUse" gradientTransform="translate(-9.57225 28.518) scale(0.435773 2.0751)">
<stop stop-color="white"/>
<stop offset="0.05" stop-color="white" stop-opacity="0.89"/>
<stop offset="0.15" stop-color="white" stop-opacity="0.69"/>
<stop offset="0.26" stop-color="white" stop-opacity="0.5"/>
<stop offset="0.37" stop-color="white" stop-opacity="0.35"/>
<stop offset="0.48" stop-color="white" stop-opacity="0.22"/>
<stop offset="0.6" stop-color="white" stop-opacity="0.12"/>
<stop offset="0.72" stop-color="white" stop-opacity="0.05"/>
<stop offset="0.85" stop-color="white" stop-opacity="0.01"/>
<stop offset="1" stop-color="white" stop-opacity="0"/>
</radialGradient>
<radialGradient id="paint11_radial_639_2289" cx="0" cy="0" r="1" gradientUnits="userSpaceOnUse" gradientTransform="translate(75.8108 104.699) rotate(90) scale(1.13806 11.0811)">
<stop stop-color="white"/>
<stop offset="0.05" stop-color="white" stop-opacity="0.89"/>
<stop offset="0.15" stop-color="white" stop-opacity="0.69"/>
<stop offset="0.26" stop-color="white" stop-opacity="0.5"/>
<stop offset="0.37" stop-color="white" stop-opacity="0.35"/>
<stop offset="0.48" stop-color="white" stop-opacity="0.22"/>
<stop offset="0.6" stop-color="white" stop-opacity="0.12"/>
<stop offset="0.72" stop-color="white" stop-opacity="0.05"/>
<stop offset="0.85" stop-color="white" stop-opacity="0.01"/>
<stop offset="1" stop-color="white" stop-opacity="0"/>
</radialGradient>
<radialGradient id="paint12_radial_639_2289" cx="0" cy="0" r="1" gradientUnits="userSpaceOnUse" gradientTransform="translate(74.36 104.696) rotate(90) scale(0.394266 2.07511)">
<stop stop-color="white"/>
<stop offset="0.05" stop-color="white" stop-opacity="0.89"/>
<stop offset="0.15" stop-color="white" stop-opacity="0.69"/>
<stop offset="0.26" stop-color="white" stop-opacity="0.5"/>
<stop offset="0.37" stop-color="white" stop-opacity="0.35"/>
<stop offset="0.48" stop-color="white" stop-opacity="0.22"/>
<stop offset="0.6" stop-color="white" stop-opacity="0.12"/>
<stop offset="0.72" stop-color="white" stop-opacity="0.05"/>
<stop offset="0.85" stop-color="white" stop-opacity="0.01"/>
<stop offset="1" stop-color="white" stop-opacity="0"/>
</radialGradient>
<radialGradient id="paint13_radial_639_2289" cx="0" cy="0" r="1" gradientUnits="userSpaceOnUse" gradientTransform="translate(53.3435 65.3092) scale(1.25785 10.8415)">
<stop stop-color="white"/>
<stop offset="0.05" stop-color="white" stop-opacity="0.89"/>
<stop offset="0.15" stop-color="white" stop-opacity="0.69"/>
<stop offset="0.26" stop-color="white" stop-opacity="0.5"/>
<stop offset="0.37" stop-color="white" stop-opacity="0.35"/>
<stop offset="0.48" stop-color="white" stop-opacity="0.22"/>
<stop offset="0.6" stop-color="white" stop-opacity="0.12"/>
<stop offset="0.72" stop-color="white" stop-opacity="0.05"/>
<stop offset="0.85" stop-color="white" stop-opacity="0.01"/>
<stop offset="1" stop-color="white" stop-opacity="0"/>
</radialGradient>
<radialGradient id="paint14_radial_639_2289" cx="0" cy="0" r="1" gradientUnits="userSpaceOnUse" gradientTransform="translate(53.3419 67.5878) scale(0.435773 2.07511)">
<stop stop-color="white"/>
<stop offset="0.05" stop-color="white" stop-opacity="0.89"/>
<stop offset="0.15" stop-color="white" stop-opacity="0.69"/>
<stop offset="0.26" stop-color="white" stop-opacity="0.5"/>
<stop offset="0.37" stop-color="white" stop-opacity="0.35"/>
<stop offset="0.48" stop-color="white" stop-opacity="0.22"/>
<stop offset="0.6" stop-color="white" stop-opacity="0.12"/>
<stop offset="0.72" stop-color="white" stop-opacity="0.05"/>
<stop offset="0.85" stop-color="white" stop-opacity="0.01"/>
<stop offset="1" stop-color="white" stop-opacity="0"/>
</radialGradient>
<radialGradient id="paint15_radial_639_2289" cx="0" cy="0" r="1" gradientUnits="userSpaceOnUse" gradientTransform="translate(75.8108 104.699) rotate(90) scale(1.13806 11.0811)">
<stop stop-color="white"/>
<stop offset="0.05" stop-color="white" stop-opacity="0.89"/>
<stop offset="0.15" stop-color="white" stop-opacity="0.69"/>
<stop offset="0.26" stop-color="white" stop-opacity="0.5"/>
<stop offset="0.37" stop-color="white" stop-opacity="0.35"/>
<stop offset="0.48" stop-color="white" stop-opacity="0.22"/>
<stop offset="0.6" stop-color="white" stop-opacity="0.12"/>
<stop offset="0.72" stop-color="white" stop-opacity="0.05"/>
<stop offset="0.85" stop-color="white" stop-opacity="0.01"/>
<stop offset="1" stop-color="white" stop-opacity="0"/>
</radialGradient>
<radialGradient id="paint16_radial_639_2289" cx="0" cy="0" r="1" gradientUnits="userSpaceOnUse" gradientTransform="translate(74.36 104.696) rotate(90) scale(0.394266 2.07511)">
<stop stop-color="white"/>
<stop offset="0.05" stop-color="white" stop-opacity="0.89"/>
<stop offset="0.15" stop-color="white" stop-opacity="0.69"/>
<stop offset="0.26" stop-color="white" stop-opacity="0.5"/>
<stop offset="0.37" stop-color="white" stop-opacity="0.35"/>
<stop offset="0.48" stop-color="white" stop-opacity="0.22"/>
<stop offset="0.6" stop-color="white" stop-opacity="0.12"/>
<stop offset="0.72" stop-color="white" stop-opacity="0.05"/>
<stop offset="0.85" stop-color="white" stop-opacity="0.01"/>
<stop offset="1" stop-color="white" stop-opacity="0"/>
</radialGradient>
<radialGradient id="paint17_radial_639_2289" cx="0" cy="0" r="1" gradientUnits="userSpaceOnUse" gradientTransform="translate(53.3435 65.3092) scale(1.25785 10.8415)">
<stop stop-color="white"/>
<stop offset="0.05" stop-color="white" stop-opacity="0.89"/>
<stop offset="0.15" stop-color="white" stop-opacity="0.69"/>
<stop offset="0.26" stop-color="white" stop-opacity="0.5"/>
<stop offset="0.37" stop-color="white" stop-opacity="0.35"/>
<stop offset="0.48" stop-color="white" stop-opacity="0.22"/>
<stop offset="0.6" stop-color="white" stop-opacity="0.12"/>
<stop offset="0.72" stop-color="white" stop-opacity="0.05"/>
<stop offset="0.85" stop-color="white" stop-opacity="0.01"/>
<stop offset="1" stop-color="white" stop-opacity="0"/>
</radialGradient>
<radialGradient id="paint18_radial_639_2289" cx="0" cy="0" r="1" gradientUnits="userSpaceOnUse" gradientTransform="translate(53.3419 67.5878) scale(0.435773 2.07511)">
<stop stop-color="white"/>
<stop offset="0.05" stop-color="white" stop-opacity="0.89"/>
<stop offset="0.15" stop-color="white" stop-opacity="0.69"/>
<stop offset="0.26" stop-color="white" stop-opacity="0.5"/>
<stop offset="0.37" stop-color="white" stop-opacity="0.35"/>
<stop offset="0.48" stop-color="white" stop-opacity="0.22"/>
<stop offset="0.6" stop-color="white" stop-opacity="0.12"/>
<stop offset="0.72" stop-color="white" stop-opacity="0.05"/>
<stop offset="0.85" stop-color="white" stop-opacity="0.01"/>
<stop offset="1" stop-color="white" stop-opacity="0"/>
</radialGradient>
</defs>
</svg>
