<svg width="104" height="91" viewBox="0 0 104 91" fill="none" xmlns="http://www.w3.org/2000/svg">
<path d="M53.0604 6.44226C44.8106 14.7064 44.8106 28.1016 53.0604 36.3658C60.3295 43.6476 71.581 44.5105 79.7976 38.9479L96.5358 55.7152C98.1128 57.295 100.671 57.295 102.248 55.7152C103.825 54.1354 103.825 51.5732 102.248 49.9934L85.5095 33.2261C91.0624 24.9951 90.201 13.724 82.9319 6.44226C74.6821 -1.8219 61.3102 -1.8219 53.0604 6.44226ZM78.7242 32.1507C72.8002 38.085 63.192 38.085 57.2681 32.1507C51.3442 26.2165 51.3442 16.5916 57.2681 10.6573C63.192 4.72305 72.8002 4.72305 78.7242 10.6573C84.6481 16.5916 84.6481 26.2165 78.7242 32.1507Z" fill="url(#paint0_linear_639_2224)"/>
<path d="M62.569 18.9482H14.6408C12.5548 18.9482 10.8638 20.6422 10.8638 22.7318V85.566C10.8638 87.6556 12.5548 89.3496 14.6408 89.3496H62.569C64.655 89.3496 66.3461 87.6556 66.3461 85.566V22.7318C66.3461 20.6422 64.655 18.9482 62.569 18.9482Z" fill="url(#paint1_linear_639_2224)"/>
<path d="M62.5625 18.9413C64.6498 18.9413 66.3395 20.634 66.3395 22.7249V85.5524C66.3461 87.6433 64.6564 89.336 62.5691 89.336H14.6475V89.3426C12.5602 89.3426 10.8705 87.65 10.8705 85.5591V22.7382C10.8638 20.6473 12.5536 18.9546 14.6408 18.9546H62.5691V18.948M62.5691 18.2842H14.6342C13.4481 18.2908 12.3349 18.7555 11.4933 19.5985C10.6518 20.4415 10.1946 21.5567 10.1946 22.7448V85.5723C10.2012 88.0283 12.1957 90.0197 14.6475 90.0197H62.5757C65.0275 90.0131 67.0154 88.0151 67.0154 85.5591V22.7316C67.0088 20.2755 65.0142 18.2842 62.5625 18.2842H62.5691Z" fill="url(#paint2_linear_639_2224)"/>
<path d="M55.3463 36.1007H21.8502C20.9822 36.1007 20.2798 35.4037 20.2798 34.5341C20.2798 33.6646 20.9822 32.9609 21.8502 32.9609H55.3463C56.2144 32.9609 56.9168 33.6579 56.9168 34.5275C56.9168 35.397 56.2144 36.1007 55.3463 36.1007Z" fill="white"/>
<path d="M55.3529 49.1768H21.8568C20.9888 49.1768 20.2864 48.4798 20.2864 47.6103C20.2864 46.7407 20.9888 46.0371 21.8568 46.0371H55.3529C56.221 46.0371 56.9234 46.7341 56.9234 47.6036C56.9234 48.4732 56.221 49.1768 55.3529 49.1768Z" fill="white"/>
<path d="M55.3529 62.254H21.8568C20.9888 62.254 20.2864 61.557 20.2864 60.6874C20.2864 59.8179 20.9888 59.1143 21.8568 59.1143H55.3529C56.221 59.1143 56.9234 59.8112 56.9234 60.6808C56.9234 61.5504 56.221 62.254 55.3529 62.254Z" fill="white"/>
<path d="M55.3529 75.3301H21.8568C20.9888 75.3301 20.2864 74.6332 20.2864 73.7636C20.2864 72.8941 20.9888 72.1904 21.8568 72.1904H55.3529C56.221 72.1904 56.9234 72.8874 56.9234 73.757C56.9234 74.6265 56.221 75.3301 55.3529 75.3301Z" fill="white"/>
<g style="mix-blend-mode:soft-light">
<path d="M14.6342 20.7204H62.5625C64.6497 20.7137 66.3395 22.4064 66.3395 24.4973V22.725C66.3395 20.6341 64.6497 18.9414 62.5625 18.9414H14.6342C12.5469 18.948 10.8572 20.6473 10.8572 22.7383V24.5039C10.8572 22.413 12.5469 20.7204 14.6342 20.7204Z" fill="white"/>
</g>
<g style="mix-blend-mode:overlay">
<g opacity="0.6">
<path style="mix-blend-mode:hard-light" d="M10.8572 64.0991C8.29279 64.0991 6.21875 52.443 6.21875 38.072C6.21875 23.701 8.29942 12.0449 10.8572 12.0449C13.4149 12.0449 15.4956 23.701 15.4956 38.072C15.4956 52.443 13.4149 64.0991 10.8572 64.0991Z" fill="url(#paint3_radial_639_2224)"/>
<path d="M10.8573 59.3328C9.57842 59.3328 8.53809 49.8141 8.53809 38.0717C8.53809 26.3293 9.57842 16.8105 10.8573 16.8105C12.1362 16.8105 13.1765 26.3293 13.1765 38.0717C13.1765 49.8141 12.1362 59.3328 10.8573 59.3328Z" fill="url(#paint4_radial_639_2224)"/>
</g>
<path d="M10.8572 31.1553C16.3703 31.1553 20.8364 31.6133 20.8364 32.1709C20.8364 32.7285 16.3703 33.1865 10.8572 33.1865C5.34408 33.1865 0.87793 32.7285 0.87793 32.1709C0.87793 31.6133 5.34408 31.1553 10.8572 31.1553Z" fill="url(#paint5_radial_639_2224)"/>
<path style="mix-blend-mode:hard-light" d="M10.8572 31.8193C11.8909 31.8193 12.7258 31.9786 12.7258 32.1711C12.7258 32.3636 11.8909 32.523 10.8572 32.523C9.82344 32.523 8.98853 32.3636 8.98853 32.1711C8.98853 31.9786 9.82344 31.8193 10.8572 31.8193Z" fill="url(#paint6_radial_639_2224)"/>
<path d="M9.71753 32.171C9.71753 26.7677 10.2278 22.3867 10.8573 22.3867C11.4868 22.3867 11.997 26.7677 11.997 32.171C11.997 37.5742 11.4868 41.9552 10.8573 41.9552C10.2278 41.9552 9.71753 37.5742 9.71753 32.171Z" fill="url(#paint7_radial_639_2224)"/>
<path style="mix-blend-mode:hard-light" d="M10.4597 32.1707C10.4597 31.1352 10.6386 30.2988 10.8507 30.2988C11.0627 30.2988 11.2416 31.1352 11.2416 32.1707C11.2416 33.2062 11.0627 34.0426 10.8507 34.0426C10.6386 34.0426 10.4597 33.2062 10.4597 32.1707Z" fill="url(#paint8_radial_639_2224)"/>
<g opacity="0.5">
<path d="M10.8572 31.1553C16.3703 31.1553 20.8364 31.6133 20.8364 32.1709C20.8364 32.7285 16.3703 33.1865 10.8572 33.1865C5.34408 33.1865 0.87793 32.7285 0.87793 32.1709C0.87793 31.6133 5.34408 31.1553 10.8572 31.1553Z" fill="url(#paint9_radial_639_2224)"/>
<path style="mix-blend-mode:hard-light" d="M10.8572 31.8193C11.8909 31.8193 12.7258 31.9786 12.7258 32.1711C12.7258 32.3636 11.8909 32.523 10.8572 32.523C9.82344 32.523 8.98853 32.3636 8.98853 32.1711C8.98853 31.9786 9.82344 31.8193 10.8572 31.8193Z" fill="url(#paint10_radial_639_2224)"/>
<path d="M9.71753 32.171C9.71753 26.7677 10.2278 22.3867 10.8573 22.3867C11.4868 22.3867 11.997 26.7677 11.997 32.171C11.997 37.5742 11.4868 41.9552 10.8573 41.9552C10.2278 41.9552 9.71753 37.5742 9.71753 32.171Z" fill="url(#paint11_radial_639_2224)"/>
<path style="mix-blend-mode:hard-light" d="M10.4597 32.1707C10.4597 31.1352 10.6386 30.2988 10.8507 30.2988C11.0627 30.2988 11.2416 31.1352 11.2416 32.1707C11.2416 33.2062 11.0627 34.0426 10.8507 34.0426C10.6386 34.0426 10.4597 33.2062 10.4597 32.1707Z" fill="url(#paint12_radial_639_2224)"/>
</g>
</g>
<defs>
<linearGradient id="paint0_linear_639_2224" x1="52.4971" y1="4.96201" x2="100.328" y2="55.5325" gradientUnits="userSpaceOnUse">
<stop stop-color="#FB64F3"/>
<stop offset="0.2" stop-color="#D364F5"/>
<stop offset="0.45" stop-color="#AB64F7"/>
<stop offset="0.67" stop-color="#8E64F9"/>
<stop offset="0.86" stop-color="#7D64FA"/>
<stop offset="1" stop-color="#7764FB"/>
</linearGradient>
<linearGradient id="paint1_linear_639_2224" x1="38.5971" y1="20.0825" x2="38.6017" y2="84.0584" gradientUnits="userSpaceOnUse">
<stop stop-color="white" stop-opacity="0.9"/>
<stop offset="0.03" stop-color="white" stop-opacity="0.79"/>
<stop offset="0.07" stop-color="white" stop-opacity="0.69"/>
<stop offset="0.11" stop-color="white" stop-opacity="0.6"/>
<stop offset="0.15" stop-color="white" stop-opacity="0.55"/>
<stop offset="0.2" stop-color="white" stop-opacity="0.51"/>
<stop offset="0.28" stop-color="white" stop-opacity="0.5"/>
<stop offset="0.46" stop-color="#FDFDFD" stop-opacity="0.48"/>
<stop offset="0.67" stop-color="#F9F9F9" stop-opacity="0.43"/>
<stop offset="0.89" stop-color="#F3F3F3" stop-opacity="0.35"/>
<stop offset="1" stop-color="#EFEFEF" stop-opacity="0.3"/>
</linearGradient>
<linearGradient id="paint2_linear_639_2224" x1="38.6017" y1="90.0131" x2="38.6017" y2="18.2775" gradientUnits="userSpaceOnUse">
<stop stop-color="white" stop-opacity="0.9"/>
<stop offset="0.03" stop-color="white" stop-opacity="0.83"/>
<stop offset="0.11" stop-color="white" stop-opacity="0.68"/>
<stop offset="0.17" stop-color="white" stop-opacity="0.58"/>
<stop offset="0.23" stop-color="white" stop-opacity="0.52"/>
<stop offset="0.28" stop-color="white" stop-opacity="0.5"/>
<stop offset="0.46" stop-color="#FDFDFD" stop-opacity="0.48"/>
<stop offset="0.67" stop-color="#F9F9F9" stop-opacity="0.43"/>
<stop offset="0.89" stop-color="#F3F3F3" stop-opacity="0.35"/>
<stop offset="1" stop-color="#EFEFEF" stop-opacity="0.3"/>
</linearGradient>
<radialGradient id="paint3_radial_639_2224" cx="0" cy="0" r="1" gradientUnits="userSpaceOnUse" gradientTransform="translate(27.6377 38.4406) rotate(90) scale(26.0227 4.65964)">
<stop stop-color="white" stop-opacity="0.6"/>
<stop offset="0.15" stop-color="white" stop-opacity="0.45"/>
<stop offset="0.33" stop-color="white" stop-opacity="0.29"/>
<stop offset="0.52" stop-color="white" stop-opacity="0.16"/>
<stop offset="0.69" stop-color="white" stop-opacity="0.07"/>
<stop offset="0.86" stop-color="white" stop-opacity="0.02"/>
<stop offset="1" stop-color="white" stop-opacity="0"/>
</radialGradient>
<radialGradient id="paint4_radial_639_2224" cx="0" cy="0" r="1" gradientUnits="userSpaceOnUse" gradientTransform="translate(22.9836 36.1782) rotate(90) scale(21.2595 2.32525)">
<stop stop-color="white" stop-opacity="0.96"/>
<stop offset="0.05" stop-color="white" stop-opacity="0.78"/>
<stop offset="0.09" stop-color="white" stop-opacity="0.61"/>
<stop offset="0.14" stop-color="white" stop-opacity="0.47"/>
<stop offset="0.2" stop-color="white" stop-opacity="0.34"/>
<stop offset="0.25" stop-color="white" stop-opacity="0.23"/>
<stop offset="0.32" stop-color="white" stop-opacity="0.15"/>
<stop offset="0.4" stop-color="white" stop-opacity="0.08"/>
<stop offset="0.49" stop-color="white" stop-opacity="0.03"/>
<stop offset="0.63" stop-color="white" stop-opacity="0"/>
<stop offset="1" stop-color="white" stop-opacity="0"/>
</radialGradient>
<radialGradient id="paint5_radial_639_2224" cx="0" cy="0" r="1" gradientUnits="userSpaceOnUse" gradientTransform="translate(8.49622 -19.3253) rotate(-90) scale(1.02535 9.96633)">
<stop stop-color="white"/>
<stop offset="0.05" stop-color="white" stop-opacity="0.89"/>
<stop offset="0.15" stop-color="white" stop-opacity="0.69"/>
<stop offset="0.26" stop-color="white" stop-opacity="0.5"/>
<stop offset="0.37" stop-color="white" stop-opacity="0.35"/>
<stop offset="0.48" stop-color="white" stop-opacity="0.22"/>
<stop offset="0.6" stop-color="white" stop-opacity="0.12"/>
<stop offset="0.72" stop-color="white" stop-opacity="0.05"/>
<stop offset="0.85" stop-color="white" stop-opacity="0.01"/>
<stop offset="1" stop-color="white" stop-opacity="0"/>
</radialGradient>
<radialGradient id="paint6_radial_639_2224" cx="0" cy="0" r="1" gradientUnits="userSpaceOnUse" gradientTransform="translate(10.8572 -19.3227) rotate(-90) scale(0.355659 1.86863)">
<stop stop-color="white"/>
<stop offset="0.05" stop-color="white" stop-opacity="0.89"/>
<stop offset="0.15" stop-color="white" stop-opacity="0.69"/>
<stop offset="0.26" stop-color="white" stop-opacity="0.5"/>
<stop offset="0.37" stop-color="white" stop-opacity="0.35"/>
<stop offset="0.48" stop-color="white" stop-opacity="0.22"/>
<stop offset="0.6" stop-color="white" stop-opacity="0.12"/>
<stop offset="0.72" stop-color="white" stop-opacity="0.05"/>
<stop offset="0.85" stop-color="white" stop-opacity="0.01"/>
<stop offset="1" stop-color="white" stop-opacity="0"/>
</radialGradient>
<radialGradient id="paint7_radial_639_2224" cx="0" cy="0" r="1" gradientUnits="userSpaceOnUse" gradientTransform="translate(29.9744 37.4783) rotate(180) scale(1.13131 9.76784)">
<stop stop-color="white"/>
<stop offset="0.05" stop-color="white" stop-opacity="0.89"/>
<stop offset="0.15" stop-color="white" stop-opacity="0.69"/>
<stop offset="0.26" stop-color="white" stop-opacity="0.5"/>
<stop offset="0.37" stop-color="white" stop-opacity="0.35"/>
<stop offset="0.48" stop-color="white" stop-opacity="0.22"/>
<stop offset="0.6" stop-color="white" stop-opacity="0.12"/>
<stop offset="0.72" stop-color="white" stop-opacity="0.05"/>
<stop offset="0.85" stop-color="white" stop-opacity="0.01"/>
<stop offset="1" stop-color="white" stop-opacity="0"/>
</radialGradient>
<radialGradient id="paint8_radial_639_2224" cx="0" cy="0" r="1" gradientUnits="userSpaceOnUse" gradientTransform="translate(29.9773 32.1707) rotate(180) scale(0.392412 1.87188)">
<stop stop-color="white"/>
<stop offset="0.05" stop-color="white" stop-opacity="0.89"/>
<stop offset="0.15" stop-color="white" stop-opacity="0.69"/>
<stop offset="0.26" stop-color="white" stop-opacity="0.5"/>
<stop offset="0.37" stop-color="white" stop-opacity="0.35"/>
<stop offset="0.48" stop-color="white" stop-opacity="0.22"/>
<stop offset="0.6" stop-color="white" stop-opacity="0.12"/>
<stop offset="0.72" stop-color="white" stop-opacity="0.05"/>
<stop offset="0.85" stop-color="white" stop-opacity="0.01"/>
<stop offset="1" stop-color="white" stop-opacity="0"/>
</radialGradient>
<radialGradient id="paint9_radial_639_2224" cx="0" cy="0" r="1" gradientUnits="userSpaceOnUse" gradientTransform="translate(8.49622 -19.3253) rotate(-90) scale(1.02535 9.96633)">
<stop stop-color="white"/>
<stop offset="0.05" stop-color="white" stop-opacity="0.89"/>
<stop offset="0.15" stop-color="white" stop-opacity="0.69"/>
<stop offset="0.26" stop-color="white" stop-opacity="0.5"/>
<stop offset="0.37" stop-color="white" stop-opacity="0.35"/>
<stop offset="0.48" stop-color="white" stop-opacity="0.22"/>
<stop offset="0.6" stop-color="white" stop-opacity="0.12"/>
<stop offset="0.72" stop-color="white" stop-opacity="0.05"/>
<stop offset="0.85" stop-color="white" stop-opacity="0.01"/>
<stop offset="1" stop-color="white" stop-opacity="0"/>
</radialGradient>
<radialGradient id="paint10_radial_639_2224" cx="0" cy="0" r="1" gradientUnits="userSpaceOnUse" gradientTransform="translate(10.8572 -19.3227) rotate(-90) scale(0.355659 1.86863)">
<stop stop-color="white"/>
<stop offset="0.05" stop-color="white" stop-opacity="0.89"/>
<stop offset="0.15" stop-color="white" stop-opacity="0.69"/>
<stop offset="0.26" stop-color="white" stop-opacity="0.5"/>
<stop offset="0.37" stop-color="white" stop-opacity="0.35"/>
<stop offset="0.48" stop-color="white" stop-opacity="0.22"/>
<stop offset="0.6" stop-color="white" stop-opacity="0.12"/>
<stop offset="0.72" stop-color="white" stop-opacity="0.05"/>
<stop offset="0.85" stop-color="white" stop-opacity="0.01"/>
<stop offset="1" stop-color="white" stop-opacity="0"/>
</radialGradient>
<radialGradient id="paint11_radial_639_2224" cx="0" cy="0" r="1" gradientUnits="userSpaceOnUse" gradientTransform="translate(29.9744 37.4783) rotate(180) scale(1.13131 9.76784)">
<stop stop-color="white"/>
<stop offset="0.05" stop-color="white" stop-opacity="0.89"/>
<stop offset="0.15" stop-color="white" stop-opacity="0.69"/>
<stop offset="0.26" stop-color="white" stop-opacity="0.5"/>
<stop offset="0.37" stop-color="white" stop-opacity="0.35"/>
<stop offset="0.48" stop-color="white" stop-opacity="0.22"/>
<stop offset="0.6" stop-color="white" stop-opacity="0.12"/>
<stop offset="0.72" stop-color="white" stop-opacity="0.05"/>
<stop offset="0.85" stop-color="white" stop-opacity="0.01"/>
<stop offset="1" stop-color="white" stop-opacity="0"/>
</radialGradient>
<radialGradient id="paint12_radial_639_2224" cx="0" cy="0" r="1" gradientUnits="userSpaceOnUse" gradientTransform="translate(29.9773 32.1707) rotate(180) scale(0.392412 1.87188)">
<stop stop-color="white"/>
<stop offset="0.05" stop-color="white" stop-opacity="0.89"/>
<stop offset="0.15" stop-color="white" stop-opacity="0.69"/>
<stop offset="0.26" stop-color="white" stop-opacity="0.5"/>
<stop offset="0.37" stop-color="white" stop-opacity="0.35"/>
<stop offset="0.48" stop-color="white" stop-opacity="0.22"/>
<stop offset="0.6" stop-color="white" stop-opacity="0.12"/>
<stop offset="0.72" stop-color="white" stop-opacity="0.05"/>
<stop offset="0.85" stop-color="white" stop-opacity="0.01"/>
<stop offset="1" stop-color="white" stop-opacity="0"/>
</radialGradient>
</defs>
</svg>
