<svg width="95" height="106" viewBox="0 0 95 106" fill="none" xmlns="http://www.w3.org/2000/svg">
<path d="M44.7452 23.0597V3.91742C44.7452 2.34008 46.0227 1.0625 47.6001 1.0625C49.1774 1.0625 50.455 2.34008 50.455 3.91742V23.0597C50.455 24.637 49.1774 25.9146 47.6001 25.9146C46.0227 25.9146 44.7452 24.637 44.7452 23.0597ZM83.2652 16.3934C82.1518 15.28 80.346 15.28 79.2254 16.3934L65.6932 29.9257C64.5797 31.0392 64.5797 32.8449 65.6932 33.9655C66.2499 34.5222 66.9778 34.8005 67.713 34.8005C68.4481 34.8005 69.1761 34.5222 69.7328 33.9655L83.2652 20.4331C84.3786 19.3197 84.3786 17.514 83.2652 16.3934ZM94.9846 47.5477C94.9846 45.9704 93.707 44.6928 92.1297 44.6928H72.9875C71.4101 44.6928 70.1325 45.9704 70.1325 47.5477C70.1325 48.3328 70.4537 49.0466 70.9676 49.5676C71.4815 50.0815 72.1952 50.4027 72.9875 50.4027H92.1297C93.707 50.4027 94.9846 49.1251 94.9846 47.5477ZM0.129883 46.3415C0.129883 47.9189 1.40746 49.1965 2.9848 49.1965H22.127C23.7044 49.1965 24.982 47.9189 24.982 46.3415C24.982 45.5564 24.6608 44.8427 24.1469 44.3217C23.633 43.8007 22.9193 43.4866 22.127 43.4866H2.9848C1.40746 43.4866 0.129883 44.7642 0.129883 46.3415ZM29.1145 28.9836L15.5822 15.4513C14.4687 14.3379 12.663 14.3379 11.5425 15.4513C10.429 16.5647 10.429 18.3705 11.5425 19.491L25.0748 33.0233C25.6315 33.58 26.3595 33.8584 27.0946 33.8584C27.8298 33.8584 28.5578 33.58 29.1145 33.0233C30.2279 31.9099 30.2279 30.1042 29.1145 28.9836ZM67.2419 90.1717C67.0564 92.0845 64.2157 91.8061 64.023 93.7189C63.8374 95.6317 66.6781 95.9101 66.4925 97.8229C66.307 99.7357 63.4663 99.4573 63.2736 101.37C63.088 103.283 65.9286 103.561 65.7431 105.467H29.4571C29.2715 103.554 32.1122 103.276 31.9266 101.37C31.741 99.4573 28.9004 99.7357 28.7077 97.8229C28.5221 95.9101 31.3627 95.6317 31.1771 93.7189C30.9916 91.8061 28.151 92.0845 27.9583 90.1717H67.2348H67.2419Z" fill="url(#paint0_linear_639_2406)"/>
<g style="mix-blend-mode:multiply" opacity="0.7">
<path d="M34.4174 91.8138H61.0324C61.9389 91.8138 62.6811 91.0786 62.6811 90.165H32.7759C32.7759 91.0715 33.511 91.8138 34.4246 91.8138H34.4174Z" fill="#FF9A17"/>
<path d="M61.0325 95.8242H34.4175C33.5111 95.8242 32.7688 96.5594 32.7688 97.4729C32.7688 98.3865 33.5039 99.1216 34.4175 99.1216H61.0325C61.9389 99.1216 62.6812 98.3865 62.6812 97.4729C62.6812 96.5594 61.9461 95.8242 61.0325 95.8242Z" fill="#FF9A17"/>
<path d="M61.0325 103.818H34.4175C33.5111 103.818 32.7688 104.553 32.7688 105.467H62.6741C62.6741 104.561 61.9389 103.818 61.0253 103.818H61.0325Z" fill="#FF9A17"/>
</g>
<path d="M75.5711 67.5032C79.9034 62.0931 82.4657 55.384 82.4657 48.1183C82.4657 30.1822 66.8564 15.6436 47.6071 15.6436C28.3578 15.6436 12.7485 30.1822 12.7485 48.1183C12.7485 55.384 15.3109 62.0931 19.6432 67.5032C19.7003 67.5746 19.7645 67.6459 19.8216 67.7173C21.4061 69.6372 32.89 83.9118 33.0328 93.8541H62.1743C62.3099 83.9047 73.801 69.6372 75.3855 67.7173C75.4426 67.6459 75.5068 67.5746 75.5639 67.5032H75.5711Z" fill="url(#paint1_linear_639_2406)"/>
<path d="M47.6001 15.6369C66.8494 15.6369 82.4587 30.1756 82.4587 48.1116C82.4587 55.3774 79.8964 62.0864 75.564 67.4965C75.5069 67.5679 75.4427 67.6392 75.3856 67.7106C73.8011 69.6306 62.3172 83.9052 62.1744 93.8474H33.0329C32.8973 83.898 21.4062 69.6306 19.8217 67.7106C19.7646 67.6392 19.7004 67.5679 19.6433 67.4965C15.311 62.0864 12.7486 55.3774 12.7486 48.1116C12.7486 30.1756 28.3579 15.6369 47.6072 15.6369M47.6072 14.9232C27.9939 14.9232 12.0349 29.8116 12.0349 48.1116C12.0349 55.3203 14.4688 62.1721 19.0795 67.939C19.0795 67.939 19.0866 67.9462 19.0937 67.9533C19.1294 67.9961 19.1651 68.0461 19.2079 68.0889L19.2793 68.1746C20.5997 69.7804 32.1907 84.1121 32.3263 93.8688C32.3263 94.2614 32.6475 94.5754 33.04 94.5754H62.1816C62.5741 94.5754 62.8882 94.2614 62.8953 93.8688C63.0309 84.1121 74.6219 69.7804 75.9423 68.1746L76.0208 68.0818C76.0565 68.0389 76.0922 67.9961 76.135 67.9462C80.7529 62.1721 83.1867 55.3203 83.1867 48.1045C83.1867 29.8044 67.2277 14.916 47.6144 14.916L47.6072 14.9232Z" fill="url(#paint2_linear_639_2406)"/>
<path d="M47.6002 17.5995C66.5355 17.5995 81.9378 31.6671 82.4374 49.1963C82.4517 48.8394 82.4588 48.4754 82.4588 48.1114C82.4588 30.1754 66.8495 15.6367 47.6002 15.6367C28.351 15.6367 12.7417 30.1754 12.7417 48.1114C12.7417 48.4754 12.756 48.8323 12.7631 49.1963C13.2627 31.6671 28.665 17.5995 47.6002 17.5995Z" fill="url(#paint3_linear_639_2406)"/>
<path d="M58.6628 67.376C57.7777 67.1833 56.8927 67.74 56.7 68.6321L56.543 69.3387C55.4367 69.7027 54.8015 70.7876 54.2876 71.7012C53.6595 72.8075 53.217 73.4855 52.4676 73.4855C51.7182 73.4855 51.2828 72.8146 50.6476 71.7012C50.0124 70.5878 49.2201 69.2031 47.5857 69.2031C45.9513 69.2031 45.1661 70.5878 44.5309 71.7083C43.9028 72.8146 43.4603 73.4855 42.7181 73.4855C41.9758 73.4855 41.5332 72.8146 40.9051 71.7083C40.3841 70.7947 39.7561 69.7099 38.6498 69.3459L38.4927 68.6393C38.3 67.7543 37.4221 67.1904 36.53 67.3831C35.645 67.5758 35.0811 68.4537 35.2739 69.3459L39.8488 90.1725H43.2176L39.128 71.5442C39.2993 71.794 39.4706 72.0795 39.6561 72.4149C40.2913 73.5283 41.0765 74.9201 42.7109 74.9201C44.3454 74.9201 45.1304 73.5355 45.7657 72.4149C46.3937 71.3086 46.8363 70.6377 47.5786 70.6377C48.3208 70.6377 48.7633 71.3086 49.3986 72.4221C50.0338 73.5355 50.826 74.9201 52.4604 74.9201C54.0949 74.9201 54.8872 73.5355 55.5224 72.4221C55.7151 72.0866 55.8864 71.794 56.0577 71.5442L51.9608 90.1797H55.3297L59.9046 69.353C60.0973 68.468 59.5407 67.583 58.6485 67.3903L58.6628 67.376Z" fill="white"/>
<g style="mix-blend-mode:overlay">
<g opacity="0.6">
<path style="mix-blend-mode:hard-light" d="M40.4057 0.78443C43.018 2.62585 36.7657 15.9655 26.4452 30.5755C16.1246 45.1856 5.6471 55.5347 3.03485 53.6932C0.422596 51.8518 6.67487 38.5122 16.9954 23.9021C27.3159 9.29209 37.7935 -1.05699 40.4057 0.78443Z" fill="url(#paint4_radial_639_2406)"/>
<path d="M36.9869 5.63069C38.293 6.5514 32.5189 16.9719 24.0898 28.9054C15.6606 40.839 7.77392 49.7678 6.46779 48.8399C5.16166 47.9192 10.9357 37.4987 19.3649 25.5652C27.794 13.6316 35.6808 4.70284 36.9869 5.63069Z" fill="url(#paint5_radial_639_2406)"/>
</g>
<path d="M16.7526 34.2725C11.1427 30.3113 6.91737 26.6356 7.3242 26.0575C7.73102 25.4865 12.6058 28.2344 18.2157 32.1956C23.8256 36.1568 28.0509 39.8325 27.6441 40.4106C27.2373 40.9816 22.3625 38.2337 16.7526 34.2725Z" fill="url(#paint6_radial_639_2406)"/>
<path style="mix-blend-mode:hard-light" d="M17.231 33.5934C16.1818 32.8511 15.4467 32.0874 15.5823 31.8947C15.725 31.6948 16.6886 32.1374 17.7378 32.8796C18.7869 33.6219 19.5221 34.3856 19.3865 34.5783C19.2437 34.7782 18.2802 34.3356 17.231 33.5934Z" fill="url(#paint7_radial_639_2406)"/>
<path d="M18.6442 34.0508C14.7615 39.5465 11.1001 43.6291 10.4648 43.1794C9.82248 42.7298 12.449 37.9121 16.3317 32.4164C20.2144 26.9206 23.8758 22.8381 24.511 23.2878C25.1534 23.7374 22.5268 28.5551 18.6442 34.0508Z" fill="url(#paint8_radial_639_2406)"/>
<path style="mix-blend-mode:hard-light" d="M17.8878 33.5227C17.1455 34.5719 16.3676 35.2999 16.1463 35.1429C15.9251 34.9858 16.3462 34.008 17.0884 32.9589C17.8307 31.9097 18.6087 31.1817 18.8299 31.3387C19.0512 31.4957 18.6301 32.4735 17.8878 33.5227Z" fill="url(#paint9_radial_639_2406)"/>
<g opacity="0.5">
<path d="M16.7526 34.2725C11.1427 30.3113 6.91737 26.6356 7.3242 26.0575C7.73102 25.4865 12.6058 28.2344 18.2157 32.1956C23.8256 36.1568 28.0509 39.8325 27.6441 40.4106C27.2373 40.9816 22.3625 38.2337 16.7526 34.2725Z" fill="url(#paint10_radial_639_2406)"/>
<path style="mix-blend-mode:hard-light" d="M17.231 33.5934C16.1818 32.8511 15.4467 32.0874 15.5823 31.8947C15.725 31.6948 16.6886 32.1374 17.7378 32.8796C18.7869 33.6219 19.5221 34.3856 19.3865 34.5783C19.2437 34.7782 18.2802 34.3356 17.231 33.5934Z" fill="url(#paint11_radial_639_2406)"/>
<path d="M18.6442 34.0508C14.7615 39.5465 11.1001 43.6291 10.4648 43.1794C9.82248 42.7298 12.449 37.9121 16.3317 32.4164C20.2144 26.9206 23.8758 22.8381 24.511 23.2878C25.1534 23.7374 22.5268 28.5551 18.6442 34.0508Z" fill="url(#paint12_radial_639_2406)"/>
<path style="mix-blend-mode:hard-light" d="M17.8878 33.5227C17.1455 34.5719 16.3676 35.2999 16.1463 35.1429C15.9251 34.9858 16.3462 34.008 17.0884 32.9589C17.8307 31.9097 18.6087 31.1817 18.8299 31.3387C19.0512 31.4957 18.6301 32.4735 17.8878 33.5227Z" fill="url(#paint13_radial_639_2406)"/>
</g>
</g>
<defs>
<linearGradient id="paint0_linear_639_2406" x1="47.5644" y1="-4.13345" x2="47.5644" y2="133.188" gradientUnits="userSpaceOnUse">
<stop stop-color="#FFBC00"/>
<stop offset="0.41" stop-color="#FF9A17"/>
<stop offset="0.51" stop-color="#FF911B"/>
<stop offset="0.67" stop-color="#FF7B26"/>
<stop offset="0.86" stop-color="#FF5639"/>
<stop offset="1" stop-color="#FF3849"/>
</linearGradient>
<linearGradient id="paint1_linear_639_2406" x1="47.6" y1="15.6364" x2="47.6" y2="93.8612" gradientUnits="userSpaceOnUse">
<stop stop-color="white" stop-opacity="0.9"/>
<stop offset="0.03" stop-color="white" stop-opacity="0.79"/>
<stop offset="0.07" stop-color="white" stop-opacity="0.69"/>
<stop offset="0.11" stop-color="white" stop-opacity="0.6"/>
<stop offset="0.15" stop-color="white" stop-opacity="0.55"/>
<stop offset="0.2" stop-color="white" stop-opacity="0.51"/>
<stop offset="0.28" stop-color="white" stop-opacity="0.5"/>
<stop offset="0.46" stop-color="#FDFDFD" stop-opacity="0.48"/>
<stop offset="0.67" stop-color="#F9F9F9" stop-opacity="0.43"/>
<stop offset="0.89" stop-color="#F3F3F3" stop-opacity="0.35"/>
<stop offset="1" stop-color="#EFEFEF" stop-opacity="0.3"/>
</linearGradient>
<linearGradient id="paint2_linear_639_2406" x1="47.6001" y1="94.5754" x2="47.6001" y2="14.9232" gradientUnits="userSpaceOnUse">
<stop stop-color="white" stop-opacity="0.9"/>
<stop offset="0.03" stop-color="white" stop-opacity="0.83"/>
<stop offset="0.11" stop-color="white" stop-opacity="0.68"/>
<stop offset="0.17" stop-color="white" stop-opacity="0.58"/>
<stop offset="0.23" stop-color="white" stop-opacity="0.52"/>
<stop offset="0.28" stop-color="white" stop-opacity="0.5"/>
<stop offset="0.46" stop-color="#FDFDFD" stop-opacity="0.48"/>
<stop offset="0.67" stop-color="#F9F9F9" stop-opacity="0.43"/>
<stop offset="0.89" stop-color="#F3F3F3" stop-opacity="0.35"/>
<stop offset="1" stop-color="#EFEFEF" stop-opacity="0.3"/>
</linearGradient>
<linearGradient id="paint3_linear_639_2406" x1="47.6003" y1="15.6367" x2="47.6003" y2="49.1963" gradientUnits="userSpaceOnUse">
<stop stop-color="white" stop-opacity="0.9"/>
<stop offset="0.03" stop-color="white" stop-opacity="0.79"/>
<stop offset="0.07" stop-color="white" stop-opacity="0.69"/>
<stop offset="0.11" stop-color="white" stop-opacity="0.6"/>
<stop offset="0.15" stop-color="white" stop-opacity="0.55"/>
<stop offset="0.2" stop-color="white" stop-opacity="0.51"/>
<stop offset="0.28" stop-color="white" stop-opacity="0.5"/>
<stop offset="0.46" stop-color="#FDFDFD" stop-opacity="0.48"/>
<stop offset="0.67" stop-color="#F9F9F9" stop-opacity="0.43"/>
<stop offset="0.89" stop-color="#F3F3F3" stop-opacity="0.35"/>
<stop offset="1" stop-color="#EFEFEF" stop-opacity="0.3"/>
</linearGradient>
<radialGradient id="paint4_radial_639_2406" cx="0" cy="0" r="1" gradientUnits="userSpaceOnUse" gradientTransform="translate(6.14759 15.6864) rotate(-54.77) scale(32.3735 5.80691)">
<stop stop-color="white" stop-opacity="0.6"/>
<stop offset="0.15" stop-color="white" stop-opacity="0.45"/>
<stop offset="0.33" stop-color="white" stop-opacity="0.29"/>
<stop offset="0.52" stop-color="white" stop-opacity="0.16"/>
<stop offset="0.69" stop-color="white" stop-opacity="0.07"/>
<stop offset="0.86" stop-color="white" stop-opacity="0.02"/>
<stop offset="1" stop-color="white" stop-opacity="0"/>
</radialGradient>
<radialGradient id="paint5_radial_639_2406" cx="0" cy="0" r="1" gradientUnits="userSpaceOnUse" gradientTransform="translate(8.27954 21.156) rotate(-54.77) scale(26.4294 2.89575)">
<stop stop-color="white" stop-opacity="0.96"/>
<stop offset="0.05" stop-color="white" stop-opacity="0.78"/>
<stop offset="0.09" stop-color="white" stop-opacity="0.61"/>
<stop offset="0.14" stop-color="white" stop-opacity="0.47"/>
<stop offset="0.2" stop-color="white" stop-opacity="0.34"/>
<stop offset="0.25" stop-color="white" stop-opacity="0.23"/>
<stop offset="0.32" stop-color="white" stop-opacity="0.15"/>
<stop offset="0.4" stop-color="white" stop-opacity="0.08"/>
<stop offset="0.49" stop-color="white" stop-opacity="0.03"/>
<stop offset="0.63" stop-color="white" stop-opacity="0"/>
<stop offset="1" stop-color="white" stop-opacity="0"/>
</radialGradient>
<radialGradient id="paint6_radial_639_2406" cx="0" cy="0" r="1" gradientUnits="userSpaceOnUse" gradientTransform="translate(-2.93389 67.0824) rotate(125.22) scale(1.27608 12.425)">
<stop stop-color="white"/>
<stop offset="0.05" stop-color="white" stop-opacity="0.89"/>
<stop offset="0.15" stop-color="white" stop-opacity="0.69"/>
<stop offset="0.26" stop-color="white" stop-opacity="0.5"/>
<stop offset="0.37" stop-color="white" stop-opacity="0.35"/>
<stop offset="0.48" stop-color="white" stop-opacity="0.22"/>
<stop offset="0.6" stop-color="white" stop-opacity="0.12"/>
<stop offset="0.72" stop-color="white" stop-opacity="0.05"/>
<stop offset="0.85" stop-color="white" stop-opacity="0.01"/>
<stop offset="1" stop-color="white" stop-opacity="0"/>
</radialGradient>
<radialGradient id="paint7_radial_639_2406" cx="0" cy="0" r="1" gradientUnits="userSpaceOnUse" gradientTransform="translate(-4.82786 65.387) rotate(125.22) scale(0.442085 2.32677)">
<stop stop-color="white"/>
<stop offset="0.05" stop-color="white" stop-opacity="0.89"/>
<stop offset="0.15" stop-color="white" stop-opacity="0.69"/>
<stop offset="0.26" stop-color="white" stop-opacity="0.5"/>
<stop offset="0.37" stop-color="white" stop-opacity="0.35"/>
<stop offset="0.48" stop-color="white" stop-opacity="0.22"/>
<stop offset="0.6" stop-color="white" stop-opacity="0.12"/>
<stop offset="0.72" stop-color="white" stop-opacity="0.05"/>
<stop offset="0.85" stop-color="white" stop-opacity="0.01"/>
<stop offset="1" stop-color="white" stop-opacity="0"/>
</radialGradient>
<radialGradient id="paint8_radial_639_2406" cx="0" cy="0" r="1" gradientUnits="userSpaceOnUse" gradientTransform="translate(1.18454 18.5406) rotate(35.23) scale(1.4104 12.1563)">
<stop stop-color="white"/>
<stop offset="0.05" stop-color="white" stop-opacity="0.89"/>
<stop offset="0.15" stop-color="white" stop-opacity="0.69"/>
<stop offset="0.26" stop-color="white" stop-opacity="0.5"/>
<stop offset="0.37" stop-color="white" stop-opacity="0.35"/>
<stop offset="0.48" stop-color="white" stop-opacity="0.22"/>
<stop offset="0.6" stop-color="white" stop-opacity="0.12"/>
<stop offset="0.72" stop-color="white" stop-opacity="0.05"/>
<stop offset="0.85" stop-color="white" stop-opacity="0.01"/>
<stop offset="1" stop-color="white" stop-opacity="0"/>
</radialGradient>
<radialGradient id="paint9_radial_639_2406" cx="0" cy="0" r="1" gradientUnits="userSpaceOnUse" gradientTransform="translate(-0.107186 20.3434) rotate(35.23) scale(0.48862 2.32676)">
<stop stop-color="white"/>
<stop offset="0.05" stop-color="white" stop-opacity="0.89"/>
<stop offset="0.15" stop-color="white" stop-opacity="0.69"/>
<stop offset="0.26" stop-color="white" stop-opacity="0.5"/>
<stop offset="0.37" stop-color="white" stop-opacity="0.35"/>
<stop offset="0.48" stop-color="white" stop-opacity="0.22"/>
<stop offset="0.6" stop-color="white" stop-opacity="0.12"/>
<stop offset="0.72" stop-color="white" stop-opacity="0.05"/>
<stop offset="0.85" stop-color="white" stop-opacity="0.01"/>
<stop offset="1" stop-color="white" stop-opacity="0"/>
</radialGradient>
<radialGradient id="paint10_radial_639_2406" cx="0" cy="0" r="1" gradientUnits="userSpaceOnUse" gradientTransform="translate(-2.93389 67.0824) rotate(125.22) scale(1.27608 12.425)">
<stop stop-color="white"/>
<stop offset="0.05" stop-color="white" stop-opacity="0.89"/>
<stop offset="0.15" stop-color="white" stop-opacity="0.69"/>
<stop offset="0.26" stop-color="white" stop-opacity="0.5"/>
<stop offset="0.37" stop-color="white" stop-opacity="0.35"/>
<stop offset="0.48" stop-color="white" stop-opacity="0.22"/>
<stop offset="0.6" stop-color="white" stop-opacity="0.12"/>
<stop offset="0.72" stop-color="white" stop-opacity="0.05"/>
<stop offset="0.85" stop-color="white" stop-opacity="0.01"/>
<stop offset="1" stop-color="white" stop-opacity="0"/>
</radialGradient>
<radialGradient id="paint11_radial_639_2406" cx="0" cy="0" r="1" gradientUnits="userSpaceOnUse" gradientTransform="translate(-4.82786 65.387) rotate(125.22) scale(0.442085 2.32677)">
<stop stop-color="white"/>
<stop offset="0.05" stop-color="white" stop-opacity="0.89"/>
<stop offset="0.15" stop-color="white" stop-opacity="0.69"/>
<stop offset="0.26" stop-color="white" stop-opacity="0.5"/>
<stop offset="0.37" stop-color="white" stop-opacity="0.35"/>
<stop offset="0.48" stop-color="white" stop-opacity="0.22"/>
<stop offset="0.6" stop-color="white" stop-opacity="0.12"/>
<stop offset="0.72" stop-color="white" stop-opacity="0.05"/>
<stop offset="0.85" stop-color="white" stop-opacity="0.01"/>
<stop offset="1" stop-color="white" stop-opacity="0"/>
</radialGradient>
<radialGradient id="paint12_radial_639_2406" cx="0" cy="0" r="1" gradientUnits="userSpaceOnUse" gradientTransform="translate(1.18454 18.5406) rotate(35.23) scale(1.4104 12.1563)">
<stop stop-color="white"/>
<stop offset="0.05" stop-color="white" stop-opacity="0.89"/>
<stop offset="0.15" stop-color="white" stop-opacity="0.69"/>
<stop offset="0.26" stop-color="white" stop-opacity="0.5"/>
<stop offset="0.37" stop-color="white" stop-opacity="0.35"/>
<stop offset="0.48" stop-color="white" stop-opacity="0.22"/>
<stop offset="0.6" stop-color="white" stop-opacity="0.12"/>
<stop offset="0.72" stop-color="white" stop-opacity="0.05"/>
<stop offset="0.85" stop-color="white" stop-opacity="0.01"/>
<stop offset="1" stop-color="white" stop-opacity="0"/>
</radialGradient>
<radialGradient id="paint13_radial_639_2406" cx="0" cy="0" r="1" gradientUnits="userSpaceOnUse" gradientTransform="translate(-0.107186 20.3434) rotate(35.23) scale(0.48862 2.32676)">
<stop stop-color="white"/>
<stop offset="0.05" stop-color="white" stop-opacity="0.89"/>
<stop offset="0.15" stop-color="white" stop-opacity="0.69"/>
<stop offset="0.26" stop-color="white" stop-opacity="0.5"/>
<stop offset="0.37" stop-color="white" stop-opacity="0.35"/>
<stop offset="0.48" stop-color="white" stop-opacity="0.22"/>
<stop offset="0.6" stop-color="white" stop-opacity="0.12"/>
<stop offset="0.72" stop-color="white" stop-opacity="0.05"/>
<stop offset="0.85" stop-color="white" stop-opacity="0.01"/>
<stop offset="1" stop-color="white" stop-opacity="0"/>
</radialGradient>
</defs>
</svg>
