<svg width="97" height="88" viewBox="0 0 97 88" fill="none" xmlns="http://www.w3.org/2000/svg">
<path d="M80.2723 17.0676H68.658V8.34354C68.658 4.02818 65.1624 0.533203 60.8462 0.533203H27.8112C23.495 0.533203 19.9994 4.02818 19.9994 8.34354V17.0676H8.38513C4.24909 17.0676 0.893555 20.4226 0.893555 24.5578V40.2986C0.893555 41.0723 1.36053 41.7659 2.07433 42.0527L44.3287 59.2808L86.5831 42.0527C87.2969 41.7593 87.7638 41.0656 87.7638 40.2986V24.5578C87.7638 20.4226 84.4083 17.0676 80.2723 17.0676ZM25.3362 17.0676V8.34354C25.3362 6.97623 26.4436 5.86905 27.8112 5.86905H60.8462C62.2138 5.86905 63.3212 6.97623 63.3212 8.34354V17.0676H25.3362Z" fill="url(#paint0_linear_639_2258)"/>
<path d="M78.1308 21.8301H10.5265C6.93428 21.8301 4.02222 24.7416 4.02222 28.3331V69.5259C4.02222 73.1174 6.93428 76.0289 10.5265 76.0289H78.1308C81.723 76.0289 84.6351 73.1174 84.6351 69.5259V28.3331C84.6351 24.7416 81.723 21.8301 78.1308 21.8301Z" fill="url(#paint1_linear_639_2258)"/>
<path d="M78.1309 21.8301C81.7199 21.8301 84.6352 24.7381 84.6352 28.3331V69.5325C84.6352 73.1209 81.7266 76.0356 78.1309 76.0356H10.5266C6.93757 76.0356 4.02233 73.1275 4.02233 69.5325V28.3331C4.02233 24.7448 6.9309 21.8301 10.5266 21.8301H78.1309ZM78.1309 21.1631H10.5266C6.57067 21.1631 3.35522 24.3779 3.35522 28.3331V69.5325C3.35522 73.4877 6.57067 76.7025 10.5266 76.7025H78.1309C82.0868 76.7025 85.3023 73.4877 85.3023 69.5325V28.3331C85.3023 24.3779 82.0868 21.1631 78.1309 21.1631Z" fill="url(#paint2_linear_639_2258)"/>
<g style="mix-blend-mode:soft-light">
<path d="M78.1308 21.8301H10.5265C6.93746 21.8301 4.02222 24.7381 4.02222 28.3331V29.9606C4.02222 26.3722 6.93079 23.4575 10.5265 23.4575H78.1308C81.7198 23.4575 84.6351 26.3655 84.6351 29.9606V28.3331C84.6351 24.7448 81.7265 21.8301 78.1308 21.8301Z" fill="white"/>
</g>
<path d="M46.4167 55.9062H42.2406C41.5296 55.9062 40.9531 56.4826 40.9531 57.1935V61.3688C40.9531 62.0798 41.5296 62.6561 42.2406 62.6561H46.4167C47.1278 62.6561 47.7042 62.0798 47.7042 61.3688V57.1935C47.7042 56.4826 47.1278 55.9062 46.4167 55.9062Z" fill="white"/>
<path d="M7.09766 44.1006L44.3287 59.2811L81.4064 44.1606" stroke="white" stroke-linecap="round" stroke-linejoin="round"/>
<g style="mix-blend-mode:overlay">
<g opacity="0.6">
<path style="mix-blend-mode:hard-light" d="M36.0234 76.0285C36.0234 73.0405 49.5723 70.626 66.2899 70.626C83.0076 70.626 96.5565 73.0471 96.5565 76.0285C96.5565 79.0099 83.0076 81.4311 66.2899 81.4311C49.5723 81.4311 36.0234 79.0099 36.0234 76.0285Z" fill="url(#paint3_radial_639_2258)"/>
<path d="M66.29 78.7297C79.9441 78.7297 91.0129 77.5203 91.0129 76.0284C91.0129 74.5366 79.9441 73.3271 66.29 73.3271C52.6359 73.3271 41.5671 74.5366 41.5671 76.0284C41.5671 77.5203 52.6359 78.7297 66.29 78.7297Z" fill="url(#paint4_radial_639_2258)"/>
</g>
<path d="M74.3353 76.0288C74.3353 82.4518 73.8017 87.6543 73.1479 87.6543C72.4941 87.6543 71.9604 82.4518 71.9604 76.0288C71.9604 69.6058 72.4941 64.4033 73.1479 64.4033C73.8017 64.4033 74.3353 69.6058 74.3353 76.0288Z" fill="url(#paint5_radial_639_2258)"/>
<path style="mix-blend-mode:hard-light" d="M73.5616 76.0288C73.5616 77.2294 73.3748 78.2032 73.148 78.2032C72.9212 78.2032 72.7344 77.2294 72.7344 76.0288C72.7344 74.8283 72.9212 73.8545 73.148 73.8545C73.3748 73.8545 73.5616 74.8283 73.5616 76.0288Z" fill="url(#paint6_radial_639_2258)"/>
<path d="M73.1545 74.7012C79.4386 74.7012 84.5353 75.2948 84.5353 76.0285C84.5353 76.7621 79.4386 77.3558 73.1545 77.3558C66.8704 77.3558 61.7737 76.7621 61.7737 76.0285C61.7737 75.2948 66.8704 74.7012 73.1545 74.7012Z" fill="url(#paint7_radial_639_2258)"/>
<path style="mix-blend-mode:hard-light" d="M73.1545 75.5684C74.3553 75.5684 75.3293 75.7751 75.3293 76.0286C75.3293 76.282 74.3553 76.4888 73.1545 76.4888C71.9537 76.4888 70.9797 76.282 70.9797 76.0286C70.9797 75.7751 71.9537 75.5684 73.1545 75.5684Z" fill="url(#paint8_radial_639_2258)"/>
<g opacity="0.5">
<path d="M74.3353 76.0288C74.3353 82.4518 73.8017 87.6543 73.1479 87.6543C72.4941 87.6543 71.9604 82.4518 71.9604 76.0288C71.9604 69.6058 72.4941 64.4033 73.1479 64.4033C73.8017 64.4033 74.3353 69.6058 74.3353 76.0288Z" fill="url(#paint9_radial_639_2258)"/>
<path style="mix-blend-mode:hard-light" d="M73.5616 76.0288C73.5616 77.2294 73.3748 78.2032 73.148 78.2032C72.9212 78.2032 72.7344 77.2294 72.7344 76.0288C72.7344 74.8283 72.9212 73.8545 73.148 73.8545C73.3748 73.8545 73.5616 74.8283 73.5616 76.0288Z" fill="url(#paint10_radial_639_2258)"/>
<path d="M73.1545 74.7012C79.4386 74.7012 84.5353 75.2948 84.5353 76.0285C84.5353 76.7621 79.4386 77.3558 73.1545 77.3558C66.8704 77.3558 61.7737 76.7621 61.7737 76.0285C61.7737 75.2948 66.8704 74.7012 73.1545 74.7012Z" fill="url(#paint11_radial_639_2258)"/>
<path style="mix-blend-mode:hard-light" d="M73.1545 75.5684C74.3553 75.5684 75.3293 75.7751 75.3293 76.0286C75.3293 76.282 74.3553 76.4888 73.1545 76.4888C71.9537 76.4888 70.9797 76.282 70.9797 76.0286C70.9797 75.7751 71.9537 75.5684 73.1545 75.5684Z" fill="url(#paint12_radial_639_2258)"/>
</g>
</g>
<defs>
<linearGradient id="paint0_linear_639_2258" x1="44.3287" y1="-9.15135" x2="44.3287" y2="49.5963" gradientUnits="userSpaceOnUse">
<stop stop-color="#E3F1FF"/>
<stop offset="0.14" stop-color="#B7DFFB"/>
<stop offset="0.37" stop-color="#77C5F5"/>
<stop offset="0.58" stop-color="#43B1F1"/>
<stop offset="0.76" stop-color="#1EA2EE"/>
<stop offset="0.91" stop-color="#0899EC"/>
<stop offset="1" stop-color="#0096EC"/>
</linearGradient>
<linearGradient id="paint1_linear_639_2258" x1="44.3286" y1="21.8301" x2="44.3286" y2="76.0289" gradientUnits="userSpaceOnUse">
<stop stop-color="white" stop-opacity="0.9"/>
<stop offset="0.03" stop-color="white" stop-opacity="0.79"/>
<stop offset="0.07" stop-color="white" stop-opacity="0.69"/>
<stop offset="0.11" stop-color="white" stop-opacity="0.6"/>
<stop offset="0.15" stop-color="white" stop-opacity="0.55"/>
<stop offset="0.2" stop-color="white" stop-opacity="0.51"/>
<stop offset="0.28" stop-color="white" stop-opacity="0.5"/>
<stop offset="0.46" stop-color="#FDFDFD" stop-opacity="0.48"/>
<stop offset="0.67" stop-color="#F9F9F9" stop-opacity="0.43"/>
<stop offset="0.89" stop-color="#F3F3F3" stop-opacity="0.35"/>
<stop offset="1" stop-color="#EFEFEF" stop-opacity="0.3"/>
</linearGradient>
<linearGradient id="paint2_linear_639_2258" x1="44.3288" y1="76.6959" x2="44.3288" y2="21.1631" gradientUnits="userSpaceOnUse">
<stop stop-color="white" stop-opacity="0.9"/>
<stop offset="0.03" stop-color="white" stop-opacity="0.83"/>
<stop offset="0.11" stop-color="white" stop-opacity="0.68"/>
<stop offset="0.17" stop-color="white" stop-opacity="0.58"/>
<stop offset="0.23" stop-color="white" stop-opacity="0.52"/>
<stop offset="0.28" stop-color="white" stop-opacity="0.5"/>
<stop offset="0.46" stop-color="#FDFDFD" stop-opacity="0.48"/>
<stop offset="0.67" stop-color="#F9F9F9" stop-opacity="0.43"/>
<stop offset="0.89" stop-color="#F3F3F3" stop-opacity="0.35"/>
<stop offset="1" stop-color="#EFEFEF" stop-opacity="0.3"/>
</linearGradient>
<radialGradient id="paint3_radial_639_2258" cx="0" cy="0" r="1" gradientUnits="userSpaceOnUse" gradientTransform="translate(65.9264 88.7479) rotate(180) scale(30.2586 5.42656)">
<stop stop-color="white" stop-opacity="0.6"/>
<stop offset="0.15" stop-color="white" stop-opacity="0.45"/>
<stop offset="0.33" stop-color="white" stop-opacity="0.29"/>
<stop offset="0.52" stop-color="white" stop-opacity="0.16"/>
<stop offset="0.69" stop-color="white" stop-opacity="0.07"/>
<stop offset="0.86" stop-color="white" stop-opacity="0.02"/>
<stop offset="1" stop-color="white" stop-opacity="0"/>
</radialGradient>
<radialGradient id="paint4_radial_639_2258" cx="0" cy="0" r="1" gradientUnits="userSpaceOnUse" gradientTransform="translate(68.2029 86.7243) rotate(180) scale(24.7412 2.71028)">
<stop stop-color="white" stop-opacity="0.96"/>
<stop offset="0.05" stop-color="white" stop-opacity="0.78"/>
<stop offset="0.09" stop-color="white" stop-opacity="0.61"/>
<stop offset="0.14" stop-color="white" stop-opacity="0.47"/>
<stop offset="0.2" stop-color="white" stop-opacity="0.34"/>
<stop offset="0.25" stop-color="white" stop-opacity="0.23"/>
<stop offset="0.32" stop-color="white" stop-opacity="0.15"/>
<stop offset="0.4" stop-color="white" stop-opacity="0.08"/>
<stop offset="0.49" stop-color="white" stop-opacity="0.03"/>
<stop offset="0.63" stop-color="white" stop-opacity="0"/>
<stop offset="1" stop-color="white" stop-opacity="0"/>
</radialGradient>
<radialGradient id="paint5_radial_639_2258" cx="0" cy="0" r="1" gradientUnits="userSpaceOnUse" gradientTransform="translate(118.618 74.9533) scale(1.19271 11.6111)">
<stop stop-color="white"/>
<stop offset="0.05" stop-color="white" stop-opacity="0.89"/>
<stop offset="0.15" stop-color="white" stop-opacity="0.69"/>
<stop offset="0.26" stop-color="white" stop-opacity="0.5"/>
<stop offset="0.37" stop-color="white" stop-opacity="0.35"/>
<stop offset="0.48" stop-color="white" stop-opacity="0.22"/>
<stop offset="0.6" stop-color="white" stop-opacity="0.12"/>
<stop offset="0.72" stop-color="white" stop-opacity="0.05"/>
<stop offset="0.85" stop-color="white" stop-opacity="0.01"/>
<stop offset="1" stop-color="white" stop-opacity="0"/>
</radialGradient>
<radialGradient id="paint6_radial_639_2258" cx="0" cy="0" r="1" gradientUnits="userSpaceOnUse" gradientTransform="translate(118.615 76.0288) scale(0.413201 2.17435)">
<stop stop-color="white"/>
<stop offset="0.05" stop-color="white" stop-opacity="0.89"/>
<stop offset="0.15" stop-color="white" stop-opacity="0.69"/>
<stop offset="0.26" stop-color="white" stop-opacity="0.5"/>
<stop offset="0.37" stop-color="white" stop-opacity="0.35"/>
<stop offset="0.48" stop-color="white" stop-opacity="0.22"/>
<stop offset="0.6" stop-color="white" stop-opacity="0.12"/>
<stop offset="0.72" stop-color="white" stop-opacity="0.05"/>
<stop offset="0.85" stop-color="white" stop-opacity="0.01"/>
<stop offset="1" stop-color="white" stop-opacity="0"/>
</radialGradient>
<radialGradient id="paint7_radial_639_2258" cx="0" cy="0" r="1" gradientUnits="userSpaceOnUse" gradientTransform="translate(69.2395 99.2268) rotate(-90) scale(1.31802 11.3622)">
<stop stop-color="white"/>
<stop offset="0.05" stop-color="white" stop-opacity="0.89"/>
<stop offset="0.15" stop-color="white" stop-opacity="0.69"/>
<stop offset="0.26" stop-color="white" stop-opacity="0.5"/>
<stop offset="0.37" stop-color="white" stop-opacity="0.35"/>
<stop offset="0.48" stop-color="white" stop-opacity="0.22"/>
<stop offset="0.6" stop-color="white" stop-opacity="0.12"/>
<stop offset="0.72" stop-color="white" stop-opacity="0.05"/>
<stop offset="0.85" stop-color="white" stop-opacity="0.01"/>
<stop offset="1" stop-color="white" stop-opacity="0"/>
</radialGradient>
<radialGradient id="paint8_radial_639_2258" cx="0" cy="0" r="1" gradientUnits="userSpaceOnUse" gradientTransform="translate(73.1545 99.2231) rotate(-90) scale(0.456616 2.17476)">
<stop stop-color="white"/>
<stop offset="0.05" stop-color="white" stop-opacity="0.89"/>
<stop offset="0.15" stop-color="white" stop-opacity="0.69"/>
<stop offset="0.26" stop-color="white" stop-opacity="0.5"/>
<stop offset="0.37" stop-color="white" stop-opacity="0.35"/>
<stop offset="0.48" stop-color="white" stop-opacity="0.22"/>
<stop offset="0.6" stop-color="white" stop-opacity="0.12"/>
<stop offset="0.72" stop-color="white" stop-opacity="0.05"/>
<stop offset="0.85" stop-color="white" stop-opacity="0.01"/>
<stop offset="1" stop-color="white" stop-opacity="0"/>
</radialGradient>
<radialGradient id="paint9_radial_639_2258" cx="0" cy="0" r="1" gradientUnits="userSpaceOnUse" gradientTransform="translate(118.618 74.9533) scale(1.19271 11.6111)">
<stop stop-color="white"/>
<stop offset="0.05" stop-color="white" stop-opacity="0.89"/>
<stop offset="0.15" stop-color="white" stop-opacity="0.69"/>
<stop offset="0.26" stop-color="white" stop-opacity="0.5"/>
<stop offset="0.37" stop-color="white" stop-opacity="0.35"/>
<stop offset="0.48" stop-color="white" stop-opacity="0.22"/>
<stop offset="0.6" stop-color="white" stop-opacity="0.12"/>
<stop offset="0.72" stop-color="white" stop-opacity="0.05"/>
<stop offset="0.85" stop-color="white" stop-opacity="0.01"/>
<stop offset="1" stop-color="white" stop-opacity="0"/>
</radialGradient>
<radialGradient id="paint10_radial_639_2258" cx="0" cy="0" r="1" gradientUnits="userSpaceOnUse" gradientTransform="translate(118.615 76.0288) scale(0.413201 2.17435)">
<stop stop-color="white"/>
<stop offset="0.05" stop-color="white" stop-opacity="0.89"/>
<stop offset="0.15" stop-color="white" stop-opacity="0.69"/>
<stop offset="0.26" stop-color="white" stop-opacity="0.5"/>
<stop offset="0.37" stop-color="white" stop-opacity="0.35"/>
<stop offset="0.48" stop-color="white" stop-opacity="0.22"/>
<stop offset="0.6" stop-color="white" stop-opacity="0.12"/>
<stop offset="0.72" stop-color="white" stop-opacity="0.05"/>
<stop offset="0.85" stop-color="white" stop-opacity="0.01"/>
<stop offset="1" stop-color="white" stop-opacity="0"/>
</radialGradient>
<radialGradient id="paint11_radial_639_2258" cx="0" cy="0" r="1" gradientUnits="userSpaceOnUse" gradientTransform="translate(69.2395 99.2268) rotate(-90) scale(1.31802 11.3622)">
<stop stop-color="white"/>
<stop offset="0.05" stop-color="white" stop-opacity="0.89"/>
<stop offset="0.15" stop-color="white" stop-opacity="0.69"/>
<stop offset="0.26" stop-color="white" stop-opacity="0.5"/>
<stop offset="0.37" stop-color="white" stop-opacity="0.35"/>
<stop offset="0.48" stop-color="white" stop-opacity="0.22"/>
<stop offset="0.6" stop-color="white" stop-opacity="0.12"/>
<stop offset="0.72" stop-color="white" stop-opacity="0.05"/>
<stop offset="0.85" stop-color="white" stop-opacity="0.01"/>
<stop offset="1" stop-color="white" stop-opacity="0"/>
</radialGradient>
<radialGradient id="paint12_radial_639_2258" cx="0" cy="0" r="1" gradientUnits="userSpaceOnUse" gradientTransform="translate(73.1545 99.2231) rotate(-90) scale(0.456616 2.17476)">
<stop stop-color="white"/>
<stop offset="0.05" stop-color="white" stop-opacity="0.89"/>
<stop offset="0.15" stop-color="white" stop-opacity="0.69"/>
<stop offset="0.26" stop-color="white" stop-opacity="0.5"/>
<stop offset="0.37" stop-color="white" stop-opacity="0.35"/>
<stop offset="0.48" stop-color="white" stop-opacity="0.22"/>
<stop offset="0.6" stop-color="white" stop-opacity="0.12"/>
<stop offset="0.72" stop-color="white" stop-opacity="0.05"/>
<stop offset="0.85" stop-color="white" stop-opacity="0.01"/>
<stop offset="1" stop-color="white" stop-opacity="0"/>
</radialGradient>
</defs>
</svg>
