<svg width="120" height="100" viewBox="0 0 120 100" fill="none" xmlns="http://www.w3.org/2000/svg">
<path d="M37.9996 7.14507C45.6579 3.1707 54.348 0.916016 63.5731 0.916016C63.8789 0.916016 64.1769 0.931301 64.475 0.938944V56.5496L37.9919 7.15272L37.9996 7.14507ZM69.0303 1.18353V56.5496H119.207C119.207 27.6666 97.1948 3.92737 69.0303 1.18353Z" fill="url(#paint0_linear_639_2439)"/>
<path d="M63.5734 98.7552C86.8825 98.7552 105.778 79.8595 105.778 56.5505C105.778 33.2414 86.8825 14.3457 63.5734 14.3457C40.2644 14.3457 21.3687 33.2414 21.3687 56.5505C21.3687 79.8595 40.2644 98.7552 63.5734 98.7552Z" fill="url(#paint1_linear_639_2439)"/>
<path d="M63.5732 89.1406C81.5721 89.1406 96.1631 74.5497 96.1631 56.5508C96.1631 38.5519 81.5721 23.9609 63.5732 23.9609C45.5744 23.9609 30.9834 38.5519 30.9834 56.5508C30.9834 74.5497 45.5744 89.1406 63.5732 89.1406Z" stroke="white" stroke-linecap="round" stroke-linejoin="round"/>
<path d="M63.5733 14.3385C86.8845 14.3385 105.778 33.2321 105.778 56.5433C105.778 79.8545 86.8845 98.7481 63.5733 98.7481C40.2621 98.7481 21.3686 79.8545 21.3686 56.5433C21.3686 33.2321 40.2621 14.3385 63.5733 14.3385ZM63.5733 13.5742C39.8799 13.5742 20.6042 32.8499 20.6042 56.5433C20.6042 80.2367 39.8799 99.5124 63.5733 99.5124C87.2667 99.5124 106.542 80.2367 106.542 56.5433C106.542 32.8499 87.2667 13.5742 63.5733 13.5742Z" fill="url(#paint2_linear_639_2439)"/>
<g style="mix-blend-mode:soft-light">
<path d="M63.5734 16.1342C86.5866 16.1342 105.281 34.5538 105.755 57.4447C105.755 57.1466 105.778 56.8486 105.778 56.5505C105.778 33.2393 86.8846 14.3457 63.5734 14.3457C40.2622 14.3457 21.3687 33.2393 21.3687 56.5505C21.3687 56.8486 21.3839 57.1466 21.3916 57.4447C21.8731 34.5462 40.5679 16.1342 63.5734 16.1342Z" fill="white"/>
</g>
<g style="mix-blend-mode:overlay">
<g opacity="0.6">
<path style="mix-blend-mode:hard-light" d="M31.3405 41.361C43.1311 26.2697 50.5052 12.3292 47.8109 10.2242C45.1166 8.11919 33.3742 18.6467 21.5835 33.7381C9.79286 48.8295 2.41878 62.7699 5.11308 64.8749C7.80737 66.98 19.5498 56.4524 31.3405 41.361Z" fill="url(#paint3_radial_639_2439)"/>
<path d="M9.01777 59.883C7.6726 58.8282 14.3832 47.9828 24.0134 35.6546C33.6436 23.3264 42.5477 14.1853 43.8929 15.2401C45.2381 16.2948 38.5275 27.1403 28.8973 39.4684C19.2671 51.7966 10.3629 60.9377 9.01777 59.883Z" fill="url(#paint4_radial_639_2439)"/>
</g>
<path d="M32.1378 30.2975C37.9312 34.8298 42.2571 38.98 41.7986 39.5685C41.34 40.157 36.265 36.9698 30.464 32.4375C24.6629 27.9052 20.3446 23.7551 20.8032 23.1665C21.2617 22.578 26.3367 25.7728 32.1378 30.2975Z" fill="url(#paint5_radial_639_2439)"/>
<path style="mix-blend-mode:hard-light" d="M31.5876 30.9931C32.6729 31.8415 33.422 32.6898 33.2614 32.8962C33.1009 33.1026 32.0921 32.5828 31.0068 31.7345C29.9214 30.8861 29.1724 30.0377 29.3329 29.8313C29.4934 29.625 30.5023 30.1447 31.5876 30.9931Z" fill="url(#paint6_radial_639_2439)"/>
<path d="M30.1047 30.4271C34.5376 24.756 38.6648 20.5753 39.3298 21.0874C39.9947 21.5994 36.9299 26.6209 32.4969 32.292C28.064 37.9631 23.9367 42.1439 23.2718 41.6318C22.6145 41.1121 25.6717 36.0982 30.1047 30.4271Z" fill="url(#paint7_radial_639_2439)"/>
<path style="mix-blend-mode:hard-light" d="M30.8842 31.0394C31.7326 29.9541 32.6039 29.2203 32.8331 29.3961C33.0624 29.5719 32.558 30.5961 31.7096 31.6814C30.8612 32.7667 29.9899 33.5004 29.7607 33.3246C29.5314 33.1488 30.0358 32.1247 30.8842 31.0394Z" fill="url(#paint8_radial_639_2439)"/>
<g opacity="0.5">
<path d="M32.1378 30.2975C37.9312 34.8298 42.2571 38.98 41.7986 39.5685C41.34 40.157 36.265 36.9698 30.464 32.4375C24.6629 27.9052 20.3446 23.7551 20.8032 23.1665C21.2617 22.578 26.3367 25.7728 32.1378 30.2975Z" fill="url(#paint9_radial_639_2439)"/>
<path style="mix-blend-mode:hard-light" d="M31.5876 30.9931C32.6729 31.8415 33.422 32.6898 33.2614 32.8962C33.1009 33.1026 32.0921 32.5828 31.0068 31.7345C29.9214 30.8861 29.1724 30.0377 29.3329 29.8313C29.4934 29.625 30.5023 30.1447 31.5876 30.9931Z" fill="url(#paint10_radial_639_2439)"/>
<path d="M30.1047 30.4271C34.5376 24.756 38.6648 20.5753 39.3298 21.0874C39.9947 21.5994 36.9299 26.6209 32.4969 32.292C28.064 37.9631 23.9367 42.1439 23.2718 41.6318C22.6145 41.1121 25.6717 36.0982 30.1047 30.4271Z" fill="url(#paint11_radial_639_2439)"/>
<path style="mix-blend-mode:hard-light" d="M30.8842 31.0394C31.7326 29.9541 32.6039 29.2203 32.8331 29.3961C33.0624 29.5719 32.558 30.5961 31.7096 31.6814C30.8612 32.7667 29.9899 33.5004 29.7607 33.3246C29.5314 33.1488 30.0358 32.1247 30.8842 31.0394Z" fill="url(#paint12_radial_639_2439)"/>
</g>
</g>
<defs>
<linearGradient id="paint0_linear_639_2439" x1="37.9996" y1="28.729" x2="119.207" y2="28.729" gradientUnits="userSpaceOnUse">
<stop stop-color="#FF8CB3"/>
<stop offset="0.22" stop-color="#FF83AE"/>
<stop offset="0.57" stop-color="#FF6DA0"/>
<stop offset="1" stop-color="#FF498B"/>
</linearGradient>
<linearGradient id="paint1_linear_639_2439" x1="63.5734" y1="14.3381" x2="63.5734" y2="98.7552" gradientUnits="userSpaceOnUse">
<stop stop-color="white" stop-opacity="0.9"/>
<stop offset="0.03" stop-color="white" stop-opacity="0.79"/>
<stop offset="0.07" stop-color="white" stop-opacity="0.69"/>
<stop offset="0.11" stop-color="white" stop-opacity="0.6"/>
<stop offset="0.15" stop-color="white" stop-opacity="0.55"/>
<stop offset="0.2" stop-color="white" stop-opacity="0.51"/>
<stop offset="0.28" stop-color="white" stop-opacity="0.5"/>
<stop offset="0.46" stop-color="#FDFDFD" stop-opacity="0.48"/>
<stop offset="0.67" stop-color="#F9F9F9" stop-opacity="0.43"/>
<stop offset="0.89" stop-color="#F3F3F3" stop-opacity="0.35"/>
<stop offset="1" stop-color="#EFEFEF" stop-opacity="0.3"/>
</linearGradient>
<linearGradient id="paint2_linear_639_2439" x1="63.5733" y1="99.52" x2="63.5733" y2="13.5742" gradientUnits="userSpaceOnUse">
<stop stop-color="white" stop-opacity="0.9"/>
<stop offset="0.03" stop-color="white" stop-opacity="0.83"/>
<stop offset="0.11" stop-color="white" stop-opacity="0.68"/>
<stop offset="0.17" stop-color="white" stop-opacity="0.58"/>
<stop offset="0.23" stop-color="white" stop-opacity="0.52"/>
<stop offset="0.28" stop-color="white" stop-opacity="0.5"/>
<stop offset="0.46" stop-color="#FDFDFD" stop-opacity="0.48"/>
<stop offset="0.67" stop-color="#F9F9F9" stop-opacity="0.43"/>
<stop offset="0.89" stop-color="#F3F3F3" stop-opacity="0.35"/>
<stop offset="1" stop-color="#EFEFEF" stop-opacity="0.3"/>
</linearGradient>
<radialGradient id="paint3_radial_639_2439" cx="0" cy="0" r="1" gradientUnits="userSpaceOnUse" gradientTransform="translate(38.9721 48.0023) rotate(128) scale(34.6674 6.21837)">
<stop stop-color="white" stop-opacity="0.6"/>
<stop offset="0.15" stop-color="white" stop-opacity="0.45"/>
<stop offset="0.33" stop-color="white" stop-opacity="0.29"/>
<stop offset="0.52" stop-color="white" stop-opacity="0.16"/>
<stop offset="0.69" stop-color="white" stop-opacity="0.07"/>
<stop offset="0.86" stop-color="white" stop-opacity="0.02"/>
<stop offset="1" stop-color="white" stop-opacity="0"/>
</radialGradient>
<radialGradient id="paint4_radial_639_2439" cx="0" cy="0" r="1" gradientUnits="userSpaceOnUse" gradientTransform="translate(38.3841 43.8111) rotate(128) scale(28.3021 3.10093)">
<stop stop-color="white" stop-opacity="0.96"/>
<stop offset="0.05" stop-color="white" stop-opacity="0.78"/>
<stop offset="0.09" stop-color="white" stop-opacity="0.61"/>
<stop offset="0.14" stop-color="white" stop-opacity="0.47"/>
<stop offset="0.2" stop-color="white" stop-opacity="0.34"/>
<stop offset="0.25" stop-color="white" stop-opacity="0.23"/>
<stop offset="0.32" stop-color="white" stop-opacity="0.15"/>
<stop offset="0.4" stop-color="white" stop-opacity="0.08"/>
<stop offset="0.49" stop-color="white" stop-opacity="0.03"/>
<stop offset="0.63" stop-color="white" stop-opacity="0"/>
<stop offset="1" stop-color="white" stop-opacity="0"/>
</radialGradient>
<radialGradient id="paint5_radial_639_2439" cx="0" cy="0" r="1" gradientUnits="userSpaceOnUse" gradientTransform="translate(67.7537 -18.2484) rotate(-52) scale(1.3665 13.3054)">
<stop stop-color="white"/>
<stop offset="0.05" stop-color="white" stop-opacity="0.89"/>
<stop offset="0.15" stop-color="white" stop-opacity="0.69"/>
<stop offset="0.26" stop-color="white" stop-opacity="0.5"/>
<stop offset="0.37" stop-color="white" stop-opacity="0.35"/>
<stop offset="0.48" stop-color="white" stop-opacity="0.22"/>
<stop offset="0.6" stop-color="white" stop-opacity="0.12"/>
<stop offset="0.72" stop-color="white" stop-opacity="0.05"/>
<stop offset="0.85" stop-color="white" stop-opacity="0.01"/>
<stop offset="1" stop-color="white" stop-opacity="0"/>
</radialGradient>
<radialGradient id="paint6_radial_639_2439" cx="0" cy="0" r="1" gradientUnits="userSpaceOnUse" gradientTransform="translate(69.1404 -17.1238) rotate(-52.0001) scale(0.473409 2.49163)">
<stop stop-color="white"/>
<stop offset="0.05" stop-color="white" stop-opacity="0.89"/>
<stop offset="0.15" stop-color="white" stop-opacity="0.69"/>
<stop offset="0.26" stop-color="white" stop-opacity="0.5"/>
<stop offset="0.37" stop-color="white" stop-opacity="0.35"/>
<stop offset="0.48" stop-color="white" stop-opacity="0.22"/>
<stop offset="0.6" stop-color="white" stop-opacity="0.12"/>
<stop offset="0.72" stop-color="white" stop-opacity="0.05"/>
<stop offset="0.85" stop-color="white" stop-opacity="0.01"/>
<stop offset="1" stop-color="white" stop-opacity="0"/>
</radialGradient>
<radialGradient id="paint7_radial_639_2439" cx="0" cy="0" r="1" gradientUnits="userSpaceOnUse" gradientTransform="translate(48.4949 53.014) rotate(-141.99) scale(1.51034 13.0177)">
<stop stop-color="white"/>
<stop offset="0.05" stop-color="white" stop-opacity="0.89"/>
<stop offset="0.15" stop-color="white" stop-opacity="0.69"/>
<stop offset="0.26" stop-color="white" stop-opacity="0.5"/>
<stop offset="0.37" stop-color="white" stop-opacity="0.35"/>
<stop offset="0.48" stop-color="white" stop-opacity="0.22"/>
<stop offset="0.6" stop-color="white" stop-opacity="0.12"/>
<stop offset="0.72" stop-color="white" stop-opacity="0.05"/>
<stop offset="0.85" stop-color="white" stop-opacity="0.01"/>
<stop offset="1" stop-color="white" stop-opacity="0"/>
</radialGradient>
<radialGradient id="paint8_radial_639_2439" cx="0" cy="0" r="1" gradientUnits="userSpaceOnUse" gradientTransform="translate(52.3388 47.9684) rotate(-141.99) scale(0.523241 2.49162)">
<stop stop-color="white"/>
<stop offset="0.05" stop-color="white" stop-opacity="0.89"/>
<stop offset="0.15" stop-color="white" stop-opacity="0.69"/>
<stop offset="0.26" stop-color="white" stop-opacity="0.5"/>
<stop offset="0.37" stop-color="white" stop-opacity="0.35"/>
<stop offset="0.48" stop-color="white" stop-opacity="0.22"/>
<stop offset="0.6" stop-color="white" stop-opacity="0.12"/>
<stop offset="0.72" stop-color="white" stop-opacity="0.05"/>
<stop offset="0.85" stop-color="white" stop-opacity="0.01"/>
<stop offset="1" stop-color="white" stop-opacity="0"/>
</radialGradient>
<radialGradient id="paint9_radial_639_2439" cx="0" cy="0" r="1" gradientUnits="userSpaceOnUse" gradientTransform="translate(67.7537 -18.2484) rotate(-52) scale(1.3665 13.3054)">
<stop stop-color="white"/>
<stop offset="0.05" stop-color="white" stop-opacity="0.89"/>
<stop offset="0.15" stop-color="white" stop-opacity="0.69"/>
<stop offset="0.26" stop-color="white" stop-opacity="0.5"/>
<stop offset="0.37" stop-color="white" stop-opacity="0.35"/>
<stop offset="0.48" stop-color="white" stop-opacity="0.22"/>
<stop offset="0.6" stop-color="white" stop-opacity="0.12"/>
<stop offset="0.72" stop-color="white" stop-opacity="0.05"/>
<stop offset="0.85" stop-color="white" stop-opacity="0.01"/>
<stop offset="1" stop-color="white" stop-opacity="0"/>
</radialGradient>
<radialGradient id="paint10_radial_639_2439" cx="0" cy="0" r="1" gradientUnits="userSpaceOnUse" gradientTransform="translate(69.1404 -17.1238) rotate(-52.0001) scale(0.473409 2.49163)">
<stop stop-color="white"/>
<stop offset="0.05" stop-color="white" stop-opacity="0.89"/>
<stop offset="0.15" stop-color="white" stop-opacity="0.69"/>
<stop offset="0.26" stop-color="white" stop-opacity="0.5"/>
<stop offset="0.37" stop-color="white" stop-opacity="0.35"/>
<stop offset="0.48" stop-color="white" stop-opacity="0.22"/>
<stop offset="0.6" stop-color="white" stop-opacity="0.12"/>
<stop offset="0.72" stop-color="white" stop-opacity="0.05"/>
<stop offset="0.85" stop-color="white" stop-opacity="0.01"/>
<stop offset="1" stop-color="white" stop-opacity="0"/>
</radialGradient>
<radialGradient id="paint11_radial_639_2439" cx="0" cy="0" r="1" gradientUnits="userSpaceOnUse" gradientTransform="translate(48.4949 53.014) rotate(-141.99) scale(1.51034 13.0177)">
<stop stop-color="white"/>
<stop offset="0.05" stop-color="white" stop-opacity="0.89"/>
<stop offset="0.15" stop-color="white" stop-opacity="0.69"/>
<stop offset="0.26" stop-color="white" stop-opacity="0.5"/>
<stop offset="0.37" stop-color="white" stop-opacity="0.35"/>
<stop offset="0.48" stop-color="white" stop-opacity="0.22"/>
<stop offset="0.6" stop-color="white" stop-opacity="0.12"/>
<stop offset="0.72" stop-color="white" stop-opacity="0.05"/>
<stop offset="0.85" stop-color="white" stop-opacity="0.01"/>
<stop offset="1" stop-color="white" stop-opacity="0"/>
</radialGradient>
<radialGradient id="paint12_radial_639_2439" cx="0" cy="0" r="1" gradientUnits="userSpaceOnUse" gradientTransform="translate(52.3388 47.9684) rotate(-141.99) scale(0.523241 2.49162)">
<stop stop-color="white"/>
<stop offset="0.05" stop-color="white" stop-opacity="0.89"/>
<stop offset="0.15" stop-color="white" stop-opacity="0.69"/>
<stop offset="0.26" stop-color="white" stop-opacity="0.5"/>
<stop offset="0.37" stop-color="white" stop-opacity="0.35"/>
<stop offset="0.48" stop-color="white" stop-opacity="0.22"/>
<stop offset="0.6" stop-color="white" stop-opacity="0.12"/>
<stop offset="0.72" stop-color="white" stop-opacity="0.05"/>
<stop offset="0.85" stop-color="white" stop-opacity="0.01"/>
<stop offset="1" stop-color="white" stop-opacity="0"/>
</radialGradient>
</defs>
</svg>
