<svg width="116" height="100" viewBox="0 0 116 100" fill="none" xmlns="http://www.w3.org/2000/svg">
<path d="M95.0168 45.854H66.6979C66.7198 43.9554 66.6322 27.9704 66.6322 27.9704C66.6175 26.3638 65.3177 25.0713 63.7112 25.0713H63.6893C62.0754 25.0859 60.7756 26.4003 60.7902 28.0142C60.834 34.2286 60.8852 41.3265 60.8632 45.854H32.4056C30.7918 45.854 29.4846 47.1612 29.4846 48.775V64.4096C29.4846 66.0234 30.7918 67.3305 32.4056 67.3305C34.0194 67.3305 35.3266 66.0234 35.3266 64.4096V51.696H92.1031V64.4096C92.1031 66.0234 93.4102 67.3305 95.0241 67.3305C96.6379 67.3305 97.945 66.0234 97.945 64.4096V48.775C97.945 47.1612 96.6379 45.854 95.0241 45.854H95.0168Z" fill="url(#paint0_linear_783_4423)"/>
<g style="mix-blend-mode:overlay">
<path d="M13.4777 88.4942C6.44541 88.4942 0.749512 87.91 0.749512 87.1944C0.749512 86.4787 6.44541 85.8945 13.4777 85.8945C20.5099 85.8945 26.2058 86.4787 26.2058 87.1944C26.2058 87.91 20.5099 88.4942 13.4777 88.4942Z" fill="url(#paint1_radial_783_4423)"/>
<path style="mix-blend-mode:hard-light" d="M13.4775 87.6477C12.1631 87.6477 11.0969 87.4432 11.0969 87.1949C11.0969 86.9467 12.1631 86.7422 13.4775 86.7422C14.792 86.7422 15.8581 86.9467 15.8581 87.1949C15.8581 87.4432 14.792 87.6477 13.4775 87.6477Z" fill="url(#paint2_radial_783_4423)"/>
<path d="M14.9308 87.1943C14.9308 94.0732 14.2809 99.6523 13.4776 99.6523C12.6743 99.6523 12.0244 94.0732 12.0244 87.1943C12.0244 80.3154 12.6743 74.7363 13.4776 74.7363C14.2809 74.7363 14.9308 80.3154 14.9308 87.1943Z" fill="url(#paint3_radial_783_4423)"/>
<path style="mix-blend-mode:hard-light" d="M13.9814 87.1941C13.9814 88.5085 13.755 89.5747 13.4775 89.5747C13.2 89.5747 12.9736 88.5085 12.9736 87.1941C12.9736 85.8796 13.2 84.8135 13.4775 84.8135C13.755 84.8135 13.9814 85.8796 13.9814 87.1941Z" fill="url(#paint4_radial_783_4423)"/>
<g opacity="0.5">
<path d="M13.4777 88.4942C6.44541 88.4942 0.749512 87.91 0.749512 87.1944C0.749512 86.4787 6.44541 85.8945 13.4777 85.8945C20.5099 85.8945 26.2058 86.4787 26.2058 87.1944C26.2058 87.91 20.5099 88.4942 13.4777 88.4942Z" fill="url(#paint5_radial_783_4423)"/>
<path style="mix-blend-mode:hard-light" d="M13.4775 87.6477C12.1631 87.6477 11.0969 87.4432 11.0969 87.1949C11.0969 86.9467 12.1631 86.7422 13.4775 86.7422C14.792 86.7422 15.8581 86.9467 15.8581 87.1949C15.8581 87.4432 14.792 87.6477 13.4775 87.6477Z" fill="url(#paint6_radial_783_4423)"/>
<path d="M14.9308 87.1943C14.9308 94.0732 14.2809 99.6523 13.4776 99.6523C12.6743 99.6523 12.0244 94.0732 12.0244 87.1943C12.0244 80.3154 12.6743 74.7363 13.4776 74.7363C14.2809 74.7363 14.9308 80.3154 14.9308 87.1943Z" fill="url(#paint7_radial_783_4423)"/>
<path style="mix-blend-mode:hard-light" d="M13.9814 87.1941C13.9814 88.5085 13.755 89.5747 13.4775 89.5747C13.2 89.5747 12.9736 88.5085 12.9736 87.1941C12.9736 85.8796 13.2 84.8135 13.4775 84.8135C13.755 84.8135 13.9814 85.8796 13.9814 87.1941Z" fill="url(#paint8_radial_783_4423)"/>
</g>
</g>
<path d="M82.3547 1.68945H45.0611C42.0969 1.68945 39.6938 4.09248 39.6938 7.05675V34.2876C39.6938 37.2518 42.0969 39.6549 45.0611 39.6549H82.3547C85.319 39.6549 87.722 37.2518 87.722 34.2876V7.05675C87.722 4.09248 85.319 1.68945 82.3547 1.68945Z" fill="url(#paint9_linear_783_4423)"/>
<path d="M82.3547 1.68923C85.3195 1.68923 87.722 4.09174 87.722 7.05653V34.2873C87.722 37.2521 85.3195 39.6546 82.3547 39.6546H45.0611C42.0964 39.6546 39.6939 37.2521 39.6939 34.2873V7.05653C39.6939 4.09174 42.0964 1.68923 45.0611 1.68923H82.3547ZM82.3547 0.958984H45.0611C41.702 0.958984 38.9636 3.69741 38.9636 7.05653V34.2873C38.9636 37.6465 41.702 40.3849 45.0611 40.3849H82.3547C85.7139 40.3849 88.4523 37.6465 88.4523 34.2873V7.05653C88.4523 3.69741 85.7139 0.958984 82.3547 0.958984Z" fill="url(#paint10_linear_783_4423)"/>
<path d="M82.3547 1.68945H45.0611C42.0963 1.68945 39.6938 4.09196 39.6938 7.05675V8.49531C39.6938 5.53052 42.0963 3.12804 45.0611 3.12804H82.3547C85.3195 3.12804 87.722 5.53052 87.722 8.49531V7.05675C87.722 4.09196 85.3195 1.68945 82.3547 1.68945Z" fill="url(#paint11_linear_783_4423)"/>
<path d="M76.4396 17.5433H50.9687C50.0048 17.5433 49.2234 16.7619 49.2234 15.798C49.2234 14.8341 50.0048 14.0527 50.9687 14.0527H76.4396C77.4035 14.0527 78.1849 14.8341 78.1849 15.798C78.1849 16.7619 77.4035 17.5433 76.4396 17.5433Z" fill="white"/>
<path d="M76.4396 27.2992H50.9687C50.0048 27.2992 49.2234 26.5178 49.2234 25.5539C49.2234 24.59 50.0048 23.8086 50.9687 23.8086H76.4396C77.4035 23.8086 78.1849 24.59 78.1849 25.5539C78.1849 26.5178 77.4035 27.2992 76.4396 27.2992Z" fill="white"/>
<path d="M47.1348 57.1807H17.6548C15.3116 57.1807 13.4121 59.0802 13.4121 61.4234V82.951C13.4121 85.2942 15.3116 87.1937 17.6548 87.1937H47.1348C49.478 87.1937 51.3775 85.2942 51.3775 82.951V61.4234C51.3775 59.0802 49.478 57.1807 47.1348 57.1807Z" fill="url(#paint12_linear_783_4423)"/>
<path d="M47.1348 57.1804C49.4789 57.1804 51.3775 59.0791 51.3775 61.4232V82.9508C51.3775 85.2949 49.4789 87.1935 47.1348 87.1935H17.6548C15.3108 87.1935 13.4121 85.2949 13.4121 82.9508V61.4232C13.4121 59.0791 15.3108 57.1804 17.6548 57.1804H47.1348ZM47.1348 56.4502H17.6548C14.9091 56.4502 12.6819 58.6847 12.6819 61.4232V82.9508C12.6819 85.6965 14.9164 87.9237 17.6548 87.9237H47.1348C49.8805 87.9237 52.1078 85.6892 52.1078 82.9508V61.4232C52.1078 58.6774 49.8732 56.4502 47.1348 56.4502Z" fill="url(#paint13_linear_783_4423)"/>
<path d="M47.1348 57.1807H17.6548C15.3107 57.1807 13.4121 59.0793 13.4121 61.4234V63.1979C13.4121 60.8538 15.3107 58.9552 17.6548 58.9552H47.1348C49.4789 58.9552 51.3775 60.8538 51.3775 63.1979V61.4234C51.3775 59.0793 49.4789 57.1807 47.1348 57.1807Z" fill="url(#paint14_linear_783_4423)"/>
<path d="M41.4826 69.055H23.3141C22.3502 69.055 21.5688 68.2736 21.5688 67.3097C21.5688 66.3458 22.3502 65.5645 23.3141 65.5645H41.4826C42.4465 65.5645 43.2279 66.3458 43.2279 67.3097C43.2279 68.2736 42.4465 69.055 41.4826 69.055Z" fill="white"/>
<path d="M41.4826 78.8109H23.3141C22.3502 78.8109 21.5688 78.0295 21.5688 77.0656C21.5688 76.1017 22.3502 75.3203 23.3141 75.3203H41.4826C42.4465 75.3203 43.2279 76.1017 43.2279 77.0656C43.2279 78.0295 42.4465 78.8109 41.4826 78.8109Z" fill="white"/>
<path d="M110.272 57.1807H80.7918C78.4486 57.1807 76.5491 59.0802 76.5491 61.4234V82.951C76.5491 85.2942 78.4486 87.1937 80.7918 87.1937H110.272C112.615 87.1937 114.514 85.2942 114.514 82.951V61.4234C114.514 59.0802 112.615 57.1807 110.272 57.1807Z" fill="url(#paint15_linear_783_4423)"/>
<path d="M110.272 57.1804C112.616 57.1804 114.515 59.0791 114.515 61.4232V82.9508C114.515 85.2949 112.616 87.1935 110.272 87.1935H80.7921C78.448 87.1935 76.5493 85.2949 76.5493 82.9508V61.4232C76.5493 59.0791 78.448 57.1804 80.7921 57.1804H110.272ZM110.272 56.4502H80.7921C78.0463 56.4502 75.8191 58.6847 75.8191 61.4232V82.9508C75.8191 85.6965 78.0536 87.9237 80.7921 87.9237H110.272C113.018 87.9237 115.245 85.6892 115.245 82.9508V61.4232C115.245 58.6774 113.01 56.4502 110.272 56.4502Z" fill="url(#paint16_linear_783_4423)"/>
<path d="M110.272 57.1807H80.7918C78.4477 57.1807 76.5491 59.0793 76.5491 61.4234V63.1979C76.5491 60.8538 78.4477 58.9552 80.7918 58.9552H110.272C112.616 58.9552 114.514 60.8538 114.514 63.1979V61.4234C114.514 59.0793 112.616 57.1807 110.272 57.1807Z" fill="url(#paint17_linear_783_4423)"/>
<path d="M104.62 69.055H86.4513C85.4874 69.055 84.7061 68.2736 84.7061 67.3097C84.7061 66.3458 85.4874 65.5645 86.4513 65.5645H104.62C105.584 65.5645 106.365 66.3458 106.365 67.3097C106.365 68.2736 105.584 69.055 104.62 69.055Z" fill="white"/>
<path d="M104.62 78.8109H86.4511C85.4872 78.8109 84.7058 78.0295 84.7058 77.0656C84.7058 76.1017 85.4872 75.3203 86.4511 75.3203H104.62C105.584 75.3203 106.365 76.1017 106.365 77.0656C106.365 78.0295 105.584 78.8109 104.62 78.8109Z" fill="white"/>
<defs>
<linearGradient id="paint0_linear_783_4423" x1="63.7039" y1="25.0713" x2="63.7039" y2="67.3305" gradientUnits="userSpaceOnUse">
<stop stop-color="#FFEBB5"/>
<stop offset="0.11" stop-color="#FFE8AC"/>
<stop offset="0.28" stop-color="#FFE296"/>
<stop offset="0.49" stop-color="#FFD971"/>
<stop offset="0.74" stop-color="#FFCC3E"/>
<stop offset="1" stop-color="#FFBC00"/>
</linearGradient>
<radialGradient id="paint1_radial_783_4423" cx="0" cy="0" r="1" gradientUnits="userSpaceOnUse" gradientTransform="translate(15.0108 129.768) rotate(90) scale(1.3056 12.7125)">
<stop stop-color="white"/>
<stop offset="0.05" stop-color="white" stop-opacity="0.89"/>
<stop offset="0.15" stop-color="white" stop-opacity="0.69"/>
<stop offset="0.26" stop-color="white" stop-opacity="0.5"/>
<stop offset="0.37" stop-color="white" stop-opacity="0.35"/>
<stop offset="0.48" stop-color="white" stop-opacity="0.22"/>
<stop offset="0.6" stop-color="white" stop-opacity="0.12"/>
<stop offset="0.72" stop-color="white" stop-opacity="0.05"/>
<stop offset="0.85" stop-color="white" stop-opacity="0.01"/>
<stop offset="1" stop-color="white" stop-opacity="0"/>
</radialGradient>
<radialGradient id="paint2_radial_783_4423" cx="0" cy="0" r="1" gradientUnits="userSpaceOnUse" gradientTransform="translate(13.4775 129.766) rotate(90) scale(0.45231 2.3806)">
<stop stop-color="white"/>
<stop offset="0.05" stop-color="white" stop-opacity="0.89"/>
<stop offset="0.15" stop-color="white" stop-opacity="0.69"/>
<stop offset="0.26" stop-color="white" stop-opacity="0.5"/>
<stop offset="0.37" stop-color="white" stop-opacity="0.35"/>
<stop offset="0.48" stop-color="white" stop-opacity="0.22"/>
<stop offset="0.6" stop-color="white" stop-opacity="0.12"/>
<stop offset="0.72" stop-color="white" stop-opacity="0.05"/>
<stop offset="0.85" stop-color="white" stop-opacity="0.01"/>
<stop offset="1" stop-color="white" stop-opacity="0"/>
</radialGradient>
<radialGradient id="paint3_radial_783_4423" cx="0" cy="0" r="1" gradientUnits="userSpaceOnUse" gradientTransform="translate(-11.0197 84.5802) scale(1.44303 12.4376)">
<stop stop-color="white"/>
<stop offset="0.05" stop-color="white" stop-opacity="0.89"/>
<stop offset="0.15" stop-color="white" stop-opacity="0.69"/>
<stop offset="0.26" stop-color="white" stop-opacity="0.5"/>
<stop offset="0.37" stop-color="white" stop-opacity="0.35"/>
<stop offset="0.48" stop-color="white" stop-opacity="0.22"/>
<stop offset="0.6" stop-color="white" stop-opacity="0.12"/>
<stop offset="0.72" stop-color="white" stop-opacity="0.05"/>
<stop offset="0.85" stop-color="white" stop-opacity="0.01"/>
<stop offset="1" stop-color="white" stop-opacity="0"/>
</radialGradient>
<radialGradient id="paint4_radial_783_4423" cx="0" cy="0" r="1" gradientUnits="userSpaceOnUse" gradientTransform="translate(-11.023 87.1941) scale(0.499927 2.3806)">
<stop stop-color="white"/>
<stop offset="0.05" stop-color="white" stop-opacity="0.89"/>
<stop offset="0.15" stop-color="white" stop-opacity="0.69"/>
<stop offset="0.26" stop-color="white" stop-opacity="0.5"/>
<stop offset="0.37" stop-color="white" stop-opacity="0.35"/>
<stop offset="0.48" stop-color="white" stop-opacity="0.22"/>
<stop offset="0.6" stop-color="white" stop-opacity="0.12"/>
<stop offset="0.72" stop-color="white" stop-opacity="0.05"/>
<stop offset="0.85" stop-color="white" stop-opacity="0.01"/>
<stop offset="1" stop-color="white" stop-opacity="0"/>
</radialGradient>
<radialGradient id="paint5_radial_783_4423" cx="0" cy="0" r="1" gradientUnits="userSpaceOnUse" gradientTransform="translate(15.0108 129.768) rotate(90) scale(1.3056 12.7125)">
<stop stop-color="white"/>
<stop offset="0.05" stop-color="white" stop-opacity="0.89"/>
<stop offset="0.15" stop-color="white" stop-opacity="0.69"/>
<stop offset="0.26" stop-color="white" stop-opacity="0.5"/>
<stop offset="0.37" stop-color="white" stop-opacity="0.35"/>
<stop offset="0.48" stop-color="white" stop-opacity="0.22"/>
<stop offset="0.6" stop-color="white" stop-opacity="0.12"/>
<stop offset="0.72" stop-color="white" stop-opacity="0.05"/>
<stop offset="0.85" stop-color="white" stop-opacity="0.01"/>
<stop offset="1" stop-color="white" stop-opacity="0"/>
</radialGradient>
<radialGradient id="paint6_radial_783_4423" cx="0" cy="0" r="1" gradientUnits="userSpaceOnUse" gradientTransform="translate(13.4775 129.766) rotate(90) scale(0.45231 2.3806)">
<stop stop-color="white"/>
<stop offset="0.05" stop-color="white" stop-opacity="0.89"/>
<stop offset="0.15" stop-color="white" stop-opacity="0.69"/>
<stop offset="0.26" stop-color="white" stop-opacity="0.5"/>
<stop offset="0.37" stop-color="white" stop-opacity="0.35"/>
<stop offset="0.48" stop-color="white" stop-opacity="0.22"/>
<stop offset="0.6" stop-color="white" stop-opacity="0.12"/>
<stop offset="0.72" stop-color="white" stop-opacity="0.05"/>
<stop offset="0.85" stop-color="white" stop-opacity="0.01"/>
<stop offset="1" stop-color="white" stop-opacity="0"/>
</radialGradient>
<radialGradient id="paint7_radial_783_4423" cx="0" cy="0" r="1" gradientUnits="userSpaceOnUse" gradientTransform="translate(-11.0197 84.5802) scale(1.44303 12.4376)">
<stop stop-color="white"/>
<stop offset="0.05" stop-color="white" stop-opacity="0.89"/>
<stop offset="0.15" stop-color="white" stop-opacity="0.69"/>
<stop offset="0.26" stop-color="white" stop-opacity="0.5"/>
<stop offset="0.37" stop-color="white" stop-opacity="0.35"/>
<stop offset="0.48" stop-color="white" stop-opacity="0.22"/>
<stop offset="0.6" stop-color="white" stop-opacity="0.12"/>
<stop offset="0.72" stop-color="white" stop-opacity="0.05"/>
<stop offset="0.85" stop-color="white" stop-opacity="0.01"/>
<stop offset="1" stop-color="white" stop-opacity="0"/>
</radialGradient>
<radialGradient id="paint8_radial_783_4423" cx="0" cy="0" r="1" gradientUnits="userSpaceOnUse" gradientTransform="translate(-11.023 87.1941) scale(0.499927 2.3806)">
<stop stop-color="white"/>
<stop offset="0.05" stop-color="white" stop-opacity="0.89"/>
<stop offset="0.15" stop-color="white" stop-opacity="0.69"/>
<stop offset="0.26" stop-color="white" stop-opacity="0.5"/>
<stop offset="0.37" stop-color="white" stop-opacity="0.35"/>
<stop offset="0.48" stop-color="white" stop-opacity="0.22"/>
<stop offset="0.6" stop-color="white" stop-opacity="0.12"/>
<stop offset="0.72" stop-color="white" stop-opacity="0.05"/>
<stop offset="0.85" stop-color="white" stop-opacity="0.01"/>
<stop offset="1" stop-color="white" stop-opacity="0"/>
</radialGradient>
<linearGradient id="paint9_linear_783_4423" x1="63.7043" y1="1.68945" x2="63.7043" y2="39.6549" gradientUnits="userSpaceOnUse">
<stop stop-color="white" stop-opacity="0.9"/>
<stop offset="0.03" stop-color="white" stop-opacity="0.79"/>
<stop offset="0.07" stop-color="white" stop-opacity="0.69"/>
<stop offset="0.11" stop-color="white" stop-opacity="0.6"/>
<stop offset="0.15" stop-color="white" stop-opacity="0.55"/>
<stop offset="0.2" stop-color="white" stop-opacity="0.51"/>
<stop offset="0.28" stop-color="white" stop-opacity="0.5"/>
<stop offset="0.46" stop-color="#FDFDFD" stop-opacity="0.48"/>
<stop offset="0.67" stop-color="#F9F9F9" stop-opacity="0.43"/>
<stop offset="0.89" stop-color="#F3F3F3" stop-opacity="0.35"/>
<stop offset="1" stop-color="#EFEFEF" stop-opacity="0.3"/>
</linearGradient>
<linearGradient id="paint10_linear_783_4423" x1="63.7043" y1="40.3849" x2="63.7043" y2="0.958984" gradientUnits="userSpaceOnUse">
<stop stop-color="white" stop-opacity="0.9"/>
<stop offset="0.03" stop-color="white" stop-opacity="0.83"/>
<stop offset="0.11" stop-color="white" stop-opacity="0.68"/>
<stop offset="0.17" stop-color="white" stop-opacity="0.58"/>
<stop offset="0.23" stop-color="white" stop-opacity="0.52"/>
<stop offset="0.28" stop-color="white" stop-opacity="0.5"/>
<stop offset="0.46" stop-color="#FDFDFD" stop-opacity="0.48"/>
<stop offset="0.67" stop-color="#F9F9F9" stop-opacity="0.43"/>
<stop offset="0.89" stop-color="#F3F3F3" stop-opacity="0.35"/>
<stop offset="1" stop-color="#EFEFEF" stop-opacity="0.3"/>
</linearGradient>
<linearGradient id="paint11_linear_783_4423" x1="63.7043" y1="1.68945" x2="63.7043" y2="8.49531" gradientUnits="userSpaceOnUse">
<stop stop-color="white" stop-opacity="0.9"/>
<stop offset="0.03" stop-color="white" stop-opacity="0.79"/>
<stop offset="0.07" stop-color="white" stop-opacity="0.69"/>
<stop offset="0.11" stop-color="white" stop-opacity="0.6"/>
<stop offset="0.15" stop-color="white" stop-opacity="0.55"/>
<stop offset="0.2" stop-color="white" stop-opacity="0.51"/>
<stop offset="0.28" stop-color="white" stop-opacity="0.5"/>
<stop offset="0.46" stop-color="#FDFDFD" stop-opacity="0.48"/>
<stop offset="0.67" stop-color="#F9F9F9" stop-opacity="0.43"/>
<stop offset="0.89" stop-color="#F3F3F3" stop-opacity="0.35"/>
<stop offset="1" stop-color="#EFEFEF" stop-opacity="0.3"/>
</linearGradient>
<linearGradient id="paint12_linear_783_4423" x1="32.3985" y1="57.1807" x2="32.3985" y2="87.1937" gradientUnits="userSpaceOnUse">
<stop stop-color="white" stop-opacity="0.9"/>
<stop offset="0.03" stop-color="white" stop-opacity="0.79"/>
<stop offset="0.07" stop-color="white" stop-opacity="0.69"/>
<stop offset="0.11" stop-color="white" stop-opacity="0.6"/>
<stop offset="0.15" stop-color="white" stop-opacity="0.55"/>
<stop offset="0.2" stop-color="white" stop-opacity="0.51"/>
<stop offset="0.28" stop-color="white" stop-opacity="0.5"/>
<stop offset="0.46" stop-color="#FDFDFD" stop-opacity="0.48"/>
<stop offset="0.67" stop-color="#F9F9F9" stop-opacity="0.43"/>
<stop offset="0.89" stop-color="#F3F3F3" stop-opacity="0.35"/>
<stop offset="1" stop-color="#EFEFEF" stop-opacity="0.3"/>
</linearGradient>
<linearGradient id="paint13_linear_783_4423" x1="32.3985" y1="87.9237" x2="32.3985" y2="56.4502" gradientUnits="userSpaceOnUse">
<stop stop-color="white" stop-opacity="0.9"/>
<stop offset="0.03" stop-color="white" stop-opacity="0.83"/>
<stop offset="0.11" stop-color="white" stop-opacity="0.68"/>
<stop offset="0.17" stop-color="white" stop-opacity="0.58"/>
<stop offset="0.23" stop-color="white" stop-opacity="0.52"/>
<stop offset="0.28" stop-color="white" stop-opacity="0.5"/>
<stop offset="0.46" stop-color="#FDFDFD" stop-opacity="0.48"/>
<stop offset="0.67" stop-color="#F9F9F9" stop-opacity="0.43"/>
<stop offset="0.89" stop-color="#F3F3F3" stop-opacity="0.35"/>
<stop offset="1" stop-color="#EFEFEF" stop-opacity="0.3"/>
</linearGradient>
<linearGradient id="paint14_linear_783_4423" x1="32.3985" y1="57.1807" x2="32.3985" y2="63.1979" gradientUnits="userSpaceOnUse">
<stop stop-color="white" stop-opacity="0.9"/>
<stop offset="0.03" stop-color="white" stop-opacity="0.79"/>
<stop offset="0.07" stop-color="white" stop-opacity="0.69"/>
<stop offset="0.11" stop-color="white" stop-opacity="0.6"/>
<stop offset="0.15" stop-color="white" stop-opacity="0.55"/>
<stop offset="0.2" stop-color="white" stop-opacity="0.51"/>
<stop offset="0.28" stop-color="white" stop-opacity="0.5"/>
<stop offset="0.46" stop-color="#FDFDFD" stop-opacity="0.48"/>
<stop offset="0.67" stop-color="#F9F9F9" stop-opacity="0.43"/>
<stop offset="0.89" stop-color="#F3F3F3" stop-opacity="0.35"/>
<stop offset="1" stop-color="#EFEFEF" stop-opacity="0.3"/>
</linearGradient>
<linearGradient id="paint15_linear_783_4423" x1="95.5354" y1="57.1807" x2="95.5354" y2="87.1937" gradientUnits="userSpaceOnUse">
<stop stop-color="white" stop-opacity="0.9"/>
<stop offset="0.03" stop-color="white" stop-opacity="0.79"/>
<stop offset="0.07" stop-color="white" stop-opacity="0.69"/>
<stop offset="0.11" stop-color="white" stop-opacity="0.6"/>
<stop offset="0.15" stop-color="white" stop-opacity="0.55"/>
<stop offset="0.2" stop-color="white" stop-opacity="0.51"/>
<stop offset="0.28" stop-color="white" stop-opacity="0.5"/>
<stop offset="0.46" stop-color="#FDFDFD" stop-opacity="0.48"/>
<stop offset="0.67" stop-color="#F9F9F9" stop-opacity="0.43"/>
<stop offset="0.89" stop-color="#F3F3F3" stop-opacity="0.35"/>
<stop offset="1" stop-color="#EFEFEF" stop-opacity="0.3"/>
</linearGradient>
<linearGradient id="paint16_linear_783_4423" x1="95.5357" y1="87.9237" x2="95.5357" y2="56.4502" gradientUnits="userSpaceOnUse">
<stop stop-color="white" stop-opacity="0.9"/>
<stop offset="0.03" stop-color="white" stop-opacity="0.83"/>
<stop offset="0.11" stop-color="white" stop-opacity="0.68"/>
<stop offset="0.17" stop-color="white" stop-opacity="0.58"/>
<stop offset="0.23" stop-color="white" stop-opacity="0.52"/>
<stop offset="0.28" stop-color="white" stop-opacity="0.5"/>
<stop offset="0.46" stop-color="#FDFDFD" stop-opacity="0.48"/>
<stop offset="0.67" stop-color="#F9F9F9" stop-opacity="0.43"/>
<stop offset="0.89" stop-color="#F3F3F3" stop-opacity="0.35"/>
<stop offset="1" stop-color="#EFEFEF" stop-opacity="0.3"/>
</linearGradient>
<linearGradient id="paint17_linear_783_4423" x1="95.5354" y1="57.1807" x2="95.5354" y2="63.1979" gradientUnits="userSpaceOnUse">
<stop stop-color="white" stop-opacity="0.9"/>
<stop offset="0.03" stop-color="white" stop-opacity="0.79"/>
<stop offset="0.07" stop-color="white" stop-opacity="0.69"/>
<stop offset="0.11" stop-color="white" stop-opacity="0.6"/>
<stop offset="0.15" stop-color="white" stop-opacity="0.55"/>
<stop offset="0.2" stop-color="white" stop-opacity="0.51"/>
<stop offset="0.28" stop-color="white" stop-opacity="0.5"/>
<stop offset="0.46" stop-color="#FDFDFD" stop-opacity="0.48"/>
<stop offset="0.67" stop-color="#F9F9F9" stop-opacity="0.43"/>
<stop offset="0.89" stop-color="#F3F3F3" stop-opacity="0.35"/>
<stop offset="1" stop-color="#EFEFEF" stop-opacity="0.3"/>
</linearGradient>
</defs>
</svg>
