<svg width="19" height="19" viewBox="0 0 19 19" fill="none" xmlns="http://www.w3.org/2000/svg">
<path d="M18.6615 17.3391L14.0142 12.766C15.2312 11.4438 15.9789 9.69518 15.9789 7.77098C15.9783 3.65475 12.5879 0.318359 8.4053 0.318359C4.22269 0.318359 0.832275 3.65475 0.832275 7.77098C0.832275 11.8872 4.22269 15.2236 8.4053 15.2236C10.2125 15.2236 11.87 14.5985 13.1719 13.5593L17.8373 18.1504C18.0646 18.3743 18.4336 18.3743 18.661 18.1504C18.8888 17.9265 18.8888 17.563 18.6615 17.3391ZM8.4053 14.077C4.86636 14.077 1.99749 11.2537 1.99749 7.77098C1.99749 4.28827 4.86636 1.46499 8.4053 1.46499C11.9443 1.46499 14.8131 4.28827 14.8131 7.77098C14.8131 11.2537 11.9443 14.077 8.4053 14.077Z" fill="#A3A3A3"/>
</svg>
