<svg width="21" height="21" viewBox="0 0 21 21" fill="none" xmlns="http://www.w3.org/2000/svg">
<path d="M3.85036 16.8684C3.05421 16.0722 3.58209 14.402 3.17536 13.4242C2.76863 12.4463 1.21094 11.5895 1.21094 10.5078C1.21094 9.42608 2.75132 8.60397 3.17536 7.59147C3.5994 6.57897 3.05421 4.94339 3.85036 4.14724C4.64651 3.35108 6.31671 3.87897 7.29459 3.47224C8.27248 3.0655 9.12921 1.50781 10.2109 1.50781C11.2927 1.50781 12.1148 3.0482 13.1273 3.47224C14.1398 3.89627 15.7754 3.35108 16.5715 4.14724C17.3677 4.94339 16.8398 6.61358 17.2465 7.59147C17.6532 8.56935 19.2109 9.42608 19.2109 10.5078C19.2109 11.5895 17.6706 12.4117 17.2465 13.4242C16.8225 14.4367 17.3677 16.0722 16.5715 16.8684C15.7754 17.6645 14.1052 17.1367 13.1273 17.5434C12.1494 17.9501 11.2927 19.5078 10.2109 19.5078C9.12921 19.5078 8.30709 17.9674 7.29459 17.5434C6.28209 17.1194 4.64651 17.6645 3.85036 16.8684Z" stroke="url(#paint0_linear_1025_2666)" stroke-width="2" stroke-linecap="round" stroke-linejoin="round"/>
<path d="M6.76545 10.1995L6.766 10.2001C7.09469 10.5393 7.52525 10.7048 8.04267 10.7048C8.59762 10.7048 9.05574 10.5284 9.40071 10.166C9.74547 9.80383 9.91059 9.32023 9.91059 8.73272C9.91059 8.16427 9.76145 7.70171 9.44384 7.36627C9.12859 7.02995 8.69408 6.86953 8.16098 6.86953C7.6027 6.86953 7.14151 7.04759 6.7935 7.413L6.7935 7.413L6.79298 7.41355C6.44844 7.77897 6.28359 8.26714 6.28359 8.8605C6.28359 9.4076 6.4396 9.85965 6.76545 10.1995L6.76545 10.1995ZM13.1234 7.19605L13.2744 6.96418H12.9977H11.8335H11.7521L11.7077 7.03244L7.29693 13.8189L7.14631 14.0507H7.4227H8.57745H8.65876L8.70314 13.9826L13.1234 7.19605ZM10.9916 13.6401L10.9922 13.6407C11.3209 13.9798 11.7514 14.1453 12.2689 14.1453C12.8243 14.1453 13.2825 13.9671 13.6274 13.6013C13.9716 13.2362 14.1368 12.7514 14.1368 12.1638C14.1368 11.5957 13.9894 11.1344 13.6745 10.8018C13.3589 10.4686 12.9228 10.3101 12.3872 10.3101C11.8289 10.3101 11.3677 10.4882 11.0197 10.8536L11.0192 10.8541C10.6746 11.2196 10.5098 11.7077 10.5098 12.3011C10.5098 12.8482 10.6658 13.3002 10.9916 13.6401ZM7.59163 8.81318C7.59163 8.50641 7.6476 8.30334 7.73615 8.18022C7.81812 8.06625 7.94129 8.00246 8.13259 8.00246C8.30423 8.00246 8.41418 8.06131 8.48843 8.16856C8.5696 8.2858 8.62148 8.48037 8.62148 8.77532C8.62148 9.07762 8.567 9.27747 8.48117 9.39836C8.40204 9.50982 8.28368 9.57183 8.09946 9.57183C7.91881 9.57183 7.80389 9.51209 7.72759 9.4067C7.64479 9.29233 7.59163 9.10244 7.59163 8.81318ZM11.8084 12.2538C11.8084 11.9468 11.864 11.7436 11.952 11.6204C12.0333 11.5065 12.1553 11.443 12.3446 11.443C12.4914 11.443 12.6051 11.5 12.6976 11.624C12.7911 11.7495 12.8477 11.9405 12.8477 12.2159C12.8477 12.5182 12.7932 12.7181 12.7074 12.8389C12.6282 12.9504 12.5099 13.0124 12.3256 13.0124C12.141 13.0124 12.0236 12.952 11.9461 12.8465C11.8622 12.7322 11.8084 12.5427 11.8084 12.2538Z" fill="url(#paint1_linear_1025_2666)" stroke="url(#paint2_linear_1025_2666)" stroke-width="0.3"/>
<defs>
<linearGradient id="paint0_linear_1025_2666" x1="1.21094" y1="10.5078" x2="19.2109" y2="10.5078" gradientUnits="userSpaceOnUse">
<stop stop-color="#7764FB"/>
<stop offset="1" stop-color="#F364F3"/>
</linearGradient>
<linearGradient id="paint1_linear_1025_2666" x1="6.43359" y1="10.5074" x2="13.9868" y2="10.5074" gradientUnits="userSpaceOnUse">
<stop stop-color="#7764FB"/>
<stop offset="1" stop-color="#F364F3"/>
</linearGradient>
<linearGradient id="paint2_linear_1025_2666" x1="6.43359" y1="10.5074" x2="13.9868" y2="10.5074" gradientUnits="userSpaceOnUse">
<stop stop-color="#7764FB"/>
<stop offset="1" stop-color="#F364F3"/>
</linearGradient>
</defs>
</svg>
