<svg width="21" height="20" viewBox="0 0 21 20" fill="none" xmlns="http://www.w3.org/2000/svg">
<path d="M2.60822 11.075C1.8324 9.76793 1.56047 8.22257 1.8435 6.72917C2.12653 5.23577 2.94504 3.89708 4.14532 2.96451C5.3456 2.03195 6.84506 1.56967 8.36208 1.66451C9.8791 1.75934 11.3093 2.40476 12.3841 3.47955C13.4589 4.55434 14.1043 5.98455 14.1991 7.50158C14.294 9.0186 13.8317 10.5181 12.8991 11.7183C11.9666 12.9186 10.6279 13.7371 9.13448 14.0202C7.64108 14.3032 6.09573 14.0313 4.78865 13.2554L2.63418 13.8698C2.54541 13.8947 2.45159 13.8956 2.36238 13.8723C2.27317 13.8489 2.19177 13.8023 2.12657 13.7371C2.06137 13.6719 2.01471 13.5905 1.99139 13.5013C1.96807 13.4121 1.96893 13.3182 1.99389 13.2295L2.60822 11.075Z" stroke="url(#paint0_linear_991_2117)" stroke-width="2" stroke-linecap="round" stroke-linejoin="round"/>
<path d="M7.62695 14.1172C7.93191 14.9867 8.42618 15.7775 9.07405 16.4327C9.72193 17.0878 10.5072 17.5908 11.3732 17.9054C12.2392 18.22 13.1643 18.3384 14.0816 18.2518C14.9989 18.1653 15.8856 17.8761 16.6775 17.4052V17.4052L18.8319 18.0195C18.9207 18.0445 19.0145 18.0453 19.1037 18.022C19.193 17.9987 19.2744 17.952 19.3396 17.8868C19.4048 17.8216 19.4514 17.7402 19.4747 17.651C19.4981 17.5618 19.4972 17.468 19.4722 17.3792L18.8579 15.2247C19.4064 14.3041 19.7077 13.2575 19.7328 12.1861C19.7578 11.1148 19.5057 10.0552 19.0009 9.10997C18.4961 8.16473 17.7556 7.36592 16.8513 6.79093C15.9471 6.21595 14.9096 5.8843 13.8395 5.82812" stroke="url(#paint1_linear_991_2117)" stroke-width="2" stroke-linecap="round" stroke-linejoin="round"/>
<defs>
<linearGradient id="paint0_linear_991_2117" x1="1.73437" y1="7.89081" x2="14.2113" y2="7.89081" gradientUnits="userSpaceOnUse">
<stop stop-color="#7764FB"/>
<stop offset="1" stop-color="#F364F3"/>
</linearGradient>
<linearGradient id="paint1_linear_991_2117" x1="7.62695" y1="12.0537" x2="19.7345" y2="12.0537" gradientUnits="userSpaceOnUse">
<stop stop-color="#7764FB"/>
<stop offset="1" stop-color="#F364F3"/>
</linearGradient>
</defs>
</svg>
