<svg width="19" height="18" viewBox="0 0 19 18" fill="none" xmlns="http://www.w3.org/2000/svg">
<path d="M9.14922 11.9329C12.0416 11.9329 14.3863 9.60613 14.3863 6.73596C14.3863 3.86579 12.0416 1.53906 9.14922 1.53906C6.25684 1.53906 3.91211 3.86579 3.91211 6.73596C3.91211 9.60613 6.25684 11.9329 9.14922 11.9329Z" stroke="url(#paint0_linear_946_5483)" stroke-width="2" stroke-miterlimit="10"/>
<path d="M1.21094 16.4816C2.01527 15.0989 3.17226 13.9506 4.5656 13.1522C5.95893 12.3539 7.53951 11.9336 9.14844 11.9336C10.7574 11.9336 12.3379 12.3539 13.7313 13.1522C15.1246 13.9506 16.2816 15.0989 17.0859 16.4816" stroke="url(#paint1_linear_946_5483)" stroke-width="2" stroke-linecap="round" stroke-linejoin="round"/>
<defs>
<linearGradient id="paint0_linear_946_5483" x1="3.91211" y1="6.73596" x2="14.3863" y2="6.73596" gradientUnits="userSpaceOnUse">
<stop stop-color="#7764FB"/>
<stop offset="1" stop-color="#F364F3"/>
</linearGradient>
<linearGradient id="paint1_linear_946_5483" x1="1.21094" y1="14.2076" x2="17.0859" y2="14.2076" gradientUnits="userSpaceOnUse">
<stop stop-color="#7764FB"/>
<stop offset="1" stop-color="#F364F3"/>
</linearGradient>
</defs>
</svg>
