<svg width="21" height="19" viewBox="0 0 21 19" fill="none" xmlns="http://www.w3.org/2000/svg">
<path d="M1.21094 3.07303V15.5948C1.21094 16.0099 1.37584 16.408 1.66938 16.7015C1.96291 16.9951 2.36103 17.16 2.77615 17.16H18.4283C18.6359 17.16 18.8349 17.0775 18.9817 16.9308C19.1285 16.784 19.2109 16.5849 19.2109 16.3774V5.42086C19.2109 5.2133 19.1285 5.01424 18.9817 4.86747C18.8349 4.7207 18.6359 4.63825 18.4283 4.63825H2.77615C2.36103 4.63825 1.96291 4.47334 1.66938 4.17981C1.37584 3.88627 1.21094 3.48815 1.21094 3.07303ZM1.21094 3.07303C1.21094 2.65791 1.37584 2.25979 1.66938 1.96625C1.96291 1.67272 2.36103 1.50781 2.77615 1.50781H16.0805" stroke="url(#paint0_linear_946_6125)" stroke-width="2" stroke-linecap="round" stroke-linejoin="round"/>
<path d="M14.9063 12.0744C15.5547 12.0744 16.0802 11.5488 16.0802 10.9005C16.0802 10.2521 15.5547 9.72656 14.9063 9.72656C14.258 9.72656 13.7324 10.2521 13.7324 10.9005C13.7324 11.5488 14.258 12.0744 14.9063 12.0744Z" fill="url(#paint1_linear_946_6125)"/>
<defs>
<linearGradient id="paint0_linear_946_6125" x1="1.21094" y1="9.3339" x2="19.2109" y2="9.3339" gradientUnits="userSpaceOnUse">
<stop stop-color="#7764FB"/>
<stop offset="1" stop-color="#F364F3"/>
</linearGradient>
<linearGradient id="paint1_linear_946_6125" x1="13.7324" y1="10.9005" x2="16.0802" y2="10.9005" gradientUnits="userSpaceOnUse">
<stop stop-color="#7764FB"/>
<stop offset="1" stop-color="#F364F3"/>
</linearGradient>
</defs>
</svg>
