<svg width="21" height="16" viewBox="0 0 21 16" fill="none" xmlns="http://www.w3.org/2000/svg">
<path d="M10.2109 11.5741C11.9249 11.5741 13.3143 10.1846 13.3143 8.47064C13.3143 6.75665 11.9249 5.36719 10.2109 5.36719C8.49688 5.36719 7.10742 6.75665 7.10742 8.47064C7.10742 10.1846 8.49688 11.5741 10.2109 11.5741Z" stroke="url(#paint0_linear_946_5928)" stroke-width="2" stroke-linecap="round" stroke-linejoin="round"/>
<path d="M15.4863 6.60938C16.2092 6.60817 16.9224 6.7759 17.569 7.0992C18.2156 7.42249 18.7777 7.8924 19.2105 8.47145" stroke="url(#paint1_linear_946_5928)" stroke-width="2" stroke-linecap="round" stroke-linejoin="round"/>
<path d="M1.21094 8.47145C1.64371 7.8924 2.20581 7.42249 2.8524 7.0992C3.49898 6.7759 4.21217 6.60817 4.93508 6.60938" stroke="url(#paint2_linear_946_5928)" stroke-width="2" stroke-linecap="round" stroke-linejoin="round"/>
<path d="M5.74219 14.3692C6.15093 13.5322 6.78656 12.8267 7.57667 12.3332C8.36678 11.8398 9.2796 11.5781 10.2112 11.5781C11.1427 11.5781 12.0555 11.8398 12.8456 12.3332C13.6357 12.8267 14.2714 13.5322 14.6801 14.3692" stroke="url(#paint3_linear_946_5928)" stroke-width="2" stroke-linecap="round" stroke-linejoin="round"/>
<path d="M4.9345 6.61005C4.46327 6.61053 4.00164 6.47689 3.60354 6.22475C3.20545 5.97262 2.88732 5.61239 2.68635 5.18617C2.48537 4.75995 2.40984 4.28534 2.46859 3.81779C2.52733 3.35024 2.71792 2.90906 3.01808 2.54581C3.31825 2.18255 3.71559 1.91222 4.16369 1.7664C4.61178 1.62058 5.09213 1.60529 5.54859 1.72232C6.00505 1.83935 6.41878 2.08387 6.74144 2.4273C7.06409 2.77074 7.28235 3.1989 7.3707 3.66177" stroke="url(#paint4_linear_946_5928)" stroke-width="2" stroke-linecap="round" stroke-linejoin="round"/>
<path d="M13.0508 3.66177C13.1391 3.1989 13.3574 2.77074 13.68 2.4273C14.0027 2.08387 14.4164 1.83935 14.8729 1.72232C15.3294 1.60529 15.8097 1.62058 16.2578 1.7664C16.7059 1.91222 17.1032 2.18255 17.4034 2.54581C17.7036 2.90906 17.8942 3.35024 17.9529 3.81779C18.0116 4.28534 17.9361 4.75995 17.7351 5.18617C17.5342 5.61239 17.216 5.97262 16.8179 6.22475C16.4198 6.47689 15.9582 6.61053 15.487 6.61005" stroke="url(#paint5_linear_946_5928)" stroke-width="2" stroke-linecap="round" stroke-linejoin="round"/>
<defs>
<linearGradient id="paint0_linear_946_5928" x1="7.10742" y1="8.47064" x2="13.3143" y2="8.47064" gradientUnits="userSpaceOnUse">
<stop stop-color="#7764FB"/>
<stop offset="1" stop-color="#F364F3"/>
</linearGradient>
<linearGradient id="paint1_linear_946_5928" x1="15.4863" y1="7.54041" x2="19.2105" y2="7.54041" gradientUnits="userSpaceOnUse">
<stop stop-color="#7764FB"/>
<stop offset="1" stop-color="#F364F3"/>
</linearGradient>
<linearGradient id="paint2_linear_946_5928" x1="1.21094" y1="7.54041" x2="4.93508" y2="7.54041" gradientUnits="userSpaceOnUse">
<stop stop-color="#7764FB"/>
<stop offset="1" stop-color="#F364F3"/>
</linearGradient>
<linearGradient id="paint3_linear_946_5928" x1="5.74219" y1="12.9737" x2="14.6801" y2="12.9737" gradientUnits="userSpaceOnUse">
<stop stop-color="#7764FB"/>
<stop offset="1" stop-color="#F364F3"/>
</linearGradient>
<linearGradient id="paint4_linear_946_5928" x1="2.44922" y1="4.12729" x2="7.3707" y2="4.12729" gradientUnits="userSpaceOnUse">
<stop stop-color="#7764FB"/>
<stop offset="1" stop-color="#F364F3"/>
</linearGradient>
<linearGradient id="paint5_linear_946_5928" x1="13.0508" y1="4.12729" x2="17.9723" y2="4.12729" gradientUnits="userSpaceOnUse">
<stop stop-color="#7764FB"/>
<stop offset="1" stop-color="#F364F3"/>
</linearGradient>
</defs>
</svg>
