<svg width="20" height="19" viewBox="0 0 20 19" fill="none" xmlns="http://www.w3.org/2000/svg">
<path d="M2.08478 10.4656C1.30896 9.15855 1.03703 7.6132 1.32006 6.1198C1.60309 4.6264 2.4216 3.2877 3.62188 2.35514C4.82216 1.42257 6.32162 0.960295 7.83864 1.05513C9.35566 1.14997 10.7859 1.79539 11.8607 2.87018C12.9355 3.94497 13.5809 5.37518 13.6757 6.8922C13.7705 8.40922 13.3083 9.90868 12.3757 11.109C11.4431 12.3092 10.1044 13.1278 8.61105 13.4108C7.11765 13.6938 5.57229 13.4219 4.26521 12.6461L2.11074 13.2604C2.02197 13.2853 1.92815 13.2862 1.83894 13.2629C1.74973 13.2396 1.66833 13.1929 1.60313 13.1277C1.53793 13.0625 1.49127 12.9811 1.46795 12.8919C1.44463 12.8027 1.4455 12.7089 1.47045 12.6201L2.08478 10.4656Z" stroke="#6B6B6B" stroke-linecap="round" stroke-linejoin="round"/>
<path d="M7.10352 13.5079C7.40847 14.3773 7.90274 15.1682 8.55062 15.8233C9.19849 16.4784 9.9838 16.9815 10.8498 17.2961C11.7158 17.6107 12.6409 17.729 13.5582 17.6425C14.4755 17.556 15.3621 17.2668 16.154 16.7958V16.7958L18.3085 17.4101C18.3973 17.4351 18.4911 17.436 18.5803 17.4126C18.6695 17.3893 18.7509 17.3427 18.8161 17.2775C18.8813 17.2122 18.928 17.1309 18.9513 17.0416C18.9746 16.9524 18.9738 16.8586 18.9488 16.7698L18.3345 14.6154C18.8829 13.6948 19.1843 12.6481 19.2093 11.5768C19.2344 10.5055 18.9823 9.44584 18.4774 8.5006C17.9726 7.55536 17.2322 6.75654 16.3279 6.18156C15.4236 5.60658 14.3861 5.27493 13.316 5.21875" stroke="#6B6B6B" stroke-linecap="round" stroke-linejoin="round"/>
</svg>
