<svg width="51" height="52" viewBox="0 0 51 52" fill="none" xmlns="http://www.w3.org/2000/svg">
<g clip-path="url(#clip0_639_2530)">
<path d="M26.3144 40.1534V43.4563C27.5935 43.7942 28.5927 44.5266 29.194 45.7543C29.6449 46.6741 29.7451 47.645 29.5099 48.647C29.0492 50.6143 27.2386 51.9798 25.2275 51.879C23.2331 51.7782 21.5769 50.197 21.3236 48.1219C21.1121 46.386 22.0237 44.1675 24.6082 43.4549V40.1534H23.9457C18.4956 40.1534 13.0441 40.1534 7.59402 40.1534C6.71722 40.1534 5.86268 40.0612 5.07913 39.6112C3.74861 38.8462 3.00403 37.7007 2.97619 36.1295C2.85929 29.5094 2.7563 22.8894 2.64774 16.2694C2.59764 13.2078 2.54197 10.1447 2.50161 7.08312C2.49743 6.72544 2.40001 6.53382 2.05764 6.36917C0.860734 5.79432 0.246973 4.47287 0.529498 3.19542C0.827332 1.84274 1.92264 0.904529 3.2796 0.893174C5.46603 0.876142 7.65387 0.887497 9.8417 0.887497C22.3744 0.887497 34.9085 0.887497 47.4412 0.887497C49.2185 0.887497 50.5225 2.17204 50.4585 3.88098C50.4168 5.02075 49.867 5.8738 48.865 6.36633C48.5226 6.53524 48.4293 6.72828 48.4238 7.08454C48.3486 12.0581 48.2609 17.033 48.1788 22.0066C48.1023 26.6976 48.0327 31.3887 47.952 36.0784C47.9158 38.2145 46.3556 39.9107 44.2652 40.1037C43.9201 40.135 43.5721 40.1492 43.2256 40.1492C37.827 40.152 32.4284 40.1506 27.0298 40.1506H26.3144V40.1534ZM4.18562 6.71976C4.17727 6.87163 4.16475 6.97383 4.16614 7.07602C4.32341 16.7406 4.48068 26.4052 4.64212 36.0698C4.66021 37.1202 5.22804 37.952 6.21758 38.2642C6.67129 38.4076 7.17232 38.4445 7.65247 38.4459C19.5255 38.4558 31.3999 38.453 43.2729 38.4516C43.568 38.4516 43.8644 38.4416 44.1553 38.4062C45.4204 38.2543 46.2638 37.309 46.2861 36.0173C46.4461 26.3882 46.602 16.7591 46.7579 7.12996C46.7606 6.99654 46.7356 6.86312 46.7231 6.71976H4.18562ZM25.4599 2.58792C18.2228 2.58792 10.9857 2.58792 3.74862 2.58792C3.57465 2.58792 3.40068 2.57941 3.2281 2.59644C2.61434 2.65463 2.15785 3.13581 2.13279 3.74188C2.10774 4.32667 2.49743 4.83623 3.08475 4.95688C3.30326 5.00088 3.53289 5.00372 3.75697 5.00372C18.2312 5.00514 32.7054 5.00514 47.1782 5.00372C47.3688 5.00372 47.5623 5.00656 47.7488 4.97675C48.3946 4.87456 48.8246 4.35506 48.794 3.73195C48.7634 3.10316 48.2902 2.63334 47.6388 2.59076C47.4663 2.57941 47.2923 2.5865 47.1183 2.5865C39.8993 2.5865 32.6789 2.5865 25.4599 2.5865V2.58792ZM25.453 50.1842C26.8155 50.1899 27.9456 49.0572 27.9623 47.6733C27.979 46.2596 26.8558 45.0929 25.4738 45.0886C24.1113 45.0844 22.9812 46.2142 22.9645 47.5995C22.9478 49.0118 24.0709 50.18 25.453 50.1857V50.1842Z" fill="white"/>
<path d="M23.0827 35.3308C19.7856 35.2727 17.1343 34.218 14.895 32.1088C14.1977 31.4517 14.195 31.0599 14.8574 30.3843C17.1413 28.0551 19.4293 25.7315 21.6979 23.3881C21.8788 23.2022 22.0124 22.8771 22.0138 22.6174C22.0347 19.3244 22.0277 16.0314 22.0277 12.737C22.0277 11.7733 22.2963 11.5036 23.2344 11.5235C28.903 11.647 33.8075 16.2287 34.4366 21.9886C35.1408 28.4326 30.953 34.1059 24.6943 35.1719C24.0806 35.2769 23.4529 35.2954 23.0827 35.3294V35.3308ZM30.4993 29.9783C32.9961 27.141 33.6057 22.6671 31.9133 19.1087C30.2641 15.6411 27.5001 13.7349 23.7354 13.2423C23.7159 13.3843 23.6978 13.451 23.6978 13.5191C23.6964 16.6006 23.6895 19.6807 23.709 22.7622C23.709 22.9708 23.8648 23.2192 24.0193 23.3782C26.0471 25.4661 28.0888 27.5427 30.1263 29.6207C30.2474 29.7441 30.3741 29.8591 30.4993 29.9783ZM16.3925 31.1578C20.2658 34.6396 26.1376 34.1925 29.1952 31.2515C27.0673 29.0813 24.9379 26.9096 22.7626 24.6897C20.668 26.8174 18.5317 28.9848 16.3925 31.1578Z" fill="white"/>
<path d="M20.3619 16.1813C20.3619 17.9513 20.3814 19.7227 20.3438 21.4913C20.3368 21.8234 20.1796 22.2322 19.9541 22.4664C17.5199 24.9901 15.0579 27.4868 12.6015 29.9877C12.0768 30.5214 11.6342 30.5257 11.1346 29.9707C8.03795 26.5244 7.04563 22.5132 8.45547 18.0776C9.86392 13.6463 12.9647 10.975 17.4503 10.0269C18.0585 9.89913 18.6876 9.85797 19.3097 9.82958C20.0529 9.79552 20.3591 10.1177 20.3605 10.8714C20.3647 12.6414 20.3605 14.4114 20.3605 16.1828L20.3619 16.1813ZM18.6946 11.5953C15.1345 11.6961 11.5382 14.4071 10.2063 18.0649C8.86047 21.7638 9.49233 25.1675 11.8569 28.2944C11.9613 28.2121 12.0197 28.1737 12.0685 28.1255C14.2048 25.9481 16.3453 23.7736 18.4691 21.5835C18.6055 21.443 18.682 21.1847 18.6848 20.9789C18.7029 19.4388 18.6946 17.8988 18.6946 16.3588C18.6946 14.7861 18.6946 13.212 18.6946 11.5953Z" fill="white"/>
<path d="M39.6668 13.2167C38.886 13.2167 38.1053 13.2209 37.3245 13.2153C36.7177 13.2096 36.3517 12.8774 36.36 12.3551C36.3684 11.8555 36.726 11.5234 37.3022 11.5205C38.8986 11.512 40.4935 11.5134 42.0898 11.5205C42.6897 11.5234 43.071 11.8768 43.0613 12.3878C43.0515 12.9002 42.6785 13.2124 42.0592 13.2167C41.2617 13.2224 40.4629 13.2167 39.6654 13.2167H39.6668Z" fill="white"/>
<path d="M39.7266 19.477C40.5241 19.477 41.3229 19.4699 42.1204 19.4784C42.6938 19.4841 43.0571 19.8176 43.0612 20.3144C43.0654 20.8084 42.698 21.1689 42.1343 21.1717C40.5213 21.1817 38.9083 21.1802 37.2952 21.1717C36.7204 21.1689 36.3641 20.8311 36.3614 20.3286C36.3572 19.8219 36.7107 19.4841 37.2813 19.477C38.0969 19.467 38.9124 19.4741 39.7266 19.4741V19.477Z" fill="white"/>
<path d="M39.7154 15.5044C40.5129 15.5044 41.3104 15.4958 42.1079 15.5072C42.691 15.5157 43.0515 15.8393 43.0626 16.329C43.0737 16.8159 42.7147 17.1878 42.144 17.1934C40.5143 17.209 38.8846 17.2105 37.2548 17.1934C36.6773 17.1863 36.3404 16.8201 36.3599 16.3134C36.378 15.8294 36.7107 15.5186 37.2701 15.5086C38.0843 15.4944 38.8999 15.5044 39.7154 15.5044Z" fill="white"/>
</g>
<defs>
<clipPath id="clip0_639_2530">
<rect width="50" height="51" fill="white" transform="translate(0.461182 0.884766)"/>
</clipPath>
</defs>
</svg>
